STARTFONT 2.1
FONT -FontForge-Pacifico-Book-R-Normal--32-320-72-72-P-188-ISO10646-1
SIZE 32 72 72
FONTBOUNDINGBOX 72 62 -19 -15
COMMENT "Generated by fontforge, http://fontforge.sourceforge.net"
COMMENT "Copyright 2018 The Pacifico Project Authors (https://github.com/googlefonts/Pacifico)"
STARTPROPERTIES 40
FOUNDRY "FontForge"
FAMILY_NAME "Pacifico"
WEIGHT_NAME "Book"
SLANT "R"
SETWIDTH_NAME "Normal"
ADD_STYLE_NAME ""
PIXEL_SIZE 32
POINT_SIZE 320
RESOLUTION_X 72
RESOLUTION_Y 72
SPACING "P"
AVERAGE_WIDTH 188
CHARSET_REGISTRY "ISO10646"
CHARSET_ENCODING "1"
FONTNAME_REGISTRY ""
CHARSET_COLLECTIONS "ISO8859-2 ISO8859-5 ISO8859-9 ISO8859-4 ISO10646-1"
FONT_NAME "Pacifico-Regular"
FACE_NAME "Pacifico Regular"
COPYRIGHT "Copyright 2018 The Pacifico Project Authors (https://github.com/googlefonts/Pacifico)"
FONT_VERSION "3.001"
FONT_ASCENT 26
FONT_DESCENT 6
UNDERLINE_POSITION -3
UNDERLINE_THICKNESS 2
X_HEIGHT 14
CAP_HEIGHT 26
DEFAULT_CHAR 1
RAW_ASCENT 800
RAW_DESCENT 200
NORM_SPACE 8
RELATIVE_WEIGHT 40
RELATIVE_SETWIDTH 50
SUPERSCRIPT_X 0
SUPERSCRIPT_Y 11
SUPERSCRIPT_SIZE 19
SUBSCRIPT_X 0
SUBSCRIPT_Y 2
SUBSCRIPT_SIZE 19
AVG_LOWERCASE_WIDTH 151
AVG_UPPERCASE_WIDTH 260
ENDPROPERTIES
CHARS 1514
STARTCHAR NULL.dup1
ENCODING 0
SWIDTH 0 0
DWIDTH 0 0
BBX 1 1 0 0
BITMAP
00
ENDCHAR
STARTCHAR nonmarkingreturn
ENCODING 13
SWIDTH 265 0
DWIDTH 8 0
BBX 1 1 0 0
BITMAP
00
ENDCHAR
STARTCHAR space
ENCODING 32
SWIDTH 265 0
DWIDTH 8 0
BBX 1 1 0 0
BITMAP
00
ENDCHAR
STARTCHAR exclam
ENCODING 33
SWIDTH 340 0
DWIDTH 11 0
BBX 11 27 1 0
BITMAP
01C0
03E0
03C0
07C0
07C0
07C0
0780
0780
0F80
0F80
0F00
0F00
0F00
1E00
1E00
1E00
1C00
1C00
1C00
0000
0000
7800
FC00
FC00
FC00
FC00
7800
ENDCHAR
STARTCHAR quotedbl
ENCODING 34
SWIDTH 510 0
DWIDTH 16 0
BBX 12 11 4 16
BITMAP
78F0
78F0
F9F0
F9F0
F9F0
F9F0
F1E0
F1E0
F1E0
F1E0
E1C0
ENDCHAR
STARTCHAR numbersign
ENCODING 35
SWIDTH 700 0
DWIDTH 22 0
BBX 21 19 1 0
BITMAP
01C1C0
01E3C0
03C3C0
03C3C0
3FFFF0
7FFFF8
3FFFF8
078780
078F00
0F0F00
0F0F00
0F0F00
FFFFE0
FFFFF0
7FFFE0
1E3C00
3C3C00
3C3C00
183800
ENDCHAR
STARTCHAR dollar
ENCODING 36
SWIDTH 524 0
DWIDTH 17 0
BBX 14 27 1 -4
BITMAP
00E0
00C0
00C0
00C0
07F0
1FF8
3FFC
3DFC
79DC
799C
3D80
3F80
3FC0
1FF0
07F8
03FC
633C
F33C
F33C
FB7C
7FF8
3FF0
0FC0
0700
0600
0600
0600
ENDCHAR
STARTCHAR percent
ENCODING 37
SWIDTH 896 0
DWIDTH 29 0
BBX 26 24 2 0
BITMAP
1F003000
3F807000
7FC0F000
F7C3F000
E7DFE000
E3FFE000
E3FFC000
E1FFC000
E1C78000
F38F0000
FF9F0000
7F1E1E00
1C3E7F80
003C7F80
0078F3C0
00F8E3C0
00F1E1C0
01F1E1C0
01E1E1C0
03C1E3C0
03C0E380
0780FF80
07807F00
03003E00
ENDCHAR
STARTCHAR ampersand
ENCODING 38
SWIDTH 851 0
DWIDTH 27 0
BBX 26 30 1 -2
BITMAP
00FF0000
01FF8000
03FFC000
03C3C000
07C3C000
0781C000
0783C000
0783C000
0783C000
07878000
07CF8000
03FF0000
03FE0000
01F80000
07F00000
0FF80380
1F7C07C0
3E7E0780
7C3E0F80
781F1F00
781FBE00
F80FFC00
F807F800
7C03F000
7FBFF800
3FFFFC00
1FFEFE00
07F87E00
00003E00
00001E00
ENDCHAR
STARTCHAR quotesingle
ENCODING 39
SWIDTH 290 0
DWIDTH 9 0
BBX 5 11 4 16
BITMAP
78
78
F8
F8
F8
F8
F0
F0
F0
F0
E0
ENDCHAR
STARTCHAR parenleft
ENCODING 40
SWIDTH 613 0
DWIDTH 20 0
BBX 21 34 3 -4
BITMAP
000FC0
007FF0
00FFF8
01FDF8
03E070
07C000
078000
0F8000
1F0000
1F0000
1E0000
3E0000
3C0000
3C0000
7C0000
780000
780000
780000
F80000
F80000
F80000
F00000
F00000
F00000
F00000
F00000
F00000
F00000
F80E00
781E00
7C3E00
7FFC00
3FF800
0FE000
ENDCHAR
STARTCHAR parenright
ENCODING 41
SWIDTH 613 0
DWIDTH 20 0
BBX 21 34 -3 -4
BITMAP
001F00
007FC0
01FFE0
03FBF0
03C0F0
0380F8
0100F8
000078
000078
000078
000078
000078
000078
000078
0000F8
0000F8
0000F0
0000F0
0000F0
0001F0
0001F0
0001E0
0003E0
0003E0
0003C0
0007C0
000780
000F80
001F00
603E00
787E00
FFFC00
7FF000
3FE000
ENDCHAR
STARTCHAR asterisk
ENCODING 42
SWIDTH 520 0
DWIDTH 17 0
BBX 13 14 4 16
BITMAP
0300
0780
6780
7330
7B78
3FF8
0FF0
FF00
FFC0
F7F0
EEF0
0E60
0E00
0E00
ENDCHAR
STARTCHAR plus
ENCODING 43
SWIDTH 700 0
DWIDTH 22 0
BBX 17 19 3 0
BITMAP
00E000
00E000
01E000
01E000
01E000
01E000
01E000
01E000
FFFF80
FFFF80
FFFF80
03C000
03C000
03C000
03C000
03C000
038000
038000
038000
ENDCHAR
STARTCHAR comma
ENCODING 44
SWIDTH 257 0
DWIDTH 8 0
BBX 5 11 1 -5
BITMAP
78
78
F8
F8
F8
F8
F0
F0
E0
E0
C0
ENDCHAR
STARTCHAR hyphen
ENCODING 45
SWIDTH 403 0
DWIDTH 13 0
BBX 10 4 2 8
BITMAP
7FC0
FFC0
FFC0
FF00
ENDCHAR
STARTCHAR period
ENCODING 46
SWIDTH 257 0
DWIDTH 8 0
BBX 6 6 1 0
BITMAP
78
FC
FC
FC
F8
78
ENDCHAR
STARTCHAR slash
ENCODING 47
SWIDTH 509 0
DWIDTH 16 0
BBX 18 30 0 0
BITMAP
000180
0003C0
0003C0
000780
000F80
000F00
001F00
001E00
003E00
003C00
007C00
007800
00F800
00F000
01F000
01E000
03C000
03C000
078000
0F8000
0F0000
1F0000
1E0000
3E0000
3C0000
7C0000
780000
F80000
F00000
600000
ENDCHAR
STARTCHAR zero
ENCODING 48
SWIDTH 543 0
DWIDTH 17 0
BBX 14 19 2 0
BITMAP
07C0
1FF0
3FF8
3EF8
787C
783C
F03C
F03C
F03C
F03C
F03C
F03C
F03C
F078
F078
FDF0
7FF0
3FE0
1F80
ENDCHAR
STARTCHAR one
ENCODING 49
SWIDTH 376 0
DWIDTH 12 0
BBX 9 19 2 0
BITMAP
0F00
7F80
FF80
FF00
EF00
0F00
0F00
1F00
1F00
1E00
1E00
1E00
1E00
1E00
3E00
3E00
3E00
3C00
1C00
ENDCHAR
STARTCHAR two
ENCODING 50
SWIDTH 560 0
DWIDTH 18 0
BBX 16 19 1 0
BITMAP
03F0
0FFC
1FFC
3F7E
3C1E
3C1E
381E
383E
003C
007C
00F8
01F0
03E0
07C0
1F80
7E00
7FFF
FFFF
7FFE
ENDCHAR
STARTCHAR three
ENCODING 51
SWIDTH 520 0
DWIDTH 17 0
BBX 15 19 1 0
BITMAP
07F0
1FF8
3FFC
7EFC
783E
783C
703C
0078
03F0
07E0
07F8
00F8
403C
E03C
F03C
FDFC
FFF8
7FF0
1FC0
ENDCHAR
STARTCHAR four
ENCODING 52
SWIDTH 577 0
DWIDTH 18 0
BBX 16 19 2 0
BITMAP
0700
0F80
0F00
1F00
1E1C
3E3C
3C3C
7C7C
7878
F878
F078
F078
FFFF
FFFF
FFFE
00F0
00F0
00F0
0070
ENDCHAR
STARTCHAR five
ENCODING 53
SWIDTH 518 0
DWIDTH 17 0
BBX 15 19 1 0
BITMAP
1FFE
7FFE
7FFE
1E00
1C00
3C00
3C00
3C00
3FE0
3FF8
3FFC
00FC
003C
703C
F03C
7EFC
7FF8
3FF0
0FC0
ENDCHAR
STARTCHAR six
ENCODING 54
SWIDTH 541 0
DWIDTH 17 0
BBX 14 19 2 0
BITMAP
03E0
0FF8
1FFC
3FFC
7C3C
781C
F000
F3C0
FFF0
FFF8
FFF8
F878
F07C
F078
F078
FDF8
7FF0
3FE0
1F80
ENDCHAR
STARTCHAR seven
ENCODING 55
SWIDTH 497 0
DWIDTH 16 0
BBX 16 19 1 0
BITMAP
7E0E
7FFF
FFFF
7FFE
007C
00F8
01E0
03C0
07C0
0780
0F80
0F00
0F00
1F00
1F00
1E00
1E00
1E00
0C00
ENDCHAR
STARTCHAR eight
ENCODING 56
SWIDTH 512 0
DWIDTH 16 0
BBX 15 19 1 0
BITMAP
07F0
1FF8
3FFC
3F7E
3C1E
781E
3C3C
3E7C
3FF0
0FE0
1FF8
7CFC
783C
F03C
F03C
FFFC
7FF8
3FF0
1FC0
ENDCHAR
STARTCHAR nine
ENCODING 57
SWIDTH 541 0
DWIDTH 17 0
BBX 15 19 1 0
BITMAP
07E0
0FF8
1FFC
3FFC
3C3E
781E
781E
7C3E
3EFE
3FFE
1FFE
0F9E
003C
703C
F07C
FDF8
7FF0
3FE0
1F80
ENDCHAR
STARTCHAR colon
ENCODING 58
SWIDTH 257 0
DWIDTH 8 0
BBX 7 15 1 0
BITMAP
3C
7E
7E
7E
7E
3C
00
00
00
78
FC
FC
FC
F8
78
ENDCHAR
STARTCHAR semicolon
ENCODING 59
SWIDTH 257 0
DWIDTH 8 0
BBX 7 20 1 -5
BITMAP
3C
7E
7E
7E
7E
3C
00
00
00
78
78
F8
F8
F8
F8
F0
F0
E0
E0
C0
ENDCHAR
STARTCHAR less
ENCODING 60
SWIDTH 700 0
DWIDTH 22 0
BBX 18 15 3 2
BITMAP
000080
0007C0
003FC0
01FF80
0FFE00
7FF000
FF8000
FC0000
FE0000
FFC000
1FF000
07FE00
00FF00
003F00
000700
ENDCHAR
STARTCHAR equal
ENCODING 61
SWIDTH 700 0
DWIDTH 22 0
BBX 19 11 2 4
BITMAP
3FFFC0
7FFFE0
7FFFC0
000000
000000
000000
000000
000000
FFFFC0
FFFFC0
7FFF80
ENDCHAR
STARTCHAR greater
ENCODING 62
SWIDTH 700 0
DWIDTH 22 0
BBX 18 15 2 2
BITMAP
100000
3C0000
7F8000
3FF000
0FFC00
01FF80
007FC0
000FC0
001FC0
00FF80
07FE00
3FF000
FF8000
FC0000
E00000
ENDCHAR
STARTCHAR question
ENCODING 63
SWIDTH 476 0
DWIDTH 15 0
BBX 15 27 2 0
BITMAP
07E0
1FF8
3FFC
7EFC
783E
783E
783E
703C
007C
00F8
01F0
03E0
07C0
0F80
0F00
1E00
1C00
1C00
1C00
0000
0000
7800
FC00
FC00
FC00
FC00
7800
ENDCHAR
STARTCHAR at
ENCODING 64
SWIDTH 1015 0
DWIDTH 32 0
BBX 30 33 1 -9
BITMAP
0003FC00
001FFF80
007FFFE0
01FF9FF0
03F801F0
07E000F8
0F80007C
0F00003C
1F00003C
3E01C01C
3C07F81C
3C0FFC1C
781FFC1C
783E381C
783C783C
787C783C
F878783C
F0787878
F078F878
F078F8F0
F07DFFF0
F87FBFE0
783FBFC0
781E1F00
7C000000
3C000000
3E000000
1F0000E0
0FC007F0
07FEFFE0
03FFFFC0
00FFFF00
003FF000
ENDCHAR
STARTCHAR A
ENCODING 65
SWIDTH 786 0
DWIDTH 25 0
BBX 27 27 2 0
BITMAP
0007FE00
003FFF80
00FFFF80
01FF3F00
07F00000
0FC03000
1F807800
1F007800
3E007800
3C00F800
7C00F800
7C00F000
7800F000
F801F000
F801F000
F801F000
F801F000
F803E000
F803E000
F807E000
F807E060
F80FE060
7C1DF0E0
7F7DFFC0
3FF9FFC0
1FF0FF00
07C07E00
ENDCHAR
STARTCHAR B
ENCODING 66
SWIDTH 827 0
DWIDTH 26 0
BBX 27 28 1 -1
BITMAP
003FF000
07FFFE00
1FFFFF80
7FFDFFC0
FE000FC0
F00007E0
C08003E0
03C003E0
03C003E0
07C007C0
07C00FC0
07803F80
0787FE00
0F8FF800
0F8FF000
0F83FC00
0F007E00
0F003E00
1F001E00
1F003E00
1F003E00
1F007E00
1E00FC00
1FBFF800
1FFFF000
1FFFC000
1FFE0000
1E000000
ENDCHAR
STARTCHAR C
ENCODING 67
SWIDTH 686 0
DWIDTH 22 0
BBX 24 27 2 0
BITMAP
003F80
01FFC0
03FFE0
07FFF0
0FC0F0
1F00F0
3E00F0
3E00F0
7C00F0
7C00F0
780060
F80000
F80000
F80000
F80000
F80000
F80000
F80000
F80000
7C0000
7C0000
7E0003
3F001F
1FFBFF
0FFFFE
03FFF8
00FFC0
ENDCHAR
STARTCHAR D
ENCODING 68
SWIDTH 836 0
DWIDTH 27 0
BBX 25 27 1 0
BITMAP
00FF8000
0FFFF000
3FFFF800
7FE7FC00
FC007E00
F0003F00
40001F00
03C00F80
07C00F80
07C00F80
07800F80
07800F80
0F800F80
0F800F80
0F000F80
0F000F80
0F000F00
1F001F00
1F001F00
1F003E00
1E007E00
1E00FC00
1E01F800
1F3FF000
3FFFE000
1FFF8000
0FFC0000
ENDCHAR
STARTCHAR E
ENCODING 69
SWIDTH 686 0
DWIDTH 22 0
BBX 25 27 1 0
BITMAP
003FC000
01FFF000
03FFF800
07FBF800
0FC07C00
1F803C00
1F003C00
1F007C00
1F007800
1F003800
0FC00000
07FC0000
01FC0000
0FFC0000
1FF00000
3E000000
7C000000
F8000000
F8000000
F8000000
F8000000
F8000180
7E000F80
7FF7FF80
3FFFFF00
0FFFFC00
01FFC000
ENDCHAR
STARTCHAR F
ENCODING 70
SWIDTH 712 0
DWIDTH 23 0
BBX 30 27 0 0
BITMAP
001FFFF0
01FFFFFC
07FFFFFC
0FFF81F8
1F078000
1E078000
1E078000
1E0F8000
1E0F8000
1E0F8000
0E0F8000
000F8000
007FFF00
00FFFF00
00FFFF00
000F0000
001F0000
001F0000
001F0000
001E0000
401E0000
E03E0000
F07C0000
FDFC0000
7FF80000
3FF00000
0FC00000
ENDCHAR
STARTCHAR G
ENCODING 71
SWIDTH 811 0
DWIDTH 26 0
BBX 27 42 2 -15
BITMAP
003F8000
00FFE000
03FFF000
07FBF800
0FC0F800
1F007800
3E007800
3E007800
7C007800
7C007800
78002000
F8000000
F8000000
F8000000
F8000000
F807FC00
F807FC00
F807FC00
F8003C00
7C003C00
7C003C20
7E0038E0
3F0039E0
1FF7FFC0
0FFFFF80
03FFFE00
00FF7C00
0000F800
0001F000
0003F000
0007F000
000EF000
001CE000
0038E000
0039E000
0071C000
0073C000
0073C000
00778000
007F0000
007F0000
003C0000
ENDCHAR
STARTCHAR H
ENCODING 72
SWIDTH 873 0
DWIDTH 28 0
BBX 33 28 -1 0
BITMAP
0000003C00
03E000FE00
0FF000FE00
1FF801E600
3EF803C600
787803C600
707C078600
E07C078E00
4078078E00
00780F1C00
00780F3C00
00780F7800
00780FF800
00F83FE000
07FFFFC000
0FFFFF0000
0FFFDE0000
00F01E0000
01F01E0000
01F01E0000
01E01E0000
01E01F0180
03E01F0380
03E00F0780
03C00FDF00
03C007FE00
03C003FC00
038001F000
ENDCHAR
STARTCHAR I
ENCODING 73
SWIDTH 495 0
DWIDTH 16 0
BBX 19 27 -1 0
BITMAP
07FFC0
0FFFE0
0FFFC0
007C00
007800
007800
00F800
00F800
00F800
00F800
00F000
00F000
00F000
01F000
01F000
01F000
01E000
01E000
01E000
03E000
03E000
03E000
03E000
03C000
7FFE00
FFFE00
7FFC00
ENDCHAR
STARTCHAR J
ENCODING 74
SWIDTH 743 0
DWIDTH 24 0
BBX 23 30 2 -3
BITMAP
00FFF0
0FFFFC
1FFFFE
3FF3FC
7C00F8
7800F8
F000F8
F000F0
F000F0
7800F0
7801F0
3001F0
0001F0
0007E0
001FE0
007FE0
00FDE0
01F3E0
07E3C0
0783C0
0F03C0
1F0780
1E0780
1E0F80
1E0F00
1E1F00
1E3E00
1FFC00
0FF800
07F000
ENDCHAR
STARTCHAR K
ENCODING 75
SWIDTH 937 0
DWIDTH 30 0
BBX 33 27 1 0
BITMAP
01FE003800
0FFFC07C00
1FFFC07C00
3FDFC07800
3C0F00F800
780F00F000
780F01F000
781F01E000
781F03E000
3C1F07C000
381F0F8000
001E1F0000
001FFE0000
00FFF80000
00FFE00000
00FFF80000
003EFC0000
003C7C0000
003C3E0000
003C3E0000
E07C1F0180
E07C1F0380
F0F80F8780
FFF80FFF00
7FF007FE00
3FE003FC00
1F8001F000
ENDCHAR
STARTCHAR L
ENCODING 76
SWIDTH 673 0
DWIDTH 22 0
BBX 27 27 -1 0
BITMAP
0003F800
001FFC00
003FFE00
007FFF00
00FC0F00
00F80F00
01F00F80
01F00F00
03E00F00
03E00F00
03E00000
03E00000
03E00000
03E00000
03C00000
03C00000
03C00000
03C00000
03C00000
03C00040
3FC000E0
7FF801E0
FFFF83C0
FFFFFFC0
FF7FFF80
FF0FFE00
7C01FC00
ENDCHAR
STARTCHAR M
ENCODING 77
SWIDTH 1232 0
DWIDTH 39 0
BBX 44 27 0 0
BITMAP
03C03C03E000
0FE0FF07F800
3FE1FF1FF800
7DF3FF1EF800
70F707B87C00
E0F607F07C00
E0FE07E07C00
C0EC07607800
01FC0FC07800
01F80FC0F800
01F80FC0F800
01F00F80F800
01F00F80F800
01F00F80F000
01F00F01F000
03E01F01F000
03E01F01F000
03E01F01E000
03E01F01E000
03C01E03E000
03C03E03E020
07C03E03E070
07C03E01E0E0
07C03E01FBE0
07C03E01FFC0
07803C00FF80
03801C003E00
ENDCHAR
STARTCHAR N
ENCODING 78
SWIDTH 884 0
DWIDTH 28 0
BBX 32 27 0 0
BITMAP
03C03F00
0FE07F80
3FF1FFC0
7DF3EFC0
70F383C0
E0F703E0
E0F603C0
C1FC03C0
01FC03C0
01F807C0
01F807C0
01F807C0
01F00780
01F00F80
01F00F80
03E00F80
03E00F80
03E00F00
03E01F00
03C01F00
03C01F01
07C01F03
07C01F07
07C00FFF
07C00FFE
078007F8
038003F0
ENDCHAR
STARTCHAR O
ENCODING 79
SWIDTH 816 0
DWIDTH 26 0
BBX 24 27 2 0
BITMAP
003F80
01FFE0
03FFF0
07FBF8
0FC0FC
1F007C
3E003E
3E003E
7C001E
7C001E
78001F
F8001F
F8001E
F8001E
F8001E
F8003E
F8003E
F8003E
F8007C
F8007C
7C00F8
7C01F0
3E03F0
3FDFE0
1FFFC0
07FF00
01FC00
ENDCHAR
STARTCHAR P
ENCODING 80
SWIDTH 805 0
DWIDTH 26 0
BBX 25 30 1 -3
BITMAP
000FF000
003FFC00
00FFFE00
01FDFF00
03E01F80
07800F80
0F1E0F80
1E1E0780
1E1E0780
3C3E0F80
3C3E0F80
383E0F80
783C1F00
783C3E00
787CFE00
73FFF800
73FFF000
71FF8000
F0780000
F0780000
F0780000
70F80000
70F80000
70F00000
78F00000
78F00000
3DF00000
3FF00000
1FE00000
0FC00000
ENDCHAR
STARTCHAR Q
ENCODING 81
SWIDTH 816 0
DWIDTH 26 0
BBX 26 37 2 -10
BITMAP
003F8000
01FFE000
03FFF000
07FBF800
0FC0FC00
1F007C00
3E003E00
3E003E00
7C001E00
7C001E00
78001F00
F8001F00
F8001E00
F8001E00
F8001E00
F8003E00
F8003E00
F8003E00
F8007C00
F8007C00
7C00F800
7E01F800
3F03F000
3FFFE000
1FFFC000
07FF0000
01FC0000
003E0000
003F0000
001F0000
000F8040
000F80C0
000FC1C0
0007F780
0003FF80
0001FF00
0000FC00
ENDCHAR
STARTCHAR R
ENCODING 82
SWIDTH 880 0
DWIDTH 28 0
BBX 30 27 2 0
BITMAP
001FE000
00FFF800
03FFFC00
07FBFE00
0F803E00
1F003F00
3C381F00
3C3C1F00
787C1F00
787C1F00
70783E00
F0783E00
F0787C00
E0FFF800
E3FFE000
E3FF8000
E3FFC000
E0F3E000
E0F1F000
E1F1F000
F1F0F80C
F1E0F80C
71E07C1C
7FE07FFC
3FE03FF8
1FC01FE0
07800FC0
ENDCHAR
STARTCHAR S
ENCODING 83
SWIDTH 693 0
DWIDTH 22 0
BBX 21 27 1 0
BITMAP
007F00
03FFE0
07FFF0
0FF7F8
1F00F8
1E0078
3E0078
3E0078
3E0078
1F0070
1F8000
0FE000
0FFC00
03FF00
00FFC0
003FE0
0007E0
7003F0
F001F0
F000F0
F001F0
F001F0
F803E0
7FBFE0
7FFFC0
1FFF00
07FC00
ENDCHAR
STARTCHAR T
ENCODING 84
SWIDTH 697 0
DWIDTH 22 0
BBX 28 27 1 0
BITMAP
007FFFE0
07FFFFF0
1FFFFFF0
7FFF83E0
7C0F0000
F00F0000
F00F0000
F01F0000
F01F0000
781F0000
701E0000
001E0000
003E0000
003E0000
003E0000
003E0000
003C0000
003C0000
007C0000
007C0000
007C0000
007C0000
007C0000
00780000
00780000
00780000
00780000
ENDCHAR
STARTCHAR U
ENCODING 85
SWIDTH 890 0
DWIDTH 28 0
BBX 33 27 0 0
BITMAP
03E001C000
0FF003E000
1FF003E000
3FF803E000
78F803E000
F0F803C000
E0F803C000
C0F007C000
00F007C000
01F007C000
01F007C000
01F0078000
01E00F8000
01E00F8000
03E00F8000
03E01F8000
03E01F8000
03C03F8000
07C03F0000
07C07F0000
07C06F0100
07C0EF0380
07C1CF8700
07FF8FDF00
03FF0FFE00
01FE07FC00
00F801F000
ENDCHAR
STARTCHAR V
ENCODING 86
SWIDTH 763 0
DWIDTH 24 0
BBX 25 28 4 0
BITMAP
0001E000
3807F000
780FF800
780FF800
781E7800
F81C7800
F81C7800
F81C7800
F81C7800
F81C7800
F81E7800
F80EF000
F00FF000
F007F000
F007FF80
F001FF80
F803FF80
F803C000
F807C000
F8078000
F80F8000
781F0000
7C1E0000
7C7C0000
3FF80000
3FF00000
1FE00000
0F800000
ENDCHAR
STARTCHAR W
ENCODING 87
SWIDTH 1217 0
DWIDTH 39 0
BBX 40 28 4 0
BITMAP
0000000780
3800700FE0
7800F01FE0
7800F03FF0
7801F038F0
F801F038F0
F801F038F0
F801F078F0
F801F078F0
F803F038F0
F803E039E0
F003E03DE0
F003E01FE0
F007E01FC0
F007E00FFE
F007E007FF
F00FE007FE
F00EE00780
F81EF00F00
F81EF01F00
F83CF01E00
783CF03C00
7878F07C00
7CF878F800
3FF07FF000
3FE07FE000
1FC03FC000
0F001F0000
ENDCHAR
STARTCHAR X
ENCODING 88
SWIDTH 712 0
DWIDTH 23 0
BBX 27 27 0 0
BITMAP
07C00700
1FE00F80
3FF01F00
7FF83E00
F0F87C00
E07CFC00
007CF800
003DF000
003FE000
003FC000
003F8000
001F0000
001F0000
003F0000
007F0000
00FF0000
01FF8000
03EF8000
07C78000
0FC78000
1F87C060
1F07C0E0
3E03E1E0
7C03F7C0
FC01FF80
F800FF00
F0007C00
ENDCHAR
STARTCHAR Y
ENCODING 89
SWIDTH 851 0
DWIDTH 27 0
BBX 31 37 0 -10
BITMAP
03E001C0
0FF003E0
3FF003E0
3FF803E0
78F803E0
F0F803C0
E0F803C0
C0F007C0
00F007C0
01F007C0
01F007C0
01F00FC0
01E00F80
01E00F80
03E01F80
03E01F80
03E03F80
03E07780
03E0FF80
03E1EF00
01FFCF1E
01FF8FFE
00FF1FFC
00007FF0
0003FF00
0007FE00
001F9E00
003E1E00
00781E00
00703E00
00F03C00
00F03C00
00F07800
00F0F800
00FFF000
007FE000
003F8000
ENDCHAR
STARTCHAR Z
ENCODING 90
SWIDTH 721 0
DWIDTH 23 0
BBX 27 27 0 0
BITMAP
00FFF000
07FFFF00
0FFFFF80
1FF7FF80
3E003F00
3C007C00
3C007C00
3C00F800
3C00F800
3E01F000
1C03E000
0007E000
0007C000
000F8000
001F8000
001F0000
003E0000
007E0000
00FC0000
01F80020
1FF00060
3FFC00E0
7FFF83E0
FFFFFFC0
7FBFFF80
7F07FF00
3E00FC00
ENDCHAR
STARTCHAR bracketleft
ENCODING 91
SWIDTH 405 0
DWIDTH 13 0
BBX 14 32 2 -2
BITMAP
07F8
0FFC
0FFC
0F00
0F00
1F00
1F00
1E00
1E00
1E00
1E00
1E00
3E00
3E00
3E00
3C00
3C00
3C00
3C00
7C00
7C00
7C00
7800
7800
7800
7800
7800
F800
F800
FFC0
FFC0
FFC0
ENDCHAR
STARTCHAR backslash
ENCODING 92
SWIDTH 509 0
DWIDTH 16 0
BBX 12 30 3 0
BITMAP
7000
7000
F800
7800
7800
7800
7C00
3C00
3C00
3E00
1E00
1E00
1E00
1F00
0F00
0F00
0F80
0780
0780
0780
07C0
03C0
03C0
03E0
01E0
01E0
01E0
01F0
00F0
00E0
ENDCHAR
STARTCHAR bracketright
ENCODING 93
SWIDTH 405 0
DWIDTH 13 0
BBX 14 32 -2 -2
BITMAP
07F8
0FFC
0FFC
003C
003C
007C
007C
007C
0078
0078
0078
0078
0078
00F8
00F8
00F8
00F0
00F0
00F0
00F0
01F0
01F0
01F0
01E0
01E0
01E0
01E0
01E0
03E0
7FE0
FFC0
7FC0
ENDCHAR
STARTCHAR asciicircum
ENCODING 94
SWIDTH 700 0
DWIDTH 22 0
BBX 15 17 3 2
BITMAP
00E0
01E0
01F0
03F0
03F0
07F8
0778
0F38
1E38
1E3C
3C1C
3C1C
781E
780E
F00E
E00E
E006
ENDCHAR
STARTCHAR underscore
ENCODING 95
SWIDTH 354 0
DWIDTH 11 0
BBX 12 3 -1 -4
BITMAP
FFE0
FFF0
7FE0
ENDCHAR
STARTCHAR grave
ENCODING 96
SWIDTH 600 0
DWIDTH 19 0
BBX 7 10 4 17
BITMAP
40
F0
F0
F8
78
38
3C
1C
0E
06
ENDCHAR
STARTCHAR a
ENCODING 97
SWIDTH 470 0
DWIDTH 15 0
BBX 18 15 1 0
BITMAP
03C000
0FF000
1FF800
3FF800
3C7800
7C7000
78F000
F0F000
F0F0C0
F0F1C0
F1F3C0
FFF780
7F7F00
7F7E00
3C3C00
ENDCHAR
STARTCHAR b
ENCODING 98
SWIDTH 473 0
DWIDTH 15 0
BBX 17 30 2 0
BITMAP
01C000
07E000
0FE000
0FF000
1E7000
1C7000
3C7000
3CE000
38E000
78E000
79C000
79C000
7B8000
F38000
F70000
F78000
FFE000
FFE000
F9F000
F9F000
F1FF80
F1FF80
F0FF80
F07F00
F07000
F0F000
7FE000
7FE000
3FC000
1F0000
ENDCHAR
STARTCHAR c
ENCODING 99
SWIDTH 368 0
DWIDTH 12 0
BBX 15 15 1 0
BITMAP
0780
1FC0
3FE0
7FE0
78E0
F9E0
F0C0
F000
F006
F00E
F83E
7EFC
7FF8
3FF0
0FC0
ENDCHAR
STARTCHAR d
ENCODING 100
SWIDTH 515 0
DWIDTH 16 0
BBX 20 30 1 0
BITMAP
000380
000FC0
000FC0
001FC0
001CC0
003CC0
0038C0
0038C0
0079C0
0079C0
0079C0
007980
007B80
007380
00F300
03F700
0FF600
1FFE00
3FFE00
3CFC00
78FC00
78F800
F0F000
F0F020
F0F070
F0F0E0
FBFFE0
7FBFC0
7F3F80
1E1E00
ENDCHAR
STARTCHAR e
ENCODING 101
SWIDTH 393 0
DWIDTH 13 0
BBX 16 15 1 0
BITMAP
0780
1FE0
3FE0
7FE0
78E0
F0E0
F1E0
F7C0
FF83
FE0F
F81E
7EFE
7FFC
3FF0
0FC0
ENDCHAR
STARTCHAR f
ENCODING 102
SWIDTH 371 0
DWIDTH 12 0
BBX 13 41 2 -11
BITMAP
00E0
01F0
03F8
07F8
0F38
0F38
1E38
1E38
1E70
3C70
3C70
3CE0
3CE0
79C0
79C0
7B80
7F00
FF00
FE00
FC00
F800
F000
F7F8
F7F8
FFF8
FE00
F600
F600
F700
F700
F700
F700
F700
F300
F300
F700
F700
7F00
7E00
7E00
3C00
ENDCHAR
STARTCHAR g
ENCODING 103
SWIDTH 479 0
DWIDTH 15 0
BBX 19 30 0 -15
BITMAP
01E000
07F800
0FFC00
1FFC00
1E3C00
3C3800
3C7800
787800
787860
7879E0
78FFE0
7FFFC0
3FFF00
3F7E00
1EF800
01F000
03F000
07E000
0FE000
1FE000
3DE000
79C000
71C000
E3C000
E38000
E78000
FF0000
FF0000
7E0000
3C0000
ENDCHAR
STARTCHAR h
ENCODING 104
SWIDTH 502 0
DWIDTH 16 0
BBX 18 30 2 0
BITMAP
01C000
07E000
0FE000
0FF000
1EF000
1C7000
3C7000
3CE000
38E000
78E000
79C000
79C000
738000
770000
F70000
FE7000
FDF800
F9F800
F3F800
F7F800
F67000
FEF000
FCF000
FCF0C0
F8F1C0
F8F3C0
F8F780
F0FF00
F0FE00
E07800
ENDCHAR
STARTCHAR i
ENCODING 105
SWIDTH 246 0
DWIDTH 8 0
BBX 11 22 1 0
BITMAP
1E00
3F00
3F00
3E00
1E00
0000
0000
3C00
3C00
3C00
7800
7800
7800
7800
7800
7060
F0E0
71E0
7BC0
7F80
7F00
3C00
ENDCHAR
STARTCHAR j
ENCODING 106
SWIDTH 254 0
DWIDTH 8 0
BBX 19 37 -7 -15
BITMAP
003C00
003E00
007E00
007E00
003C00
000000
000000
003C00
003C00
003C00
007800
007800
007800
007800
007800
0078C0
0079E0
0073C0
007F80
00FF00
00FC00
00F800
01F000
03F000
07E000
0FE000
1DE000
39E000
79C000
73C000
E3C000
E38000
E78000
FF0000
FF0000
FE0000
7C0000
ENDCHAR
STARTCHAR k
ENCODING 107
SWIDTH 525 0
DWIDTH 17 0
BBX 19 30 2 0
BITMAP
01C000
07E000
0FE000
0FF000
1E7000
1C7000
3C7000
3CE000
38E000
78E000
79C000
798000
738000
770000
F60000
FE7800
FDFC00
FBFC00
F3BC00
F73C00
FE3C00
FC3C00
FCF820
FDF060
FBC0E0
FBE1E0
F1FFC0
F1FF80
F0FF00
607C00
ENDCHAR
STARTCHAR l
ENCODING 108
SWIDTH 326 0
DWIDTH 10 0
BBX 13 30 2 0
BITMAP
01C0
07E0
0FE0
0FF0
1E70
1C70
3C70
3C70
38E0
78E0
78E0
78E0
71C0
F1C0
F3C0
F380
F380
F700
FF00
FE00
FC00
FC00
F800
F010
F038
F070
7FF0
7FE0
3FC0
1F00
ENDCHAR
STARTCHAR m
ENCODING 109
SWIDTH 744 0
DWIDTH 24 0
BBX 26 15 2 0
BITMAP
38707000
79F1F800
73F3F800
F7F7F800
F7F7F000
FEFEF000
FCFCF000
FCFCF000
F8F8F0C0
F8F8E1C0
F8F8E3C0
F0F1FF80
F0F0FF00
F0F0FE00
60E07800
ENDCHAR
STARTCHAR n
ENCODING 110
SWIDTH 496 0
DWIDTH 16 0
BBX 18 15 2 0
BITMAP
387000
79F800
73F800
F3F800
F7F000
FEF000
FEF000
FCF000
F8F0C0
F8E1C0
F8E3C0
F0F780
F0FF00
F0FE00
607800
ENDCHAR
STARTCHAR o
ENCODING 111
SWIDTH 451 0
DWIDTH 14 0
BBX 18 15 1 0
BITMAP
07C000
1FE000
3FF000
7FF000
79F800
F1FFC0
F0FFC0
F0FFC0
F07F00
F07000
F8F000
7DF000
7FE000
3FC000
0F8000
ENDCHAR
STARTCHAR p
ENCODING 112
SWIDTH 481 0
DWIDTH 15 0
BBX 24 30 -4 -15
BITMAP
01CF00
03DF80
03FFC0
03FFC0
03E3C0
03C3C0
03C3C0
03C3C0
03C3C2
07C787
07CF8E
0FDFBE
0FFFFC
1FFFF8
1FF3E0
3BC000
3BC000
33C000
738000
738000
738000
678000
E78000
E78000
E70000
E70000
FF0000
FE0000
7E0000
380000
ENDCHAR
STARTCHAR q
ENCODING 113
SWIDTH 500 0
DWIDTH 16 0
BBX 19 30 1 -13
BITMAP
000800
003C00
03FC00
0FFC00
1FFC00
3FF800
3C7800
787800
78F000
F0F000
F0F000
F0F7E0
F1EFE0
FBEFE0
7FEE00
7FE600
3DE600
01E600
03E600
03C600
03C600
03CE00
03CE00
03CE00
03CC00
03CC00
01FC00
01F800
01F800
00F000
ENDCHAR
STARTCHAR r
ENCODING 114
SWIDTH 455 0
DWIDTH 15 0
BBX 17 15 2 0
BITMAP
387000
79F800
73F800
F3F800
F7F000
FEF180
FEF380
ECFF80
FC7F00
F87E00
F80000
F00000
F00000
F00000
600000
ENDCHAR
STARTCHAR s
ENCODING 115
SWIDTH 427 0
DWIDTH 14 0
BBX 18 16 0 -1
BITMAP
01C000
03C000
078000
078000
0F8000
0FC000
1FE000
1FE000
39F0C0
78F1C0
70F3C0
E7FF80
CFFF00
0FFE00
0FFC00
07C000
ENDCHAR
STARTCHAR t
ENCODING 116
SWIDTH 393 0
DWIDTH 13 0
BBX 17 28 0 0
BITMAP
007800
00FC00
01FC00
03DC00
039C00
079C00
071C00
073800
0F3800
0F3800
0E7000
0EE000
1FC000
FFFC00
FFFC00
FFFC00
1E0000
1E0000
1E0000
1E0000
1E0000
1E0180
1E0380
1F0780
0FFF00
0FFE00
07FC00
01F000
ENDCHAR
STARTCHAR u
ENCODING 117
SWIDTH 462 0
DWIDTH 15 0
BBX 17 15 2 0
BITMAP
387000
78F000
78F000
F0F000
F1E000
F1E000
F1E000
F3E080
E3E180
E7C380
FFC780
FDFF00
FDFE00
F9FC00
70F000
ENDCHAR
STARTCHAR v
ENCODING 118
SWIDTH 449 0
DWIDTH 14 0
BBX 17 15 2 0
BITMAP
E0E000
E1F000
E1F000
E3F000
E3F000
F3EF80
F1FF80
F3FF00
F7FE00
F78000
FF0000
FF0000
FE0000
7C0000
780000
ENDCHAR
STARTCHAR w
ENCODING 119
SWIDTH 700 0
DWIDTH 22 0
BBX 25 15 2 0
BITMAP
E060E000
E0E1F000
E0E1F000
E1E3F000
E1F3F000
F3F3EF80
F3F1FF80
F7F3FF00
F7F3FE00
F7F78000
FEFF0000
FEFF0000
FC7E0000
7C7C0000
78380000
ENDCHAR
STARTCHAR x
ENCODING 120
SWIDTH 529 0
DWIDTH 17 0
BBX 20 15 1 0
BITMAP
1E0F00
3FBF00
3FFF00
3FF700
3BF700
31E700
01E000
01E000
73E030
E3E070
E3E0F0
FFFBE0
FFFFC0
FEFF80
783E00
ENDCHAR
STARTCHAR y
ENCODING 121
SWIDTH 479 0
DWIDTH 15 0
BBX 19 30 0 -15
BITMAP
0E1C00
1E3C00
1E3C00
3C3C00
3C7C00
3C7800
3C7800
38F840
38F8E0
39F9E0
3FFFC0
3FFF80
3F7F00
3E7C00
1CF800
01F000
03F000
07E000
0FE000
1DE000
39E000
79C000
71C000
E3C000
E38000
E78000
FF0000
FF0000
7E0000
3C0000
ENDCHAR
STARTCHAR z
ENCODING 122
SWIDTH 445 0
DWIDTH 14 0
BBX 16 15 2 0
BITMAP
FFF8
FFF8
FFF8
03F0
0FE0
1F80
3E00
7C00
F803
F007
F80F
FEFE
7FFC
3FF8
0FC0
ENDCHAR
STARTCHAR braceleft
ENCODING 123
SWIDTH 490 0
DWIDTH 16 0
BBX 17 32 2 -2
BITMAP
003F00
00FF80
01FF00
01FC00
03E000
03C000
03C000
03C000
03C000
03C000
07C000
07C000
07C000
0F8000
FF0000
FE0000
FE0000
3F0000
0F0000
0F8000
0F0000
0F0000
0F0000
0F0000
0F0000
1F0000
1F0000
1F0000
0F8000
0FF800
07F800
03F800
ENDCHAR
STARTCHAR bar
ENCODING 124
SWIDTH 326 0
DWIDTH 10 0
BBX 9 40 1 -10
BITMAP
0380
0780
0780
0780
0780
0780
0F80
0F00
0F00
0F00
0F00
0F00
0F00
0F00
1E00
1E00
1E00
1E00
1E00
1E00
3C00
3C00
3C00
3C00
3C00
3C00
3C00
7800
7800
7800
7800
7800
7800
7800
F000
F000
F000
F000
F000
E000
ENDCHAR
STARTCHAR braceright
ENCODING 125
SWIDTH 490 0
DWIDTH 16 0
BBX 17 32 -1 -2
BITMAP
0FC000
1FE000
1FF000
07F000
00F800
00F800
00F800
00F800
00F000
00F000
00F000
00F000
00F000
00F800
00FF00
007F80
00FF00
01FC00
01F000
01E000
01E000
03E000
03E000
03C000
03C000
03C000
03C000
07C000
0FC000
FF8000
FF0000
FE0000
ENDCHAR
STARTCHAR asciitilde
ENCODING 126
SWIDTH 700 0
DWIDTH 22 0
BBX 18 8 2 5
BITMAP
040000
1F00C0
3FC1C0
7FF3C0
7BFFC0
78FF80
F03F00
400E00
ENDCHAR
STARTCHAR uni00A0
ENCODING 160
SWIDTH 265 0
DWIDTH 8 0
BBX 1 1 0 0
BITMAP
00
ENDCHAR
STARTCHAR exclamdown
ENCODING 161
SWIDTH 340 0
DWIDTH 11 0
BBX 11 27 -1 -12
BITMAP
03C0
07E0
07E0
07E0
07C0
03C0
0000
0000
0700
0700
0F00
0F00
0F00
0E00
1E00
1E00
1E00
3E00
3E00
3C00
3C00
7C00
7C00
7800
F800
F800
F800
ENDCHAR
STARTCHAR cent
ENCODING 162
SWIDTH 466 0
DWIDTH 15 0
BBX 13 23 1 -4
BITMAP
0180
0180
0180
0180
03C0
0FF0
1FF0
3FF8
7B38
7B78
7370
F320
F308
F318
7B38
7F78
3FF0
1FE0
0F80
0600
0600
0600
0600
ENDCHAR
STARTCHAR sterling
ENCODING 163
SWIDTH 525 0
DWIDTH 17 0
BBX 16 19 1 0
BITMAP
01F8
07FC
0FFE
0FFF
1F0F
1E0F
3C06
3C00
3C00
FFF0
FFF0
FFE0
3C00
3C00
3C00
FC00
FFFE
FFFE
FFFE
ENDCHAR
STARTCHAR currency
ENCODING 164
SWIDTH 700 0
DWIDTH 22 0
BBX 15 15 4 2
BITMAP
C006
E7CE
FFFC
7FFC
3838
701C
701C
701C
701C
701C
3838
7FF8
FFFC
E7CE
C006
ENDCHAR
STARTCHAR yen
ENCODING 165
SWIDTH 497 0
DWIDTH 16 0
BBX 16 19 1 0
BITMAP
7007
F00F
F81F
781E
7C3C
3C78
1EF8
1EF0
0FE0
0FC0
7FFC
7FFC
0780
0780
FFF8
FFF8
0F80
0F00
0700
ENDCHAR
STARTCHAR brokenbar
ENCODING 166
SWIDTH 326 0
DWIDTH 10 0
BBX 9 40 1 -10
BITMAP
0380
0780
0780
0780
0780
0780
0F00
0F00
0F00
0F00
0F00
0F00
0F00
1E00
1E00
1E00
1E00
0000
0000
0000
0000
0000
0000
3C00
3C00
3C00
3C00
7C00
7800
7800
7800
7800
7800
7800
F800
F000
F000
F000
F000
E000
ENDCHAR
STARTCHAR section
ENCODING 167
SWIDTH 607 0
DWIDTH 19 0
BBX 16 27 2 0
BITMAP
01F8
07FE
0FFE
1FBF
1E0F
1E0F
1E0F
1E06
1F80
0FE0
1FF8
3DFC
387E
381E
3C0E
3F1E
1FDC
0FFC
03F8
70FC
F03C
F03C
F03C
FEFC
7FF8
3FF0
0FC0
ENDCHAR
STARTCHAR dieresis
ENCODING 168
SWIDTH 600 0
DWIDTH 19 0
BBX 12 5 4 17
BITMAP
70E0
79F0
F9F0
F9E0
70E0
ENDCHAR
STARTCHAR copyright
ENCODING 169
SWIDTH 647 0
DWIDTH 21 0
BBX 18 19 3 11
BITMAP
03F000
0FFC00
1E1E00
380700
71F380
E3F980
E719C0
C618C0
CE00C0
CC00C0
CC00C0
CE00C0
E619C0
E7F180
71E380
380700
1E1E00
0FFC00
03F000
ENDCHAR
STARTCHAR ordfeminine
ENCODING 170
SWIDTH 393 0
DWIDTH 13 0
BBX 12 13 2 14
BITMAP
0780
0FE0
1FF0
3CF0
78E0
78E0
71E0
71E0
F1E0
73E0
7FE0
7FE0
3DC0
ENDCHAR
STARTCHAR guillemotleft
ENCODING 171
SWIDTH 615 0
DWIDTH 20 0
BBX 17 12 1 1
BITMAP
030380
0F8780
1F9F80
7E3F00
FC7C00
F0F800
F8F800
7C7C00
3E3F00
1F1F80
0F8780
070300
ENDCHAR
STARTCHAR logicalnot
ENCODING 172
SWIDTH 700 0
DWIDTH 22 0
BBX 17 9 3 1
BITMAP
FFFF80
FFFF80
FFFF80
000780
000780
000780
000780
000F00
000F00
ENDCHAR
STARTCHAR uni00AD
ENCODING 173
SWIDTH 403 0
DWIDTH 13 0
BBX 10 4 2 8
BITMAP
7FC0
FFC0
FFC0
FF00
ENDCHAR
STARTCHAR registered
ENCODING 174
SWIDTH 647 0
DWIDTH 21 0
BBX 18 19 3 11
BITMAP
03F000
0FFC00
1E1E00
380700
73E380
E7F180
E339C0
C318C0
C330C0
C3F0C0
C3C0C0
C6E0C0
E671C0
E63180
763380
380700
1E1E00
0FFC00
03F000
ENDCHAR
STARTCHAR macron
ENCODING 175
SWIDTH 600 0
DWIDTH 19 0
BBX 10 3 5 17
BITMAP
FFC0
FFC0
FF80
ENDCHAR
STARTCHAR degree
ENCODING 176
SWIDTH 385 0
DWIDTH 12 0
BBX 10 10 3 17
BITMAP
1E00
3F80
7F80
F3C0
E1C0
E1C0
E3C0
7F80
7F00
1E00
ENDCHAR
STARTCHAR plusminus
ENCODING 177
SWIDTH 700 0
DWIDTH 22 0
BBX 16 19 3 0
BITMAP
0040
00E0
01E0
01E0
01E0
01E0
3FFF
7FFF
3FFF
01C0
03C0
03C0
03C0
0380
0000
0000
FFFE
FFFE
FFFC
ENDCHAR
STARTCHAR uni00B2
ENCODING 178
SWIDTH 450 0
DWIDTH 14 0
BBX 13 16 2 11
BITMAP
0FC0
3FE0
3FF0
78F0
70F0
70F0
70F0
01E0
01E0
03C0
0F80
1F00
7C00
FFF0
FFF8
FFF0
ENDCHAR
STARTCHAR uni00B3
ENCODING 179
SWIDTH 450 0
DWIDTH 14 0
BBX 12 16 2 11
BITMAP
0FC0
1FF0
3FF0
78F0
7070
30F0
01E0
07C0
0FC0
07E0
40F0
E0F0
F0F0
FFF0
7FE0
1F80
ENDCHAR
STARTCHAR acute
ENCODING 180
SWIDTH 600 0
DWIDTH 19 0
BBX 7 10 9 17
BITMAP
08
1C
3E
3C
7C
78
70
E0
C0
C0
ENDCHAR
STARTCHAR uni00B5
ENCODING 181
SWIDTH 462 0
DWIDTH 15 0
BBX 18 23 1 -8
BITMAP
1C3800
3C7800
3C7800
787800
78F000
78F000
78F000
79F040
71F0C0
F3E1C0
FFE3C0
FEFF80
FEFF00
FCFE00
F87800
F00000
F00000
F00000
F00000
F00000
F00000
F00000
F00000
ENDCHAR
STARTCHAR paragraph
ENCODING 182
SWIDTH 739 0
DWIDTH 24 0
BBX 19 27 3 0
BITMAP
03FF80
1FFFC0
3FFFE0
7FFFE0
7FF1E0
FFF1E0
FFF1E0
FFF3E0
FFE3E0
7FE3E0
3FE3C0
1FE3C0
03E3C0
03E3C0
03C7C0
03C7C0
03C780
03C780
07C780
07CF80
07CF80
078F80
078F80
078F00
078F00
078F00
070F00
ENDCHAR
STARTCHAR periodcentered
ENCODING 183
SWIDTH 257 0
DWIDTH 8 0
BBX 6 6 1 5
BITMAP
38
7C
7C
FC
7C
38
ENDCHAR
STARTCHAR cedilla
ENCODING 184
SWIDTH 600 0
DWIDTH 19 0
BBX 9 9 2 -8
BITMAP
3E00
3F00
3F80
0380
0380
1F80
FF00
FF00
FC00
ENDCHAR
STARTCHAR uni00B9
ENCODING 185
SWIDTH 450 0
DWIDTH 14 0
BBX 9 16 3 11
BITMAP
0780
3F80
7F80
FF80
4780
0780
0700
0F00
0F00
0F00
0F00
0F00
0F00
0F00
0E00
0E00
ENDCHAR
STARTCHAR ordmasculine
ENCODING 186
SWIDTH 408 0
DWIDTH 13 0
BBX 11 13 3 14
BITMAP
1F00
3F80
7FC0
F3C0
F1E0
E1E0
E1E0
E1E0
E1C0
F3C0
FF80
7F00
1E00
ENDCHAR
STARTCHAR guillemotright
ENCODING 187
SWIDTH 615 0
DWIDTH 20 0
BBX 18 12 1 1
BITMAP
703000
787C00
7C7E00
3F3F00
1F8F80
0F87C0
0787C0
0F8FC0
3F1F80
7E7E00
F87C00
707000
ENDCHAR
STARTCHAR onequarter
ENCODING 188
SWIDTH 955 0
DWIDTH 31 0
BBX 27 28 3 -1
BITMAP
07800000
3F800000
7F800000
FF800000
47806000
0780E000
0701E000
0F01E000
0F03C000
0F07C000
0F078000
0F0F0000
0F0F1C00
0F1E3C00
0E3E3800
0E3C7B80
00787380
0078F380
00F0E780
01E1E780
01E1C780
03C1FFE0
03C3FFE0
0181FFC0
00000700
00000700
00000F00
00000600
ENDCHAR
STARTCHAR onehalf
ENCODING 189
SWIDTH 1024 0
DWIDTH 33 0
BBX 28 28 3 -1
BITMAP
07800000
3F800000
7F800000
FF800000
47806000
0780E000
0701E000
0F01E000
0F03C000
0F07C000
0F078000
0F0F0000
0F0F0FC0
0F1E3FE0
0E3E3FF0
0E3C78F0
007870F0
007870F0
00F060F0
01E001E0
01E001E0
03C003C0
03C00F80
01801F00
00007C00
0000FFF0
0000FFF0
0000FFF0
ENDCHAR
STARTCHAR threequarters
ENCODING 190
SWIDTH 1035 0
DWIDTH 33 0
BBX 30 28 2 -1
BITMAP
0FC00000
1FF00000
3FF00000
78F00000
70700C00
30F01E00
01E01E00
07C03C00
0FC03C00
07E07800
40F0F800
E0F0F000
F0F1E1C0
FFF1E3C0
7FE3C780
1F878738
00078F78
000F0E78
001F1E78
001E1C70
003C3C70
003C3FFC
00383FFC
00301FFC
000000F0
000000F0
000000E0
000000E0
ENDCHAR
STARTCHAR questiondown
ENCODING 191
SWIDTH 476 0
DWIDTH 15 0
BBX 14 27 -1 -12
BITMAP
0038
007C
00FC
00FC
00FC
0078
0000
0000
0060
00E0
00E0
01E0
03E0
07C0
0F80
1F00
3E00
7C00
7C00
F838
F038
F038
F078
F878
FFF8
7FF0
3FC0
ENDCHAR
STARTCHAR Agrave
ENCODING 192
SWIDTH 786 0
DWIDTH 25 0
BBX 27 37 2 0
BITMAP
00200000
00700000
00FC0000
007E0000
003F0000
000F8000
0007C000
0001C000
00000000
00000000
0007FE00
003FFF80
00FFFF80
01FF3F00
07F00000
0FC03000
1F807800
1F007800
3E007800
3C00F800
7C00F800
7C00F000
7800F000
F801F000
F801F000
F801F000
F801F000
F803E000
F803E000
F807E000
F807E060
F80FE060
7C1DF0E0
7F7DFFC0
3FF9FFC0
1FF0FF00
07C07E00
ENDCHAR
STARTCHAR Aacute
ENCODING 193
SWIDTH 786 0
DWIDTH 25 0
BBX 27 37 2 0
BITMAP
00000100
00000380
00000FC0
00001F80
00003F00
00007C00
0000F800
0000E000
00000000
00000000
0007FE00
003FFF80
00FFFF80
01FF3F00
07F00000
0FC03000
1F807800
1F007800
3E007800
3C00F800
7C00F800
7C00F000
7800F000
F801F000
F801F000
F801F000
F801F000
F803E000
F803E000
F807E000
F807E060
F80FE060
7C1DF0E0
7F7DFFC0
3FF9FFC0
1FF0FF00
07C07E00
ENDCHAR
STARTCHAR Acircumflex
ENCODING 194
SWIDTH 786 0
DWIDTH 25 0
BBX 27 38 2 0
BITMAP
0000F000
0001F800
0001F800
0003F800
0007BC00
00079C00
000F1E00
000F1E00
000E0C00
00000000
00000000
0007FE00
003FFF80
00FFFF80
01FF3F00
07F00000
0FC03000
1F807800
1F007800
3E007800
3C00F800
7C00F800
7C00F000
7800F000
F801F000
F801F000
F801F000
F801F000
F803E000
F803E000
F807E000
F807E060
F80FE060
7C1DF0E0
7F7DFFC0
3FF9FFC0
1FF0FF00
07C07E00
ENDCHAR
STARTCHAR Atilde
ENCODING 195
SWIDTH 786 0
DWIDTH 25 0
BBX 27 36 2 0
BITMAP
00020000
00078300
000FE780
001FF700
001CFF00
001C7E00
00081C00
00000000
00000000
0007FE00
003FFF80
00FFFF80
01FF3F00
07F00000
0FC03000
1F807800
1F007800
3E007800
3C00F800
7C00F800
7C00F000
7800F000
F801F000
F801F000
F801F000
F801F000
F803E000
F803E000
F807E000
F807E060
F80FE060
7C1DF0E0
7F7DFFC0
3FF9FFC0
1FF0FF00
07C07E00
ENDCHAR
STARTCHAR Adieresis
ENCODING 196
SWIDTH 786 0
DWIDTH 25 0
BBX 27 34 2 0
BITMAP
00071E00
000F9E00
000FBE00
000F1E00
00071C00
00000000
00000000
0007FE00
003FFF80
00FFFF80
01FF3F00
07F00000
0FC03000
1F807800
1F007800
3E007800
3C00F800
7C00F800
7C00F000
7800F000
F801F000
F801F000
F801F000
F801F000
F803E000
F803E000
F807E000
F807E060
F80FE060
7C1DF0E0
7F7DFFC0
3FF9FFC0
1FF0FF00
07C07E00
ENDCHAR
STARTCHAR Aring
ENCODING 197
SWIDTH 786 0
DWIDTH 25 0
BBX 27 38 2 0
BITMAP
0000F000
0001F800
0003FC00
00039C00
00071C00
00071C00
0003FC00
0003F800
0001F000
00000000
00000000
0007FE00
003FFF80
00FFFF80
01FF3F00
07F00000
0FC03000
1F807800
1F007800
3E007800
3C00F800
7C00F800
7C00F000
7800F000
F801F000
F801F000
F801F000
F801F000
F803E000
F803E000
F807E000
F807E060
F80FE060
7C1DF0E0
7F7DFFC0
3FF9FFC0
1FF0FF00
07C07E00
ENDCHAR
STARTCHAR AE
ENCODING 198
SWIDTH 1015 0
DWIDTH 32 0
BBX 35 27 2 0
BITMAP
000F8FFF00
007F9FFF80
00FF9FFF00
03FF3F8000
07F03C0000
0FC03C0000
1F807C0000
1F007C0000
3E00780000
3E00780000
7C00F80000
7C00F80000
F800FFFC00
F801FFFC00
F801FFFC00
F801F00000
F801F00000
F803F00000
F803F00000
F807F00000
F807F00000
F80FF800C0
7C1EFC03E0
7F7CFFBFC0
3FFC7FFF80
1FF81FFF00
07E007F800
ENDCHAR
STARTCHAR Ccedilla
ENCODING 199
SWIDTH 686 0
DWIDTH 22 0
BBX 24 35 2 -8
BITMAP
003F80
01FFC0
03FFE0
07FFF0
0FC0F0
1F00F0
3E00F0
3E00F0
7C00F0
7C00F0
780060
F80000
F80000
F80000
F80000
F80000
F80000
F80000
F80000
7C0000
7C0000
7E0003
3F001F
1FFBFF
0FFFFE
07FFF8
01FFC0
03F800
003C00
001C00
003C00
00FC00
07F800
07F000
07E000
ENDCHAR
STARTCHAR Egrave
ENCODING 200
SWIDTH 686 0
DWIDTH 22 0
BBX 25 37 1 0
BITMAP
01000000
03800000
07E00000
03F00000
01F80000
00FC0000
003E0000
000E0000
00000000
00000000
003FC000
01FFF000
03FFF800
07FBF800
0FC07C00
1F803C00
1F003C00
1F007C00
1F007800
1F003800
0FC00000
07FC0000
01FC0000
0FFC0000
1FF00000
3E000000
7C000000
F8000000
F8000000
F8000000
F8000000
F8000180
7E000F80
7FF7FF80
3FFFFF00
0FFFFC00
01FFC000
ENDCHAR
STARTCHAR Eacute
ENCODING 201
SWIDTH 686 0
DWIDTH 22 0
BBX 25 37 1 0
BITMAP
00000800
00001C00
00007E00
0000FC00
0001F800
0003E000
00078000
00070000
00000000
00000000
003FC000
01FFF000
03FFF800
07FBF800
0FC07C00
1F803C00
1F003C00
1F007C00
1F007800
1F003800
0FC00000
07FC0000
01FC0000
0FFC0000
1FF00000
3E000000
7C000000
F8000000
F8000000
F8000000
F8000000
F8000180
7E000F80
7FF7FF80
3FFFFF00
0FFFFC00
01FFC000
ENDCHAR
STARTCHAR Ecircumflex
ENCODING 202
SWIDTH 686 0
DWIDTH 22 0
BBX 25 38 1 0
BITMAP
00078000
000FC000
000FC000
001FC000
003DE000
003CE000
0078F000
0078F000
00706000
00000000
00000000
003FC000
01FFF000
03FFF800
07FBF800
0FC07C00
1F803C00
1F003C00
1F007C00
1F007800
1F003800
0FC00000
07FC0000
01FC0000
0FFC0000
1FF00000
3E000000
7C000000
F8000000
F8000000
F8000000
F8000000
F8000180
7E000F80
7FF7FF80
3FFFFF00
0FFFFC00
01FFC000
ENDCHAR
STARTCHAR Edieresis
ENCODING 203
SWIDTH 686 0
DWIDTH 22 0
BBX 25 34 1 0
BITMAP
0038F000
0078F000
007DF000
0078F000
0078E000
00000000
00000000
003FC000
01FFF000
03FFF800
07FBF800
0FC07C00
1F803C00
1F003C00
1F007C00
1F007800
1F003800
0FC00000
07FC0000
01FC0000
0FFC0000
1FF00000
3E000000
7C000000
F8000000
F8000000
F8000000
F8000000
F8000180
7E000F80
7FF7FF80
3FFFFF00
0FFFFC00
01FFC000
ENDCHAR
STARTCHAR Igrave
ENCODING 204
SWIDTH 495 0
DWIDTH 16 0
BBX 19 37 -1 0
BITMAP
040000
0E0000
1F0000
0FC000
07E000
03F000
00F800
003800
000000
000000
07FFC0
0FFFE0
0FFFC0
007C00
007800
007800
00F800
00F800
00F800
00F800
00F000
00F000
00F000
01F000
01F000
01F000
01E000
01E000
01E000
03E000
03E000
03E000
03E000
03C000
7FFE00
FFFE00
7FFC00
ENDCHAR
STARTCHAR Iacute
ENCODING 205
SWIDTH 495 0
DWIDTH 16 0
BBX 20 37 -1 0
BITMAP
000020
0000F0
0001F0
0003F0
0007E0
000F80
001E00
001800
000000
000000
07FFC0
0FFFE0
0FFFC0
007C00
007800
007800
00F800
00F800
00F800
00F800
00F000
00F000
00F000
01F000
01F000
01F000
01E000
01E000
01E000
03E000
03E000
03E000
03E000
03C000
7FFE00
FFFE00
7FFC00
ENDCHAR
STARTCHAR Icircumflex
ENCODING 206
SWIDTH 495 0
DWIDTH 16 0
BBX 19 38 -1 0
BITMAP
001E00
003F00
007F00
007F00
00F780
00F780
01E380
01C3C0
01C180
000000
000000
07FFC0
0FFFE0
0FFFC0
007C00
007800
007800
00F800
00F800
00F800
00F800
00F000
00F000
00F000
01F000
01F000
01F000
01E000
01E000
01E000
03E000
03E000
03E000
03E000
03C000
7FFE00
FFFE00
7FFC00
ENDCHAR
STARTCHAR Idieresis
ENCODING 207
SWIDTH 495 0
DWIDTH 16 0
BBX 19 34 -1 0
BITMAP
00E380
01E3C0
01F7C0
01E7C0
01E380
000000
000000
07FFC0
0FFFE0
0FFFC0
007C00
007800
007800
00F800
00F800
00F800
00F800
00F000
00F000
00F000
01F000
01F000
01F000
01E000
01E000
01E000
03E000
03E000
03E000
03E000
03C000
7FFE00
FFFE00
7FFC00
ENDCHAR
STARTCHAR Eth
ENCODING 208
SWIDTH 821 0
DWIDTH 26 0
BBX 26 27 0 0
BITMAP
007FC000
00FFF000
00FFFC00
01F3FE00
01E07F00
01E01F00
03E00F80
03E00F80
03C00780
07C007C0
07C007C0
7FFE07C0
7FFF07C0
FFFF07C0
0F800780
0F800F80
0F000F80
0F000F80
0F001F00
1F001F00
1F003E00
1F007C00
1F01F800
1FBFF000
1FFFE000
1FFF8000
0FFC0000
ENDCHAR
STARTCHAR Ntilde
ENCODING 209
SWIDTH 884 0
DWIDTH 28 0
BBX 32 36 0 0
BITMAP
00010000
0007C180
000FE380
000FFF80
001E7F00
001C3F00
00081E00
00000000
00000000
03C03F00
0FE07F80
3FF1FFC0
7DF3EFC0
70F383C0
E0F703E0
E0F603C0
C1FC03C0
01FC03C0
01F807C0
01F807C0
01F807C0
01F00780
01F00F80
01F00F80
03E00F80
03E00F80
03E00F00
03E01F00
03C01F00
03C01F01
07C01F03
07C01F07
07C00FFF
07C00FFE
078007F8
038003F0
ENDCHAR
STARTCHAR Ograve
ENCODING 210
SWIDTH 816 0
DWIDTH 26 0
BBX 24 37 2 0
BITMAP
020000
078000
07C000
07E000
03F000
00FC00
003C00
000C00
000000
000000
003F80
01FFE0
03FFF0
07FBF8
0FC0FC
1F007C
3E003E
3E003E
7C001E
7C001E
78001F
F8001F
F8001E
F8001E
F8001E
F8003E
F8003E
F8003E
F8007C
F8007C
7C00F8
7C01F0
3E03F0
3FDFE0
1FFFC0
07FF00
01FC00
ENDCHAR
STARTCHAR Oacute
ENCODING 211
SWIDTH 816 0
DWIDTH 26 0
BBX 24 37 2 0
BITMAP
000010
00003C
00007C
0000FC
0003F8
0007E0
000F80
000600
000000
000000
003F80
01FFE0
03FFF0
07FBF8
0FC0FC
1F007C
3E003E
3E003E
7C001E
7C001E
78001F
F8001F
F8001E
F8001E
F8001E
F8003E
F8003E
F8003E
F8007C
F8007C
7C00F8
7C01F0
3E03F0
3FDFE0
1FFFC0
07FF00
01FC00
ENDCHAR
STARTCHAR Ocircumflex
ENCODING 212
SWIDTH 816 0
DWIDTH 26 0
BBX 24 38 2 0
BITMAP
000700
000F80
001FC0
003DC0
003DC0
0079E0
00F9E0
00F0E0
0060E0
000000
000000
003F80
01FFE0
03FFF0
07FBF8
0FC0FC
1F007C
3E003E
3E003E
7C001E
7C001E
78001F
F8001F
F8001E
F8001E
F8001E
F8003E
F8003E
F8003E
F8007C
F8007C
7C00F8
7C01F0
3E03F0
3FDFE0
1FFFC0
07FF00
01FC00
ENDCHAR
STARTCHAR Otilde
ENCODING 213
SWIDTH 816 0
DWIDTH 26 0
BBX 24 36 2 0
BITMAP
001000
007C38
00FE38
00FF78
01EFF0
01C3F0
0081E0
000000
000000
003F80
01FFE0
03FFF0
07FBF8
0FC0FC
1F007C
3E003E
3E003E
7C001E
7C001E
78001F
F8001F
F8001E
F8001E
F8001E
F8003E
F8003E
F8003E
F8007C
F8007C
7C00F8
7C01F0
3E03F0
3FDFE0
1FFFC0
07FF00
01FC00
ENDCHAR
STARTCHAR Odieresis
ENCODING 214
SWIDTH 816 0
DWIDTH 26 0
BBX 24 34 2 0
BITMAP
0070E0
00F9F0
00F9F0
00F9F0
0070E0
000000
000000
003F80
01FFE0
03FFF0
07FBF8
0FC0FC
1F007C
3E003E
3E003E
7C001E
7C001E
78001F
F8001F
F8001E
F8001E
F8001E
F8003E
F8003E
F8003E
F8007C
F8007C
7C00F8
7C01F0
3E03F0
3FDFE0
1FFFC0
07FF00
01FC00
ENDCHAR
STARTCHAR multiply
ENCODING 215
SWIDTH 700 0
DWIDTH 22 0
BBX 15 15 4 2
BITMAP
2004
700E
781E
7C3E
3E7C
1FF8
0FE0
07C0
0FE0
1FE0
3FF0
7CF8
F87C
F03C
C018
ENDCHAR
STARTCHAR Oslash
ENCODING 216
SWIDTH 816 0
DWIDTH 26 0
BBX 24 33 2 -3
BITMAP
000380
0003C0
000380
003F80
01FFE0
03FFF0
07F7F8
0F8FFC
1F0F7C
3E0E3E
3E0E3E
7C1E1E
7C1E1E
781C1F
F81C1F
F83C1E
F8381E
F8381E
F8383E
F8783E
F8703C
F8707C
F8F07C
7CF0F8
7CE1F0
3EE3F0
3FFFE0
1FFFC0
0FFF00
01FC00
03C000
03C000
038000
ENDCHAR
STARTCHAR Ugrave
ENCODING 217
SWIDTH 890 0
DWIDTH 28 0
BBX 33 37 0 0
BITMAP
0020000000
0078000000
007C000000
007E000000
003F000000
000F800000
0003C00000
0000C00000
0000000000
0000000000
03E001C000
0FF003E000
1FF003E000
3FF803E000
78F803E000
F0F803C000
E0F803C000
C0F007C000
00F007C000
01F007C000
01F007C000
01F0078000
01E00F8000
01E00F8000
03E00F8000
03E01F8000
03E01F8000
03C03F8000
07C03F0000
07C07F0000
07C06F0100
07C0EF0380
07C1CF8700
07FF8FDF00
03FF0FFE00
01FE07FC00
00F801F000
ENDCHAR
STARTCHAR Uacute
ENCODING 218
SWIDTH 890 0
DWIDTH 28 0
BBX 33 37 0 0
BITMAP
0000010000
0000038000
00000FC000
00001F8000
00003F0000
00007E0000
0000F80000
0000E00000
0000000000
0000000000
03E001C000
0FF003E000
1FF003E000
3FF803E000
78F803E000
F0F803C000
E0F803C000
C0F007C000
00F007C000
01F007C000
01F007C000
01F0078000
01E00F8000
01E00F8000
03E00F8000
03E01F8000
03E01F8000
03C03F8000
07C03F0000
07C07F0000
07C06F0100
07C0EF0380
07C1CF8700
07FF8FDF00
03FF0FFE00
01FE07FC00
00F801F000
ENDCHAR
STARTCHAR Ucircumflex
ENCODING 219
SWIDTH 890 0
DWIDTH 28 0
BBX 33 38 0 0
BITMAP
0000F00000
0001F80000
0001F80000
0003FC0000
0007BC0000
00079C0000
000F1E0000
000F1E0000
000E0C0000
0000000000
0000000000
03E001C000
0FF003E000
1FF003E000
3FF803E000
78F803E000
F0F803C000
E0F803C000
C0F007C000
00F007C000
01F007C000
01F007C000
01F0078000
01E00F8000
01E00F8000
03E00F8000
03E01F8000
03E01F8000
03C03F8000
07C03F0000
07C07F0000
07C06F0100
07C0EF0380
07C1CF8700
07FF8FDF00
03FF0FFE00
01FE07FC00
00F801F000
ENDCHAR
STARTCHAR Udieresis
ENCODING 220
SWIDTH 890 0
DWIDTH 28 0
BBX 33 34 0 0
BITMAP
00070E0000
000F9E0000
000F9E0000
000F9E0000
00071C0000
0000000000
0000000000
03E001C000
0FF003E000
1FF003E000
3FF803E000
78F803E000
F0F803C000
E0F803C000
C0F007C000
00F007C000
01F007C000
01F007C000
01F0078000
01E00F8000
01E00F8000
03E00F8000
03E01F8000
03E01F8000
03C03F8000
07C03F0000
07C07F0000
07C06F0100
07C0EF0380
07C1CF8700
07FF8FDF00
03FF0FFE00
01FE07FC00
00F801F000
ENDCHAR
STARTCHAR Yacute
ENCODING 221
SWIDTH 851 0
DWIDTH 27 0
BBX 31 47 0 -10
BITMAP
00000080
000003C0
000007C0
00000FC0
00001F80
00007E00
00007800
00006000
00000000
00000000
03E001C0
0FF003E0
3FF003E0
3FF803E0
78F803E0
F0F803C0
E0F803C0
C0F007C0
00F007C0
01F007C0
01F007C0
01F00FC0
01E00F80
01E00F80
03E01F80
03E01F80
03E03F80
03E07780
03E0FF80
03E1EF00
01FFCF1E
01FF8FFE
00FF1FFC
00007FF0
0003FF00
0007FE00
001F9E00
003E1E00
00781E00
00703E00
00F03C00
00F03C00
00F07800
00F0F800
00FFF000
007FE000
003F8000
ENDCHAR
STARTCHAR Thorn
ENCODING 222
SWIDTH 776 0
DWIDTH 25 0
BBX 24 33 1 -3
BITMAP
000E00
001E00
001E00
001E00
003E00
003E00
003E00
007FF0
01FFF8
03FFFC
07FC7E
0F7C3F
1E7C1F
1C7C1F
3C7C1F
38781F
78781F
78783E
70F83E
70F8FC
F3FFF8
F3FFF0
F3FFC0
F1FC00
F1F000
F1F000
71E000
71E000
71E000
7BE000
3FE000
1FC000
0F8000
ENDCHAR
STARTCHAR germandbls
ENCODING 223
SWIDTH 596 0
DWIDTH 19 0
BBX 22 31 1 -6
BITMAP
01FE00
03FF00
07FF80
0F8780
1F0780
1E0780
3C0780
3C0F80
3C1F00
383E00
787C00
78F000
79F000
79F000
78F800
78FC00
787FF0
79FFFC
7BEFFC
7BC784
7B8780
FBC780
FBFF80
F9FF00
F8FC00
F80000
F80000
F80000
F80000
F80000
F00000
ENDCHAR
STARTCHAR agrave
ENCODING 224
SWIDTH 470 0
DWIDTH 15 0
BBX 18 27 1 0
BITMAP
040000
1E0000
1E0000
1F0000
0F0000
078000
038000
03C000
01C000
00C000
000000
000000
03C000
0FF000
1FF800
3FF800
3C7800
7C7000
78F000
F0F000
F0F0C0
F0F1C0
F1F3C0
FFF780
7F7F00
7F7E00
3C3C00
ENDCHAR
STARTCHAR aacute
ENCODING 225
SWIDTH 470 0
DWIDTH 15 0
BBX 18 27 1 0
BITMAP
000800
001E00
001E00
003E00
003C00
007800
007000
00F000
00E000
00C000
000000
000000
03C000
0FF000
1FF800
3FF800
3C7800
7C7000
78F000
F0F000
F0F0C0
F0F1C0
F1F3C0
FFF780
7F7F00
7F7E00
3C3C00
ENDCHAR
STARTCHAR acircumflex
ENCODING 226
SWIDTH 470 0
DWIDTH 15 0
BBX 18 28 1 0
BITMAP
002000
00F000
01F800
01F800
03F800
03B800
07BC00
0F3C00
0F1C00
1E1C00
0C1C00
000000
000000
03C000
0FF000
1FF800
3FF800
3C7800
7C7000
78F000
F0F000
F0F0C0
F0F1C0
F1F3C0
FFF780
7F7F00
7F7E00
3C3C00
ENDCHAR
STARTCHAR atilde
ENCODING 227
SWIDTH 470 0
DWIDTH 15 0
BBX 18 24 1 0
BITMAP
020000
0F8300
0FC700
1FFF00
1CFE00
387E00
101C00
000000
000000
03C000
0FF000
1FF800
3FF800
3C7800
7C7000
78F000
F0F000
F0F0C0
F0F1C0
F1F3C0
FFF780
7F7F00
7F7E00
3C3C00
ENDCHAR
STARTCHAR adieresis
ENCODING 228
SWIDTH 470 0
DWIDTH 15 0
BBX 18 22 1 0
BITMAP
0F1C00
0F3E00
0F3E00
0F3E00
0E1C00
000000
000000
03C000
0FF000
1FF800
3FF800
3C7800
7C7000
78F000
F0F000
F0F0C0
F0F1C0
F1F3C0
FFF780
7F7F00
7F7E00
3C3C00
ENDCHAR
STARTCHAR aring
ENCODING 229
SWIDTH 470 0
DWIDTH 15 0
BBX 18 26 1 0
BITMAP
00F000
03F800
03F800
071C00
071C00
071C00
07F800
03F800
01E000
000000
000000
03C000
0FF000
1FF800
3FF800
3C7800
7C7000
78F000
F0F000
F0F0C0
F0F1C0
F1F3C0
FFF780
7F7F00
7F7E00
3C3C00
ENDCHAR
STARTCHAR ae
ENCODING 230
SWIDTH 653 0
DWIDTH 21 0
BBX 24 15 1 0
BITMAP
03E7C0
0FFFE0
1FFFE0
3FFFF0
7C78F0
7878E0
78F1E0
F0F3C0
F0FF83
F0FE07
F1F81F
FBFFFE
7FBFFC
7F1FF8
1E0FC0
ENDCHAR
STARTCHAR ccedilla
ENCODING 231
SWIDTH 368 0
DWIDTH 12 0
BBX 15 23 1 -8
BITMAP
0780
1FC0
3FE0
7FE0
78E0
F9E0
F1C0
F000
F006
F00E
F81E
787C
7FF8
3FF0
1FC0
1F80
03C0
01C0
01C0
03C0
7F80
7F80
7F00
ENDCHAR
STARTCHAR egrave
ENCODING 232
SWIDTH 393 0
DWIDTH 13 0
BBX 16 27 1 0
BITMAP
1000
3800
3C00
3C00
1E00
1E00
0F00
0700
0380
0100
0000
0000
0780
1FE0
3FE0
7FE0
78E0
F0E0
F1E0
F7C0
FF83
FE0F
F81E
7EFE
7FFC
3FF0
0FC0
ENDCHAR
STARTCHAR eacute
ENCODING 233
SWIDTH 393 0
DWIDTH 13 0
BBX 16 27 1 0
BITMAP
0010
0038
0078
0078
00F8
00F0
01E0
01C0
0380
0180
0000
0000
0780
1FE0
3FE0
7FE0
78E0
F0E0
F1E0
F7C0
FF83
FE0F
F81E
7EFE
7FFC
3FF0
0FC0
ENDCHAR
STARTCHAR ecircumflex
ENCODING 234
SWIDTH 393 0
DWIDTH 13 0
BBX 16 28 1 0
BITMAP
0040
01E0
03E0
07F0
0770
0F70
0E70
1E78
1C78
3C78
3830
0000
0000
0780
1FE0
3FE0
7FE0
78E0
F0E0
F1E0
F7C0
FF83
FE0F
F81E
7EFE
7FFC
3FF0
0FC0
ENDCHAR
STARTCHAR edieresis
ENCODING 235
SWIDTH 393 0
DWIDTH 13 0
BBX 16 22 1 0
BITMAP
1C38
3E78
3E7C
3E78
1C78
0000
0000
0780
1FE0
3FE0
7FE0
78E0
F0E0
F1E0
F7C0
FF83
FE0F
F81E
7EFE
7FFC
3FF0
0FC0
ENDCHAR
STARTCHAR igrave
ENCODING 236
SWIDTH 246 0
DWIDTH 8 0
BBX 12 27 0 0
BITMAP
4000
E000
F000
F000
F800
7800
3C00
1C00
0E00
0C00
0000
0000
1E00
1E00
1E00
3C00
3C00
3C00
3C00
3C00
3830
7870
38F0
3DE0
3FC0
3F80
1E00
ENDCHAR
STARTCHAR iacute
ENCODING 237
SWIDTH 246 0
DWIDTH 8 0
BBX 11 27 1 0
BITMAP
0080
01C0
03C0
03C0
0780
0780
0F00
0E00
1C00
1800
0000
0000
3C00
3C00
3C00
7800
7800
7800
7800
7800
7060
F0E0
71E0
7BC0
7F80
7F00
3C00
ENDCHAR
STARTCHAR icircumflex
ENCODING 238
SWIDTH 246 0
DWIDTH 8 0
BBX 12 28 0 0
BITMAP
0200
0780
0F80
1F80
1DC0
3DC0
39C0
79C0
F1E0
F1E0
E0C0
0000
0000
1E00
1E00
1E00
3C00
3C00
3C00
3C00
3C00
3830
7870
38F0
3DE0
3FC0
3F80
1E00
ENDCHAR
STARTCHAR idieresis
ENCODING 239
SWIDTH 246 0
DWIDTH 8 0
BBX 12 22 0 0
BITMAP
70E0
F9E0
F9E0
F9E0
71C0
0000
0000
1E00
1E00
1E00
3C00
3C00
3C00
3C00
3C00
3830
7870
38F0
3DE0
3FC0
3F80
1E00
ENDCHAR
STARTCHAR eth
ENCODING 240
SWIDTH 451 0
DWIDTH 14 0
BBX 16 30 1 0
BITMAP
0E00
0F00
0F86
079F
03FE
03FC
01F8
07F0
1FF0
1FF0
0C78
0078
0078
0078
0078
07F8
1FFC
3FFC
7FF8
7878
F078
F078
F078
F078
F0F0
F8F0
7FF0
7FE0
3FC0
1F80
ENDCHAR
STARTCHAR ntilde
ENCODING 241
SWIDTH 496 0
DWIDTH 16 0
BBX 18 24 2 0
BITMAP
040000
0F0600
1F8E00
3FFE00
39FE00
38FC00
203800
000000
000000
387000
79F800
73F800
F3F800
F7F000
FEF000
FEF000
FCF000
F8F0C0
F8E1C0
F8E3C0
F0F780
F0FF00
F0FE00
607800
ENDCHAR
STARTCHAR ograve
ENCODING 242
SWIDTH 451 0
DWIDTH 14 0
BBX 18 27 1 0
BITMAP
100000
380000
3C0000
3C0000
1E0000
1E0000
0F0000
070000
038000
030000
000000
000000
07C000
1FE000
3FF000
7FF000
79F800
F1FFC0
F0FFC0
F0FFC0
F07F00
F07000
F8F000
7DF000
7FE000
3FC000
0F8000
ENDCHAR
STARTCHAR oacute
ENCODING 243
SWIDTH 451 0
DWIDTH 14 0
BBX 18 27 1 0
BITMAP
001000
003800
007800
007800
00F000
00F000
01E000
01C000
038000
010000
000000
000000
07C000
1FE000
3FF000
7FF000
79F800
F1FFC0
F0FFC0
F0FFC0
F07F00
F07000
F8F000
7DF000
7FE000
3FC000
0F8000
ENDCHAR
STARTCHAR ocircumflex
ENCODING 244
SWIDTH 451 0
DWIDTH 14 0
BBX 18 28 1 0
BITMAP
008000
01E000
03E000
07E000
077000
0F7000
0E7000
1E7000
3C7800
3C7800
383000
000000
000000
07C000
1FE000
3FF000
7FF000
79F800
F1FFC0
F0FFC0
F0FFC0
F07F00
F07000
F8F000
7DF000
7FE000
3FC000
0F8000
ENDCHAR
STARTCHAR otilde
ENCODING 245
SWIDTH 451 0
DWIDTH 14 0
BBX 18 24 1 0
BITMAP
040000
1E0E00
3F9E00
3FDC00
7BFC00
70F800
207000
000000
000000
07C000
1FE000
3FF000
7FF000
79F800
F1FFC0
F0FFC0
F0FFC0
F07F00
F07000
F8F000
7DF000
7FE000
3FC000
0F8000
ENDCHAR
STARTCHAR odieresis
ENCODING 246
SWIDTH 451 0
DWIDTH 14 0
BBX 18 22 1 0
BITMAP
1C3800
3E7800
3E7800
3E7800
1C7800
000000
000000
07C000
1FE000
3FF000
7FF000
79F800
F1FFC0
F0FFC0
F0FFC0
F07F00
F07000
F8F000
7DF000
7FE000
3FC000
0F8000
ENDCHAR
STARTCHAR divide
ENCODING 247
SWIDTH 700 0
DWIDTH 22 0
BBX 17 18 3 0
BITMAP
01E000
01E000
01F000
01E000
01E000
000000
000000
000000
FFFF80
FFFF80
FFFF80
000000
000000
038000
07C000
07C000
07C000
038000
ENDCHAR
STARTCHAR oslash
ENCODING 248
SWIDTH 459 0
DWIDTH 15 0
BBX 18 23 1 -4
BITMAP
00C000
01C000
018000
018000
0FC000
1FE000
3FF000
7FF800
7B7800
F379C0
F37FC0
F37FC0
F77F80
F67800
F67000
7EF000
7FE000
3FC000
1F8000
0C0000
0C0000
0C0000
0C0000
ENDCHAR
STARTCHAR ugrave
ENCODING 249
SWIDTH 462 0
DWIDTH 15 0
BBX 17 27 2 0
BITMAP
100000
380000
3C0000
3C0000
1E0000
1E0000
0F0000
070000
038000
030000
000000
000000
387000
78F000
78F000
F0F000
F1E000
F1E000
F1E000
F3E080
E3E180
E7C380
FFC780
FDFF00
FDFE00
F9FC00
70F000
ENDCHAR
STARTCHAR uacute
ENCODING 250
SWIDTH 462 0
DWIDTH 15 0
BBX 17 27 2 0
BITMAP
001000
003800
007800
007800
00F000
00F000
01E000
01C000
038000
010000
000000
000000
387000
78F000
78F000
F0F000
F1E000
F1E000
F1E000
F3E080
E3E180
E7C380
FFC780
FDFF00
FDFE00
F9FC00
70F000
ENDCHAR
STARTCHAR ucircumflex
ENCODING 251
SWIDTH 462 0
DWIDTH 15 0
BBX 17 28 2 0
BITMAP
008000
01E000
03E000
07E000
077000
0F7000
0E7000
1E7000
3C7800
3C7800
383000
000000
000000
387000
78F000
78F000
F0F000
F1E000
F1E000
F1E000
F3E080
E3E180
E7C380
FFC780
FDFF00
FDFE00
F9FC00
70F000
ENDCHAR
STARTCHAR udieresis
ENCODING 252
SWIDTH 462 0
DWIDTH 15 0
BBX 17 22 2 0
BITMAP
1C3800
3E7800
3E7800
3E7800
1C7800
000000
000000
387000
78F000
78F000
F0F000
F1E000
F1E000
F1E000
F3E080
E3E180
E7C380
FFC780
FDFF00
FDFE00
F9FC00
70F000
ENDCHAR
STARTCHAR yacute
ENCODING 253
SWIDTH 479 0
DWIDTH 15 0
BBX 19 42 0 -15
BITMAP
000400
000E00
001E00
001E00
003C00
003C00
007800
007000
00E000
004000
000000
000000
0E1C00
1E3C00
1E3C00
3C3C00
3C7C00
3C7800
3C7800
38F840
38F8E0
39F9E0
3FFFC0
3FFF80
3F7F00
3E7C00
1CF800
01F000
03F000
07E000
0FE000
1DE000
39E000
79C000
71C000
E3C000
E38000
E78000
FF0000
FF0000
7E0000
3C0000
ENDCHAR
STARTCHAR thorn
ENCODING 254
SWIDTH 508 0
DWIDTH 16 0
BBX 19 36 1 -10
BITMAP
040000
0E0000
1E0000
1E0000
1E0000
3E0000
3C0000
3C0000
3C0000
3C0000
3C0000
787000
79F800
7BFC00
7BFC00
7F3C00
7E3C00
7E3C00
7C3C00
FC3860
F878E0
F8F9E0
F3FFC0
FFFFC0
FFFF00
FE3E00
F00000
F00000
F00000
F00000
F00000
F00000
F00000
F00000
F00000
F00000
ENDCHAR
STARTCHAR ydieresis
ENCODING 255
SWIDTH 479 0
DWIDTH 15 0
BBX 19 37 0 -15
BITMAP
070E00
0F9E00
0F9E00
0F9E00
071E00
000000
000000
0E1C00
1E3C00
1E3C00
3C3C00
3C7C00
3C7800
3C7800
38F840
38F8E0
39F9E0
3FFFC0
3FFF80
3F7F00
3E7C00
1CF800
01F000
03F000
07E000
0FE000
1DE000
39E000
79C000
71C000
E3C000
E38000
E78000
FF0000
FF0000
7E0000
3C0000
ENDCHAR
STARTCHAR Amacron
ENCODING 256
SWIDTH 786 0
DWIDTH 25 0
BBX 27 32 2 0
BITMAP
000FFC00
000FFC00
000FFC00
00000000
00000000
0007FE00
003FFF80
00FFFF80
01FF3F00
07F00000
0FC03000
1F807800
1F007800
3E007800
3C00F800
7C00F800
7C00F000
7800F000
F801F000
F801F000
F801F000
F801F000
F803E000
F803E000
F807E000
F807E060
F80FE060
7C1DF0E0
7F7DFFC0
3FF9FFC0
1FF0FF00
07C07E00
ENDCHAR
STARTCHAR amacron
ENCODING 257
SWIDTH 470 0
DWIDTH 15 0
BBX 18 20 1 0
BITMAP
0FFC00
0FFC00
0FFC00
000000
000000
03C000
0FF000
1FF800
3FF800
3C7800
7C7000
78F000
F0F000
F0F0C0
F0F1C0
F1F3C0
FFF780
7F7F00
7F7E00
3C3C00
ENDCHAR
STARTCHAR Abreve
ENCODING 258
SWIDTH 786 0
DWIDTH 25 0
BBX 27 35 2 0
BITMAP
001C0700
001E0F00
001FBF00
000FFE00
0007FC00
0003F800
00000000
00000000
0007FE00
003FFF80
00FFFF80
01FF3F00
07F00000
0FC03000
1F807800
1F007800
3E007800
3C00F800
7C00F800
7C00F000
7800F000
F801F000
F801F000
F801F000
F801F000
F803E000
F803E000
F807E000
F807E060
F80FE060
7C1DF0E0
7F7DFFC0
3FF9FFC0
1FF0FF00
07C07E00
ENDCHAR
STARTCHAR abreve
ENCODING 259
SWIDTH 470 0
DWIDTH 15 0
BBX 18 24 1 0
BITMAP
1C0700
1C0F00
1E0F00
1FBE00
0FFE00
07FC00
03F000
000000
000000
03C000
0FF000
1FF800
3FF800
3C7800
7C7000
78F000
F0F000
F0F0C0
F0F1C0
F1F3C0
FFF780
7F7F00
7F7E00
3C3C00
ENDCHAR
STARTCHAR Aogonek
ENCODING 260
SWIDTH 786 0
DWIDTH 25 0
BBX 27 35 2 -8
BITMAP
0007FE00
003FFF80
00FFFF80
01FF3F00
07F00000
0FC03000
1F807800
1F007800
3E007800
3C00F800
7C00F800
7C00F000
7800F000
F801F000
F801F000
F801F000
F801F000
F803E000
F803E000
F807E000
F807E060
F80FE060
7C1DF0E0
7F7DFFC0
3FF9FF80
1FF0FF00
07C07E00
00007800
0000F000
0000E000
0000F000
0000FB00
0000FF80
00007F00
00003E00
ENDCHAR
STARTCHAR aogonek
ENCODING 261
SWIDTH 470 0
DWIDTH 15 0
BBX 18 23 1 -8
BITMAP
03C000
0FF000
1FF800
3FF800
3C7800
7C7000
78F000
F0F000
F0F0C0
F0F1C0
F1F3C0
FFFF80
7F7F00
7F7E00
3C7C00
00F000
01E000
01C000
01C000
01E000
01FE00
00FE00
007C00
ENDCHAR
STARTCHAR Cacute
ENCODING 262
SWIDTH 686 0
DWIDTH 22 0
BBX 24 37 2 0
BITMAP
000010
00003C
00007C
0000FC
0003F8
0007E0
000F80
000600
000000
000000
003F80
01FFC0
03FFE0
07FFF0
0FC0F0
1F00F0
3E00F0
3E00F0
7C00F0
7C00F0
780060
F80000
F80000
F80000
F80000
F80000
F80000
F80000
F80000
7C0000
7C0000
7E0003
3F001F
1FFBFF
0FFFFE
03FFF8
00FFC0
ENDCHAR
STARTCHAR cacute
ENCODING 263
SWIDTH 368 0
DWIDTH 12 0
BBX 15 27 1 0
BITMAP
0010
0038
0078
0078
00F0
00F0
01E0
01C0
0380
0300
0000
0000
0780
1FC0
3FE0
7FE0
78E0
F9E0
F0C0
F000
F006
F00E
F83E
7EFC
7FF8
3FF0
0FC0
ENDCHAR
STARTCHAR Ccircumflex
ENCODING 264
SWIDTH 686 0
DWIDTH 22 0
BBX 24 38 2 0
BITMAP
000700
000F80
001FC0
003FC0
003DC0
0079E0
00F9E0
00F0E0
00E0E0
000000
000000
003F80
01FFC0
03FFE0
07FFF0
0FC0F0
1F00F0
3E00F0
3E00F0
7C00F0
7C00F0
780060
F80000
F80000
F80000
F80000
F80000
F80000
F80000
F80000
7C0000
7C0000
7E0003
3F001F
1FFBFF
0FFFFE
03FFF8
00FFC0
ENDCHAR
STARTCHAR ccircumflex
ENCODING 265
SWIDTH 368 0
DWIDTH 12 0
BBX 15 28 1 0
BITMAP
0080
01E0
03E0
07E0
0770
0F70
0E70
1E70
3C78
3C78
3830
0000
0000
0780
1FC0
3FE0
7FE0
78E0
F9E0
F0C0
F000
F006
F00E
F83E
7EFC
7FF8
3FF0
0FC0
ENDCHAR
STARTCHAR Cdotaccent
ENCODING 266
SWIDTH 686 0
DWIDTH 22 0
BBX 24 34 2 0
BITMAP
000F00
001F80
001F80
001F80
000F00
000000
000000
003F80
01FFC0
03FFE0
07FFF0
0FC0F0
1F00F0
3E00F0
3E00F0
7C00F0
7C00F0
780060
F80000
F80000
F80000
F80000
F80000
F80000
F80000
F80000
7C0000
7C0000
7E0003
3F001F
1FFBFF
0FFFFE
03FFF8
00FFC0
ENDCHAR
STARTCHAR cdotaccent
ENCODING 267
SWIDTH 368 0
DWIDTH 12 0
BBX 15 22 1 0
BITMAP
03C0
07C0
07E0
07C0
0380
0000
0000
0780
1FC0
3FE0
7FE0
78E0
F9E0
F0C0
F000
F006
F00E
F83E
7EFC
7FF8
3FF0
0FC0
ENDCHAR
STARTCHAR Ccaron
ENCODING 268
SWIDTH 686 0
DWIDTH 22 0
BBX 24 37 2 0
BITMAP
007070
0078F0
0078E0
0039E0
003FC0
001F80
001F00
000E00
000000
000000
003F80
01FFC0
03FFE0
07FFF0
0FC0F0
1F00F0
3E00F0
3E00F0
7C00F0
7C00F0
780060
F80000
F80000
F80000
F80000
F80000
F80000
F80000
F80000
7C0000
7C0000
7E0003
3F001F
1FFBFF
0FFFFE
03FFF8
00FFC0
ENDCHAR
STARTCHAR ccaron
ENCODING 269
SWIDTH 368 0
DWIDTH 12 0
BBX 15 28 1 0
BITMAP
0408
1E1C
1E3C
0E38
0E78
0E70
0EF0
07E0
07E0
07C0
0380
0000
0000
0780
1FC0
3FE0
7FE0
78E0
F9E0
F0C0
F000
F006
F00E
F83E
7EFC
7FF8
3FF0
0FC0
ENDCHAR
STARTCHAR Dcaron
ENCODING 270
SWIDTH 836 0
DWIDTH 27 0
BBX 25 37 1 0
BITMAP
00706000
0070F000
0079E000
0039C000
003BC000
001F8000
001F0000
000E0000
00000000
00000000
00FF8000
0FFFF000
3FFFF800
7FE7FC00
FC007E00
F0003F00
40001F00
03C00F80
07C00F80
07C00F80
07800F80
07800F80
0F800F80
0F800F80
0F000F80
0F000F80
0F000F00
1F001F00
1F001F00
1F003E00
1E007E00
1E00FC00
1E01F800
1F3FF000
3FFFE000
1FFF8000
0FFC0000
ENDCHAR
STARTCHAR dcaron
ENCODING 271
SWIDTH 470 0
DWIDTH 15 0
BBX 20 29 1 0
BITMAP
000070
0000F0
000EF0
001EF0
001EE0
001EE0
001EE0
001E00
003C00
003C00
003C00
003C00
003C00
003C00
03B800
0FF800
1FF800
3FF800
3C7800
7C7000
78F000
F0F000
F0F0C0
F0F1C0
F1F3C0
FFF780
7F7F00
7F7E00
3C3C00
ENDCHAR
STARTCHAR Dcroat
ENCODING 272
SWIDTH 821 0
DWIDTH 26 0
BBX 26 27 0 0
BITMAP
007FC000
00FFF000
00FFFC00
01F3FE00
01E07F00
01E01F00
03E00F80
03E00F80
03C00780
07C007C0
07C007C0
7FFE07C0
7FFF07C0
FFFF07C0
0F800780
0F800F80
0F000F80
0F000F80
0F001F00
1F001F00
1F003E00
1F007C00
1F01F800
1FBFF000
1FFFE000
1FFF8000
0FFC0000
ENDCHAR
STARTCHAR dcroat
ENCODING 273
SWIDTH 470 0
DWIDTH 15 0
BBX 18 27 1 0
BITMAP
000E00
001E00
001E00
001E00
001E00
0FFF00
0FFF80
0FFF00
003C00
003C00
003C00
003C00
03B800
0FF800
1FF800
3FF800
3C7800
7C7000
78F000
F0F000
F0F0C0
F0F1C0
F1F3C0
FFF780
7F7F00
7F7E00
3C3C00
ENDCHAR
STARTCHAR Emacron
ENCODING 274
SWIDTH 686 0
DWIDTH 22 0
BBX 25 32 1 0
BITMAP
007FE000
007FE000
007FE000
00000000
00000000
003FC000
01FFF000
03FFF800
07FBF800
0FC07C00
1F803C00
1F003C00
1F007C00
1F007800
1F003800
0FC00000
07FC0000
01FC0000
0FFC0000
1FF00000
3E000000
7C000000
F8000000
F8000000
F8000000
F8000000
F8000180
7E000F80
7FF7FF80
3FFFFF00
0FFFFC00
01FFC000
ENDCHAR
STARTCHAR emacron
ENCODING 275
SWIDTH 393 0
DWIDTH 13 0
BBX 16 20 1 0
BITMAP
1FF8
3FF8
1FF0
0000
0000
0780
1FE0
3FE0
7FE0
78E0
F0E0
F1E0
F7C0
FF83
FE0F
F81E
7EFE
7FFC
3FF0
0FC0
ENDCHAR
STARTCHAR Ebreve
ENCODING 276
SWIDTH 686 0
DWIDTH 22 0
BBX 25 35 1 0
BITMAP
00E03800
00F07800
00FDF800
007FF000
003FE000
001F8000
00000000
00000000
003FC000
01FFF000
03FFF800
07FBF800
0FC07C00
1F803C00
1F003C00
1F007C00
1F007800
1F003800
0FC00000
07FC0000
01FC0000
0FFC0000
1FF00000
3E000000
7C000000
F8000000
F8000000
F8000000
F8000000
F8000180
7E000F80
7FF7FF80
3FFFFF00
0FFFFC00
01FFC000
ENDCHAR
STARTCHAR ebreve
ENCODING 277
SWIDTH 393 0
DWIDTH 13 0
BBX 16 24 1 0
BITMAP
380C
781E
7C3C
3FFC
3FF8
1FF0
07E0
0000
0000
0780
1FE0
3FE0
7FE0
78E0
F0E0
F1E0
F7C0
FF83
FE0F
F81E
7EFE
7FFC
3FF0
0FC0
ENDCHAR
STARTCHAR Edotaccent
ENCODING 278
SWIDTH 686 0
DWIDTH 22 0
BBX 25 34 1 0
BITMAP
00078000
000F8000
000F8000
000F8000
000F0000
00000000
00000000
003FC000
01FFF000
03FFF800
07FBF800
0FC07C00
1F803C00
1F003C00
1F007C00
1F007800
1F003800
0FC00000
07FC0000
01FC0000
0FFC0000
1FF00000
3E000000
7C000000
F8000000
F8000000
F8000000
F8000000
F8000180
7E000F80
7FF7FF80
3FFFFF00
0FFFFC00
01FFC000
ENDCHAR
STARTCHAR edotaccent
ENCODING 279
SWIDTH 393 0
DWIDTH 13 0
BBX 16 22 1 0
BITMAP
03C0
07E0
07E0
07C0
03C0
0000
0000
0780
1FE0
3FE0
7FE0
78E0
F0E0
F1E0
F7C0
FF83
FE0F
F81E
7EFE
7FFC
3FF0
0FC0
ENDCHAR
STARTCHAR Eogonek
ENCODING 280
SWIDTH 686 0
DWIDTH 22 0
BBX 25 35 1 -8
BITMAP
003FC000
01FFF000
03FFF800
07FBF800
0FC07C00
1F803C00
1F003C00
1F007C00
1F007800
1F003800
0FC00000
07FC0000
01FC0000
0FFC0000
1FF00000
3E000000
7C000000
F8000000
F8000000
F8000000
F8000000
F8000180
7E000F80
7FF7FF80
3FFFFF00
0FFFFC00
03FFE000
001C0000
00380000
00380000
00380000
003C0000
003FC000
003FC000
001FC000
ENDCHAR
STARTCHAR eogonek
ENCODING 281
SWIDTH 393 0
DWIDTH 13 0
BBX 16 23 1 -8
BITMAP
0780
1FE0
3FE0
7FE0
78E0
F0E0
F1E0
F3C0
FF82
FF07
F80F
783E
7FFC
3FF8
1FE0
0780
0F00
0E00
0E00
0F00
0FF0
07F0
03E0
ENDCHAR
STARTCHAR Ecaron
ENCODING 282
SWIDTH 686 0
DWIDTH 22 0
BBX 25 37 1 0
BITMAP
00383000
00387000
0038F000
003CE000
001DC000
001FC000
000F8000
00070000
00000000
00000000
003FC000
01FFF000
03FFF800
07FBF800
0FC07C00
1F803C00
1F003C00
1F007C00
1F007800
1F003800
0FC00000
07FC0000
01FC0000
0FFC0000
1FF00000
3E000000
7C000000
F8000000
F8000000
F8000000
F8000000
F8000180
7E000F80
7FF7FF80
3FFFFF00
0FFFFC00
01FFC000
ENDCHAR
STARTCHAR ecaron
ENCODING 283
SWIDTH 393 0
DWIDTH 13 0
BBX 16 28 1 0
BITMAP
0408
0E1C
0E3C
0E3C
0E78
0F70
07F0
07E0
07E0
07C0
0380
0000
0000
0780
1FE0
3FE0
7FE0
78E0
F0E0
F1E0
F7C0
FF83
FE0F
F81E
7EFE
7FFC
3FF0
0FC0
ENDCHAR
STARTCHAR Gcircumflex
ENCODING 284
SWIDTH 811 0
DWIDTH 26 0
BBX 27 53 2 -15
BITMAP
00078000
000FC000
001FC000
001FC000
003DE000
003DE000
0078E000
0070F000
00706000
00000000
00000000
003F8000
00FFE000
03FFF000
07FBF800
0FC0F800
1F007800
3E007800
3E007800
7C007800
7C007800
78002000
F8000000
F8000000
F8000000
F8000000
F807FC00
F807FC00
F807FC00
F8003C00
7C003C00
7C003C20
7E0038E0
3F0039E0
1FF7FFC0
0FFFFF80
03FFFE00
00FF7C00
0000F800
0001F000
0003F000
0007F000
000EF000
001CE000
0038E000
0039E000
0071C000
0073C000
0073C000
00778000
007F0000
007F0000
003C0000
ENDCHAR
STARTCHAR gcircumflex
ENCODING 285
SWIDTH 479 0
DWIDTH 15 0
BBX 19 43 0 -15
BITMAP
001000
007800
00FC00
00FC00
01FC00
01DC00
03DE00
079E00
078E00
0F0E00
060E00
000000
000000
01E000
07F800
0FFC00
1FFC00
1E3C00
3C3800
3C7800
787800
787860
7879E0
78FFE0
7FFFC0
3FFF00
3F7E00
1EF800
01F000
03F000
07E000
0FE000
1FE000
3DE000
79C000
71C000
E3C000
E38000
E78000
FF0000
FF0000
7E0000
3C0000
ENDCHAR
STARTCHAR Gbreve
ENCODING 286
SWIDTH 811 0
DWIDTH 26 0
BBX 27 50 2 -15
BITMAP
00E03800
00F07800
00FDF800
007FF000
007FE000
001F8000
00000000
00000000
003F8000
00FFE000
03FFF000
07FBF800
0FC0F800
1F007800
3E007800
3E007800
7C007800
7C007800
78002000
F8000000
F8000000
F8000000
F8000000
F807FC00
F807FC00
F807FC00
F8003C00
7C003C00
7C003C20
7E0038E0
3F0039E0
1FF7FFC0
0FFFFF80
03FFFE00
00FF7C00
0000F800
0001F000
0003F000
0007F000
000EF000
001CE000
0038E000
0039E000
0071C000
0073C000
0073C000
00778000
007F0000
007F0000
003C0000
ENDCHAR
STARTCHAR gbreve
ENCODING 287
SWIDTH 479 0
DWIDTH 15 0
BBX 19 39 0 -15
BITMAP
0E0380
0E0780
0F0780
0FDF00
07FF00
03FE00
01F800
000000
000000
01E000
07F800
0FFC00
1FFC00
1E3C00
3C3800
3C7800
787800
787860
7879E0
78FFE0
7FFFC0
3FFF00
3F7E00
1EF800
01F000
03F000
07E000
0FE000
1FE000
3DE000
79C000
71C000
E3C000
E38000
E78000
FF0000
FF0000
7E0000
3C0000
ENDCHAR
STARTCHAR Gdotaccent
ENCODING 288
SWIDTH 811 0
DWIDTH 26 0
BBX 27 49 2 -15
BITMAP
00070000
000F8000
001F8000
000F8000
000F0000
00000000
00000000
003F8000
00FFE000
03FFF000
07FBF800
0FC0F800
1F007800
3E007800
3E007800
7C007800
7C007800
78002000
F8000000
F8000000
F8000000
F8000000
F807FC00
F807FC00
F807FC00
F8003C00
7C003C00
7C003C20
7E0038E0
3F0039E0
1FF7FFC0
0FFFFF80
03FFFE00
00FF7C00
0000F800
0001F000
0003F000
0007F000
000EF000
001CE000
0038E000
0039E000
0071C000
0073C000
0073C000
00778000
007F0000
007F0000
003C0000
ENDCHAR
STARTCHAR gdotaccent
ENCODING 289
SWIDTH 479 0
DWIDTH 15 0
BBX 19 37 0 -15
BITMAP
007000
00F800
01F800
01F800
00F000
000000
000000
01E000
07F800
0FFC00
1FFC00
1E3C00
3C3800
3C7800
787800
787860
7879E0
78FFE0
7FFFC0
3FFF00
3F7E00
1EF800
01F000
03F000
07E000
0FE000
1FE000
3DE000
79C000
71C000
E3C000
E38000
E78000
FF0000
FF0000
7E0000
3C0000
ENDCHAR
STARTCHAR uni0122
ENCODING 290
SWIDTH 811 0
DWIDTH 26 0
BBX 27 42 2 -15
BITMAP
003F8000
00FFE000
03FFF000
07FBF800
0FC0F800
1F007800
3E007800
3E007800
7C007800
7C007800
78002000
F8000000
F8000000
F8000000
F8000000
F807FC00
F807FC00
F807FC00
F8003C00
7C003C00
7C003C20
7E0038E0
3F0039E0
1FF7FFC0
0FFFFF80
03FFFE00
00FF7C00
0000F800
0701F000
0783F000
0707F000
070EF000
071CE000
0F38E000
0639E000
0071C000
0073C000
0073C000
00778000
007F0000
007F0000
003C0000
ENDCHAR
STARTCHAR uni0123
ENCODING 291
SWIDTH 479 0
DWIDTH 15 0
BBX 19 40 0 -15
BITMAP
003000
007800
007800
007000
007000
007000
007000
006000
000000
000000
01E000
07F800
0FFC00
1FFC00
1E3C00
3C3800
3C7800
787800
787860
7879E0
78FFE0
7FFFC0
3FFF00
3F7E00
1EF800
01F000
03F000
07E000
0FE000
1FE000
3DE000
79C000
71C000
E3C000
E38000
E78000
FF0000
FF0000
7E0000
3C0000
ENDCHAR
STARTCHAR Hcircumflex
ENCODING 292
SWIDTH 873 0
DWIDTH 28 0
BBX 33 38 -1 0
BITMAP
0000780000
0000FC0000
0000FC0000
0001FC0000
0003DE0000
0003CE0000
00078F0000
00078F0000
0007060000
0000000000
0000003C00
03E000FE00
0FF000FE00
1FF801E600
3EF803C600
787803C600
707C078600
E07C078E00
4078078E00
00780F1C00
00780F3C00
00780F7800
00780FF800
00F83FE000
07FFFFC000
0FFFFF0000
0FFFDE0000
00F01E0000
01F01E0000
01F01E0000
01E01E0000
01E01F0180
03E01F0380
03E00F0780
03C00FDF00
03C007FE00
03C003FC00
038001F000
ENDCHAR
STARTCHAR hcircumflex
ENCODING 293
SWIDTH 502 0
DWIDTH 16 0
BBX 18 41 2 0
BITMAP
00E000
01F000
03F800
07B800
07B800
0F3C00
0F3C00
1E1C00
0C1C00
000000
000000
01C000
07E000
0FE000
0FF000
1EF000
1C7000
3C7000
3CE000
38E000
78E000
79C000
79C000
738000
770000
F70000
FE7000
FDF800
F9F800
F3F800
F7F800
F67000
FEF000
FCF000
FCF0C0
F8F1C0
F8F3C0
F8F780
F0FF00
F0FE00
E07800
ENDCHAR
STARTCHAR Hbar
ENCODING 294
SWIDTH 856 0
DWIDTH 27 0
BBX 26 27 2 0
BITMAP
07800E00
07801F00
0F801F00
0F801F00
0F801E00
7FFFFFC0
7FFFFFC0
7FFFFFC0
0F003E00
1F003E00
1F003C00
1F003C00
FFFFFF80
FFFFFF80
FFFFFF80
3E007C00
3E007800
3E007800
3C007800
3C00F800
3C00F800
7C00F800
7C00F800
7C00F000
7C00F000
7C00F000
3800F000
ENDCHAR
STARTCHAR hbar
ENCODING 295
SWIDTH 502 0
DWIDTH 16 0
BBX 18 27 2 0
BITMAP
0E0000
1F0000
1E0000
1E0000
3E0000
FFF000
FFF000
FFF000
3C0000
7C0000
780000
780000
787000
79F800
F9F800
F3F800
F7F800
F67000
FEF000
FCF000
FCF0C0
F8F1C0
F8F3C0
F8F780
F0FF00
F0FE00
607800
ENDCHAR
STARTCHAR Itilde
ENCODING 296
SWIDTH 495 0
DWIDTH 16 0
BBX 20 36 -1 0
BITMAP
004000
01F060
01F8F0
03FFE0
039FE0
078FC0
020380
000000
000000
07FFC0
0FFFE0
0FFFC0
007C00
007800
007800
00F800
00F800
00F800
00F800
00F000
00F000
00F000
01F000
01F000
01F000
01E000
01E000
01E000
03E000
03E000
03E000
03E000
03C000
7FFE00
FFFE00
7FFC00
ENDCHAR
STARTCHAR itilde
ENCODING 297
SWIDTH 246 0
DWIDTH 8 0
BBX 14 24 -1 0
BITMAP
1000
3C18
7F3C
FFB8
F7F8
E1F0
40E0
0000
0000
0F00
0F00
0F00
1E00
1E00
1E00
1E00
1E00
1C18
3C38
1C78
1EF0
1FE0
1FC0
0F00
ENDCHAR
STARTCHAR Imacron
ENCODING 298
SWIDTH 495 0
DWIDTH 16 0
BBX 19 32 -1 0
BITMAP
01FF80
01FF80
01FF80
000000
000000
07FFC0
0FFFE0
0FFFC0
007C00
007800
007800
00F800
00F800
00F800
00F800
00F000
00F000
00F000
01F000
01F000
01F000
01E000
01E000
01E000
03E000
03E000
03E000
03E000
03C000
7FFE00
FFFE00
7FFC00
ENDCHAR
STARTCHAR imacron
ENCODING 299
SWIDTH 246 0
DWIDTH 8 0
BBX 12 20 0 0
BITMAP
FFC0
FFE0
7FC0
0000
0000
1E00
1E00
1E00
3C00
3C00
3C00
3C00
3C00
3830
7870
38F0
3DE0
3FC0
3F80
1E00
ENDCHAR
STARTCHAR Ibreve
ENCODING 300
SWIDTH 495 0
DWIDTH 16 0
BBX 19 35 -1 0
BITMAP
0380E0
03C1E0
03F7E0
01FFC0
01FF80
007E00
000000
000000
07FFC0
0FFFE0
0FFFC0
007C00
007800
007800
00F800
00F800
00F800
00F800
00F000
00F000
00F000
01F000
01F000
01F000
01E000
01E000
01E000
03E000
03E000
03E000
03E000
03C000
7FFE00
FFFE00
7FFC00
ENDCHAR
STARTCHAR ibreve
ENCODING 301
SWIDTH 246 0
DWIDTH 8 0
BBX 13 24 -1 0
BITMAP
6018
F038
F078
7FF8
7FF0
3FE0
0F80
0000
0000
0F00
0F00
0F00
1E00
1E00
1E00
1E00
1E00
1C18
3C38
1C78
1EF0
1FE0
1FC0
0F00
ENDCHAR
STARTCHAR Iogonek
ENCODING 302
SWIDTH 495 0
DWIDTH 16 0
BBX 19 35 -1 -8
BITMAP
07FFC0
0FFFE0
0FFFC0
007C00
007800
007800
00F800
00F800
00F800
00F800
00F000
00F000
00F000
01F000
01F000
01F000
01E000
01E000
01E000
03E000
03E000
03E000
03E000
03C000
7FFE00
FFFE00
7FFC00
078000
070000
0F0000
0F0000
0FB800
07F800
07F800
01F000
ENDCHAR
STARTCHAR iogonek
ENCODING 303
SWIDTH 246 0
DWIDTH 8 0
BBX 11 30 1 -8
BITMAP
1E00
3E00
3F00
3E00
1C00
0000
0000
3C00
3C00
3C00
7800
7800
7800
7800
7800
7860
F0E0
71E0
7BC0
7F80
7F00
3E00
7800
F000
E000
E000
F000
FF00
7F00
3E00
ENDCHAR
STARTCHAR Idotaccent
ENCODING 304
SWIDTH 495 0
DWIDTH 16 0
BBX 19 34 -1 0
BITMAP
001C00
003E00
007E00
003E00
003C00
000000
000000
07FFC0
0FFFE0
0FFFC0
007C00
007800
007800
00F800
00F800
00F800
00F800
00F000
00F000
00F000
01F000
01F000
01F000
01E000
01E000
01E000
03E000
03E000
03E000
03E000
03C000
7FFE00
FFFE00
7FFC00
ENDCHAR
STARTCHAR dotlessi
ENCODING 305
SWIDTH 246 0
DWIDTH 8 0
BBX 11 15 1 0
BITMAP
3C00
3C00
3C00
7800
7800
7800
7800
7800
7060
F0E0
71E0
7BC0
7F80
7F00
3C00
ENDCHAR
STARTCHAR Jcircumflex
ENCODING 308
SWIDTH 743 0
DWIDTH 24 0
BBX 23 41 2 -3
BITMAP
001E00
003F00
003F00
007F80
00F780
00F380
01E3C0
01E3C0
01C180
000000
000000
00FFF0
0FFFFC
1FFFFE
3FF3FC
7C00F8
7800F8
F000F8
F000F0
F000F0
7800F0
7801F0
3001F0
0001F0
0007E0
001FE0
007FE0
00FDE0
01F3E0
07E3C0
0783C0
0F03C0
1F0780
1E0780
1E0F80
1E0F00
1E1F00
1E3E00
1FFC00
0FF800
07F000
ENDCHAR
STARTCHAR jcircumflex
ENCODING 309
SWIDTH 254 0
DWIDTH 8 0
BBX 19 43 -7 -15
BITMAP
000400
000F00
001F00
003F00
003F80
007B80
00F380
00F380
01E3C0
01E3C0
01C180
000000
000000
003C00
003C00
003C00
007800
007800
007800
007800
007800
0078C0
0079E0
0073C0
007F80
00FF00
00FC00
00F800
01F000
03F000
07E000
0FE000
1DE000
39E000
79C000
73C000
E3C000
E38000
E78000
FF0000
FF0000
FE0000
7C0000
ENDCHAR
STARTCHAR uni0136
ENCODING 310
SWIDTH 937 0
DWIDTH 30 0
BBX 33 36 1 -9
BITMAP
01FE003800
0FFFC07C00
1FFFC07C00
3FDFC07800
3C0F00F800
780F00F000
780F01F000
781F01E000
781F03E000
3C1F07C000
381F0F8000
001E1F0000
001FFE0000
00FFF80000
00FFE00000
00FFF80000
003EFC0000
003C7C0000
003C3E0000
003C3E0000
E07C1F0180
E07C1F0380
F0F80F8780
FFF80FFF00
7FF007FE00
3FE003FC00
1F8001F000
0000000000
0000000000
0003000000
0007800000
0007800000
0007800000
0007000000
0007000000
0006000000
ENDCHAR
STARTCHAR uni0137
ENCODING 311
SWIDTH 525 0
DWIDTH 17 0
BBX 19 40 2 -10
BITMAP
01C000
07E000
0FE000
0FF000
1E7000
1C7000
3C7000
3CE000
38E000
78E000
79C000
798000
738000
770000
F60000
FE7800
FDFC00
FBFC00
F3BC00
F73C00
FE3C00
FC3C00
FCF820
FDF060
FBC0E0
FBE1E0
F1FFC0
F1FF80
F0FF00
607C00
000000
000000
0E0000
1E0000
1E0000
1E0000
1E0000
1C0000
1C0000
1C0000
ENDCHAR
STARTCHAR kgreenlandic
ENCODING 312
SWIDTH 465 0
DWIDTH 15 0
BBX 17 15 2 0
BITMAP
38F000
79F800
73FC00
F7FC00
F71C00
FF1C00
FF1800
EE0000
FE0180
FF0380
FF0780
F7DF00
F7FE00
F3FC00
60F800
ENDCHAR
STARTCHAR Lacute
ENCODING 313
SWIDTH 673 0
DWIDTH 22 0
BBX 27 37 -1 0
BITMAP
00000100
00000380
000007C0
00001F80
00003F00
00007E00
0000F800
0000E000
00000000
00000000
0003F800
001FFC00
003FFE00
007FFF00
00FC0F00
00F80F00
01F00F80
01F00F00
03E00F00
03E00F00
03E00000
03E00000
03E00000
03E00000
03C00000
03C00000
03C00000
03C00000
03C00000
03C00040
3FC000E0
7FF801E0
FFFF83C0
FFFFFFC0
FF7FFF80
FF0FFE00
7C01FC00
ENDCHAR
STARTCHAR lacute
ENCODING 314
SWIDTH 326 0
DWIDTH 10 0
BBX 17 40 2 0
BITMAP
000200
000780
000F80
001F80
007F00
00FC00
01F000
00C000
000000
000000
01C000
07E000
0FE000
0FF000
1E7000
1C7000
3C7000
3C7000
38E000
78E000
78E000
78E000
71C000
F1C000
F3C000
F38000
F38000
F70000
FF0000
FE0000
FC0000
FC0000
F80000
F01000
F03800
F07000
7FF000
7FE000
3FC000
1F0000
ENDCHAR
STARTCHAR uni013B
ENCODING 315
SWIDTH 673 0
DWIDTH 22 0
BBX 27 36 -1 -9
BITMAP
0003F800
001FFC00
003FFE00
007FFF00
00FC0F00
00F80F00
01F00F80
01F00F00
03E00F00
03E00F00
03E00000
03E00000
03E00000
03E00000
03C00000
03C00000
03C00000
03C00000
03C00000
03C00040
3FC000E0
7FF801E0
FFFF83C0
FFFFFFC0
FF7FFF80
FF0FFE00
7C01FC00
00000000
00000000
00300000
00780000
00780000
00780000
00700000
00700000
00700000
ENDCHAR
STARTCHAR uni013C
ENCODING 316
SWIDTH 326 0
DWIDTH 10 0
BBX 13 40 2 -10
BITMAP
01C0
07E0
0FE0
0FF0
1E70
1C70
3C70
3C70
38E0
78E0
78E0
78E0
71C0
F1C0
F3C0
F380
F380
F700
FF00
FE00
FC00
FC00
F800
F010
F038
F070
7FF0
7FE0
3FC0
1F00
0000
0000
3800
3C00
3800
3800
3800
7800
7000
3000
ENDCHAR
STARTCHAR Lcaron
ENCODING 317
SWIDTH 673 0
DWIDTH 22 0
BBX 30 27 -1 0
BITMAP
0003F800
001FFC38
003FFE3C
007FFF38
00FC0F38
00F80F38
01F00FF0
01F00F30
03E00F00
03E00F00
03E00000
03E00000
03E00000
03E00000
03C00000
03C00000
03C00000
03C00000
03C00000
03C00040
3FC000E0
7FF801E0
FFFF83C0
FFFFFFC0
FF7FFF80
FF0FFE00
7C01FC00
ENDCHAR
STARTCHAR lcaron
ENCODING 318
SWIDTH 237 0
DWIDTH 8 0
BBX 13 29 1 0
BITMAP
0078
0078
0778
0F70
0F70
1F70
1F60
1E00
1E00
1E00
3E00
3C00
3C00
3C00
3C00
7C00
7800
7800
7800
7800
7800
7040
F060
F0E0
F1C0
7FC0
7F80
7F00
3C00
ENDCHAR
STARTCHAR Ldot
ENCODING 319
SWIDTH 673 0
DWIDTH 22 0
BBX 27 27 -1 0
BITMAP
0003F800
001FFC00
003FFE00
007FFF00
00FC0F00
00F80F00
01F00F80
01F00F00
03E00F00
03E00F00
03E00000
03E00000
03E1C000
03E3E000
03C3E000
03C3E000
03C3C000
03C00000
03C00000
03C00040
3FC000E0
7FF801E0
FFFF83C0
FFFFFFC0
FF7FFF80
FF0FFE00
7C01FC00
ENDCHAR
STARTCHAR ldot
ENCODING 320
SWIDTH 363 0
DWIDTH 12 0
BBX 14 30 2 0
BITMAP
0700
0F00
0F00
1F00
1E00
1E00
1E00
3E00
3C00
3C00
3C00
7C00
7800
79C0
7BE0
7BE0
FBE0
F1C0
F000
F000
F000
F000
F000
F00C
F01C
F03C
FDF8
7FF0
7FE0
1F80
ENDCHAR
STARTCHAR Lslash
ENCODING 321
SWIDTH 673 0
DWIDTH 22 0
BBX 27 33 -1 0
BITMAP
0001FE00
000FFF80
003FFF80
007FEF80
007C0000
00600000
00000000
0007FC00
001FFE00
007FFF00
007C1F00
00F80F00
01F00F80
01F00F00
01E00F00
03E00F00
03E00E00
03E00000
03E00000
03E00000
03C00000
03C00000
03C00000
03C00000
03C00000
03C00040
3FC000E0
7FF801E0
FFFF83C0
FFFFFFC0
FF7FFF80
FF0FFE00
7C01FC00
ENDCHAR
STARTCHAR lslash
ENCODING 322
SWIDTH 326 0
DWIDTH 10 0
BBX 17 33 2 0
BITMAP
00FE00
07FF80
1FFF80
3FEF80
3E0000
380000
03C000
07E000
0FE000
1FF000
1E7000
3C7000
3C7000
78E000
78E000
78E000
70E000
F1C000
F1C000
F38000
F38000
F70000
FE0000
FE0000
FC0000
F80000
F01000
F03800
F07000
7FF000
7FE000
3FC000
1F0000
ENDCHAR
STARTCHAR Nacute
ENCODING 323
SWIDTH 884 0
DWIDTH 28 0
BBX 32 37 0 0
BITMAP
00000080
000003C0
000007C0
00000FC0
00001F80
00003E00
00007800
00006000
00000000
00000000
03C03F00
0FE07F80
3FF1FFC0
7DF3EFC0
70F383C0
E0F703E0
E0F603C0
C1FC03C0
01FC03C0
01F807C0
01F807C0
01F807C0
01F00780
01F00F80
01F00F80
03E00F80
03E00F80
03E00F00
03E01F00
03C01F00
03C01F01
07C01F03
07C01F07
07C00FFF
07C00FFE
078007F8
038003F0
ENDCHAR
STARTCHAR nacute
ENCODING 324
SWIDTH 496 0
DWIDTH 16 0
BBX 18 27 2 0
BITMAP
001000
003C00
003C00
007C00
007800
00F000
00E000
01E000
01C000
018000
000000
000000
387000
79F800
73F800
F3F800
F7F000
FEF000
FEF000
FCF000
F8F0C0
F8E1C0
F8E3C0
F0F780
F0FF00
F0FE00
607800
ENDCHAR
STARTCHAR uni0145
ENCODING 325
SWIDTH 884 0
DWIDTH 28 0
BBX 32 36 0 -9
BITMAP
03C03F00
0FE07F80
3FF1FFC0
7DF3EFC0
70F383C0
E0F703E0
E0F603C0
C1FC03C0
01FC03C0
01F807C0
01F807C0
01F807C0
01F00780
01F00F80
01F00F80
03E00F80
03E00F80
03E00F00
03E01F00
03C01F00
03C01F01
07C01F03
07C01F07
07C00FFF
07C00FFE
078007F8
038003F0
00000000
00000000
000E0000
000F0000
000E0000
000E0000
000E0000
001E0000
000C0000
ENDCHAR
STARTCHAR uni0146
ENCODING 326
SWIDTH 496 0
DWIDTH 16 0
BBX 18 25 2 -10
BITMAP
387000
79F800
73F800
F3F800
F7F000
FEF000
FEF000
FCF000
F8F0C0
F8E1C0
F8E3C0
F0F780
F0FF00
F0FE00
607800
000000
000000
0E0000
1E0000
1E0000
1E0000
1E0000
1C0000
1C0000
1C0000
ENDCHAR
STARTCHAR Ncaron
ENCODING 327
SWIDTH 884 0
DWIDTH 28 0
BBX 32 37 0 0
BITMAP
00030700
00078F00
00038F00
0003DE00
0001DC00
0001F800
0000F800
0000F000
00000000
00000000
03C03F00
0FE07F80
3FF1FFC0
7DF3EFC0
70F383C0
E0F703E0
E0F603C0
C1FC03C0
01FC03C0
01F807C0
01F807C0
01F807C0
01F00780
01F00F80
01F00F80
03E00F80
03E00F80
03E00F00
03E01F00
03C01F00
03C01F01
07C01F03
07C01F07
07C00FFF
07C00FFE
078007F8
038003F0
ENDCHAR
STARTCHAR ncaron
ENCODING 328
SWIDTH 496 0
DWIDTH 16 0
BBX 18 28 2 0
BITMAP
040400
0E0E00
0F1E00
0F3C00
073C00
073800
077000
077000
03E000
03E000
01C000
000000
000000
387000
79F800
73F800
F3F800
F7F000
FEF000
FEF000
FCF000
F8F0C0
F8E1C0
F8E3C0
F0F780
F0FF00
F0FE00
607800
ENDCHAR
STARTCHAR napostrophe
ENCODING 329
SWIDTH 496 0
DWIDTH 16 0
BBX 20 25 0 0
BITMAP
600000
F00000
F00000
F00000
E00000
E00000
E00000
C00000
000000
000000
0E1C00
1E7E00
1CFE00
3CFE00
3DFC00
3FBC00
3FBC00
3F3C00
3E3C30
3E3870
3E38F0
3C3DE0
3C3FC0
3C3F80
181E00
ENDCHAR
STARTCHAR Eng
ENCODING 330
SWIDTH 884 0
DWIDTH 28 0
BBX 32 38 0 -11
BITMAP
03C01F00
0FE07F80
1FF1FFC0
3FF1FFC0
78F3C7C0
F0F703C0
E0F603C0
C0FE03C0
01FC03C0
01FC07C0
01F807C0
01F807C0
01F00780
01F00780
01F00F80
03E00F80
03E00F00
03E00F00
03E01F00
03C01F00
03C01E01
07C01E03
07C01E07
07C03FDF
07C03FFE
07803FFC
03803DF0
00007C00
00007800
00007800
0000F800
0100F000
0380F000
07C1E000
03F7C000
03FFC000
00FF8000
007E0000
ENDCHAR
STARTCHAR eng
ENCODING 331
SWIDTH 495 0
DWIDTH 16 0
BBX 19 25 1 -10
BITMAP
1C3800
3CFC00
39FC00
79FC00
7BF800
7F7800
7F7800
7E7800
7C7860
7C70E0
7C71E0
78F7C0
78FF80
78FF00
30FC00
01E000
01E000
01C000
01C000
63C000
E38000
E70000
FF0000
7E0000
3C0000
ENDCHAR
STARTCHAR Omacron
ENCODING 332
SWIDTH 816 0
DWIDTH 26 0
BBX 24 32 2 0
BITMAP
007FE0
007FE0
007FC0
000000
000000
003F80
01FFE0
03FFF0
07FBF8
0FC0FC
1F007C
3E003E
3E003E
7C001E
7C001E
78001F
F8001F
F8001E
F8001E
F8001E
F8003E
F8003E
F8003E
F8007C
F8007C
7C00F8
7C01F0
3E03F0
3FDFE0
1FFFC0
07FF00
01FC00
ENDCHAR
STARTCHAR omacron
ENCODING 333
SWIDTH 451 0
DWIDTH 14 0
BBX 18 20 1 0
BITMAP
3FF800
3FF800
1FF000
000000
000000
07C000
1FE000
3FF000
7FF000
79F800
F1FFC0
F0FFC0
F0FFC0
F07F00
F07000
F8F000
7DF000
7FE000
3FC000
0F8000
ENDCHAR
STARTCHAR Obreve
ENCODING 334
SWIDTH 816 0
DWIDTH 26 0
BBX 24 35 2 0
BITMAP
00E030
01E078
00FFF0
00FFF0
007FE0
001F80
000000
000000
003F80
01FFE0
03FFF0
07FBF8
0FC0FC
1F007C
3E003E
3E003E
7C001E
7C001E
78001F
F8001F
F8001E
F8001E
F8001E
F8003E
F8003E
F8003E
F8007C
F8007C
7C00F8
7C01F0
3E03F0
3FDFE0
1FFFC0
07FF00
01FC00
ENDCHAR
STARTCHAR obreve
ENCODING 335
SWIDTH 451 0
DWIDTH 14 0
BBX 18 24 1 0
BITMAP
300C00
781C00
783C00
3FFC00
3FF800
1FF000
07C000
000000
000000
07C000
1FE000
3FF000
7FF000
79F800
F1FFC0
F0FFC0
F0FFC0
F07F00
F07000
F8F000
7DF000
7FE000
3FC000
0F8000
ENDCHAR
STARTCHAR Ohungarumlaut
ENCODING 336
SWIDTH 816 0
DWIDTH 26 0
BBX 24 37 2 0
BITMAP
000820
001C70
001E70
001CF0
003CF0
0038E0
0039C0
0030C0
000000
000000
003F80
01FFE0
03FFF0
07FBF8
0FC0FC
1F007C
3E003E
3E003E
7C001E
7C001E
78001F
F8001F
F8001E
F8001E
F8001E
F8003E
F8003E
F8003E
F8007C
F8007C
7C00F8
7C01F0
3E03F0
3FDFE0
1FFFC0
07FF00
01FC00
ENDCHAR
STARTCHAR ohungarumlaut
ENCODING 337
SWIDTH 451 0
DWIDTH 14 0
BBX 18 27 1 0
BITMAP
038E00
039E00
079E00
079E00
073C00
0F3C00
0E3800
0E3800
1C7000
0C6000
000000
000000
07C000
1FE000
3FF000
7FF000
79F800
F1FFC0
F0FFC0
F0FFC0
F07F00
F07000
F8F000
7DF000
7FE000
3FC000
0F8000
ENDCHAR
STARTCHAR OE
ENCODING 338
SWIDTH 1124 0
DWIDTH 36 0
BBX 38 27 2 0
BITMAP
003F80FFF0
01FFE1FFF0
03FFF3FFF0
07FBFBFFE0
0F80FFC000
1F007FC000
3E003F8000
3E003F8000
7C001F8000
7C001F8000
78001F0000
F8001F0000
F8001FFFC0
F8001FFFC0
F8001FFF80
F8003E0000
F8003E0000
F8003E0000
F8007E0000
F8007E0000
7C00FE0000
7C01FF000C
3E03FF803C
3FDFEFFBFC
1FFF87FFF8
07FF03FFE0
01FC00FF00
ENDCHAR
STARTCHAR oe
ENCODING 339
SWIDTH 668 0
DWIDTH 21 0
BBX 25 15 1 0
BITMAP
0783C000
1FCFE000
3FFFF000
7FFEF000
78FC7000
F0787000
F078F000
F07BE000
F07FC300
F0FE0780
F8FC0F00
7FFF7F00
7FFFFE00
3FDFF800
1F07E000
ENDCHAR
STARTCHAR Racute
ENCODING 340
SWIDTH 880 0
DWIDTH 28 0
BBX 30 37 2 0
BITMAP
00000800
00001E00
00003E00
00007E00
0001FC00
0003F000
0007C000
00030000
00000000
00000000
001FE000
00FFF800
03FFFC00
07FBFE00
0F803E00
1F003F00
3C381F00
3C3C1F00
787C1F00
787C1F00
70783E00
F0783E00
F0787C00
E0FFF800
E3FFE000
E3FF8000
E3FFC000
E0F3E000
E0F1F000
E1F1F000
F1F0F80C
F1E0F80C
71E07C1C
7FE07FFC
3FE03FF8
1FC01FE0
07800FC0
ENDCHAR
STARTCHAR racute
ENCODING 341
SWIDTH 455 0
DWIDTH 15 0
BBX 17 27 2 0
BITMAP
001000
003800
007800
007800
00F000
00F000
01E000
01C000
038000
030000
000000
000000
387000
79F800
73F800
F3F800
F7F000
FEF180
FEF380
ECFF80
FC7F00
F87E00
F80000
F00000
F00000
F00000
600000
ENDCHAR
STARTCHAR uni0156
ENCODING 342
SWIDTH 880 0
DWIDTH 28 0
BBX 30 36 2 -9
BITMAP
001FE000
00FFF800
03FFFC00
07FBFE00
0F803E00
1F003F00
3C381F00
3C3C1F00
787C1F00
787C1F00
70783E00
F0783E00
F0787C00
E0FFF800
E3FFE000
E3FF8000
E3FFC000
E0F3E000
E0F1F000
E1F1F000
F1F0F80C
F1E0F80C
71E07C1C
7FE07FFC
3FE03FF8
1FC01FE0
07800FC0
00000000
00000000
000E0000
000F0000
000F0000
000E0000
000E0000
000E0000
000C0000
ENDCHAR
STARTCHAR uni0157
ENCODING 343
SWIDTH 455 0
DWIDTH 15 0
BBX 18 25 1 -10
BITMAP
1C3800
3CFC00
39FC00
79FC00
7BF800
7F78C0
7F79C0
767FC0
7E3F80
7C3F00
7C0000
780000
780000
780000
300000
000000
000000
700000
700000
F00000
F00000
F00000
E00000
E00000
E00000
ENDCHAR
STARTCHAR Rcaron
ENCODING 344
SWIDTH 880 0
DWIDTH 28 0
BBX 30 37 2 0
BITMAP
00383800
003C7800
003C7000
001CF000
001FE000
000FC000
000F8000
00070000
00000000
00000000
001FE000
00FFF800
03FFFC00
07FBFE00
0F803E00
1F003F00
3C381F00
3C3C1F00
787C1F00
787C1F00
70783E00
F0783E00
F0787C00
E0FFF800
E3FFE000
E3FF8000
E3FFC000
E0F3E000
E0F1F000
E1F1F000
F1F0F80C
F1E0F80C
71E07C1C
7FE07FFC
3FE03FF8
1FC01FE0
07800FC0
ENDCHAR
STARTCHAR rcaron
ENCODING 345
SWIDTH 455 0
DWIDTH 15 0
BBX 17 28 2 0
BITMAP
040800
1E1C00
1E3C00
0E3800
0E7800
0E7000
0EF000
07E000
07E000
07C000
038000
000000
000000
387000
79F800
73F800
F3F800
F7F000
FEF180
FEF380
ECFF80
FC7F00
F87E00
F80000
F00000
F00000
F00000
600000
ENDCHAR
STARTCHAR Sacute
ENCODING 346
SWIDTH 693 0
DWIDTH 22 0
BBX 21 37 1 0
BITMAP
000010
000078
0000F8
0001F8
0003F0
000FC0
000F00
000C00
000000
000000
007F00
03FFE0
07FFF0
0FF7F8
1F00F8
1E0078
3E0078
3E0078
3E0078
1F0070
1F8000
0FE000
0FFC00
03FF00
00FFC0
003FE0
0007E0
7003F0
F001F0
F000F0
F001F0
F001F0
F803E0
7FBFE0
7FFFC0
1FFF00
07FC00
ENDCHAR
STARTCHAR sacute
ENCODING 347
SWIDTH 427 0
DWIDTH 14 0
BBX 18 28 0 -1
BITMAP
000800
001C00
003C00
003C00
007800
007800
00F000
00E000
01C000
00C000
000000
000000
01C000
03C000
078000
078000
0F8000
0FC000
1FE000
1FE000
39F0C0
78F1C0
70F3C0
E7FF80
CFFF00
0FFE00
0FFC00
07C000
ENDCHAR
STARTCHAR Scircumflex
ENCODING 348
SWIDTH 693 0
DWIDTH 22 0
BBX 21 38 1 0
BITMAP
000F00
001F00
003F80
003B80
007BC0
00F3C0
00F1C0
01E1C0
00C1C0
000000
000000
007F00
03FFE0
07FFF0
0FF7F8
1F00F8
1E0078
3E0078
3E0078
3E0078
1F0070
1F8000
0FE000
0FFC00
03FF00
00FFC0
003FE0
0007E0
7003F0
F001F0
F000F0
F001F0
F001F0
F803E0
7FBFE0
7FFFC0
1FFF00
07FC00
ENDCHAR
STARTCHAR scircumflex
ENCODING 349
SWIDTH 427 0
DWIDTH 14 0
BBX 18 29 0 -1
BITMAP
004000
00F000
01F000
03F000
03B800
07B800
073800
0F3800
1E3C00
1E3C00
1C1800
000000
000000
01C000
03C000
078000
078000
0F8000
0FC000
1FE000
1FE000
39F0C0
78F1C0
70F3C0
E7FF80
CFFF00
0FFE00
0FFC00
07C000
ENDCHAR
STARTCHAR Scedilla
ENCODING 350
SWIDTH 693 0
DWIDTH 22 0
BBX 21 35 1 -8
BITMAP
007F00
03FFE0
07FFF0
0FF7F0
1F00F8
1E0078
3E0078
3E0078
3E0078
1F0070
1F8000
1FE000
0FF800
07FE00
01FF80
007FC0
000FE0
3003F0
7001F0
F001F0
F000F0
F001F0
F801F0
FC07E0
7FFFC0
3FFF80
1FFF00
03F800
03F800
007800
003800
007800
0FF800
0FF000
0FE000
ENDCHAR
STARTCHAR scedilla
ENCODING 351
SWIDTH 427 0
DWIDTH 14 0
BBX 18 23 0 -8
BITMAP
01C000
03C000
078000
078000
078000
0F8000
0FC000
1FE000
3DF080
39F0C0
70F1C0
F0F380
E7FF80
CFFE00
0FFC00
0FC000
0FE000
01E000
00E000
01E000
3FE000
3FC000
3F8000
ENDCHAR
STARTCHAR Scaron
ENCODING 352
SWIDTH 693 0
DWIDTH 22 0
BBX 21 37 1 0
BITMAP
0060E0
00F1E0
0071E0
0073C0
003B80
003F00
001F00
001E00
000000
000000
007F00
03FFE0
07FFF0
0FF7F8
1F00F8
1E0078
3E0078
3E0078
3E0078
1F0070
1F8000
0FE000
0FFC00
03FF00
00FFC0
003FE0
0007E0
7003F0
F001F0
F000F0
F001F0
F001F0
F803E0
7FBFE0
7FFFC0
1FFF00
07FC00
ENDCHAR
STARTCHAR scaron
ENCODING 353
SWIDTH 427 0
DWIDTH 14 0
BBX 18 29 0 -1
BITMAP
020400
070E00
0F1E00
071E00
073C00
073800
07F800
03F000
03F000
03E000
01C000
000000
000000
01C000
03C000
078000
078000
0F8000
0FC000
1FE000
1FE000
39F0C0
78F1C0
70F3C0
E7FF80
CFFF00
0FFE00
0FFC00
07C000
ENDCHAR
STARTCHAR uni0162
ENCODING 354
SWIDTH 697 0
DWIDTH 22 0
BBX 28 35 1 -8
BITMAP
007FFFE0
07FFFFF0
1FFFFFF0
7FFF83E0
780F8000
F00F0000
F01F0000
F01F0000
F01F0000
781F0000
701E0000
001E0000
003E0000
003E0000
003E0000
003C0000
003C0000
003C0000
007C0000
007C0000
007C0000
007C0000
00780000
00780000
00780000
01F80000
01F80000
01FC0000
001C0000
001C0000
001C0000
007C0000
07FC0000
07F80000
03E00000
ENDCHAR
STARTCHAR uni0163
ENCODING 355
SWIDTH 393 0
DWIDTH 13 0
BBX 17 36 0 -8
BITMAP
007800
00F800
01FC00
03FC00
039C00
079C00
071C00
071800
0F3800
0F3800
0E7000
0EE000
1FC000
FFFC00
FFFC00
FFFC00
1E0000
1E0000
1E0000
1E0000
1E0000
1E0100
1E0380
1F0780
0F8F00
0FFE00
07FC00
0FF800
0FE000
03E000
00E000
00E000
01E000
3FE000
3FC000
3F8000
ENDCHAR
STARTCHAR Tcaron
ENCODING 356
SWIDTH 697 0
DWIDTH 22 0
BBX 28 37 1 0
BITMAP
001C1800
001C3C00
001E7800
000E7000
000EF000
0007E000
0007C000
00038000
00000000
00000000
007FFFE0
07FFFFF0
1FFFFFF0
7FFF83E0
7C0F0000
F00F0000
F00F0000
F01F0000
F01F0000
781F0000
701E0000
001E0000
003E0000
003E0000
003E0000
003E0000
003C0000
003C0000
007C0000
007C0000
007C0000
007C0000
007C0000
00780000
00780000
00780000
00780000
ENDCHAR
STARTCHAR tcaron
ENCODING 357
SWIDTH 343 0
DWIDTH 11 0
BBX 15 29 0 0
BITMAP
001E
001E
001E
001C
011C
079C
0798
0780
0F80
0F80
0F00
0F00
0F00
7FF8
FFF8
FFF0
1E00
1E00
1E00
3C00
3C00
3C00
3C06
3C0E
3E1E
1F7C
1FF8
0FF0
07C0
ENDCHAR
STARTCHAR Tbar
ENCODING 358
SWIDTH 697 0
DWIDTH 22 0
BBX 28 27 1 0
BITMAP
007FFFE0
07FFFFF0
1FFFFFF0
7FFF83E0
7C0F8000
F00F0000
F00F0000
F01F0000
F01F0000
F81F0000
701E0000
001E0000
03FFF000
07FFF000
07FFF000
003E0000
003C0000
003C0000
007C0000
007C0000
007C0000
007C0000
007C0000
00780000
00780000
00780000
00780000
ENDCHAR
STARTCHAR tbar
ENCODING 359
SWIDTH 343 0
DWIDTH 11 0
BBX 15 25 0 0
BITMAP
0100
0780
0780
0780
0F80
0F80
0F00
0F00
0F00
7FF8
FFF8
FFF0
1E00
1E00
1E00
FFF0
FFE0
FFC0
3C06
3C0E
3E1E
1F7C
1FF8
0FF0
07C0
ENDCHAR
STARTCHAR Utilde
ENCODING 360
SWIDTH 890 0
DWIDTH 28 0
BBX 33 36 0 0
BITMAP
0002000000
0007838000
000FE78000
001FF70000
001CFF0000
001C7E0000
00081C0000
0000000000
0000000000
03E001C000
0FF003E000
1FF003E000
3FF803E000
78F803E000
F0F803C000
E0F803C000
C0F007C000
00F007C000
01F007C000
01F007C000
01F0078000
01E00F8000
01E00F8000
03E00F8000
03E01F8000
03E01F8000
03C03F8000
07C03F0000
07C07F0000
07C06F0100
07C0EF0380
07C1CF8700
07FF8FDF00
03FF0FFE00
01FE07FC00
00F801F000
ENDCHAR
STARTCHAR utilde
ENCODING 361
SWIDTH 462 0
DWIDTH 15 0
BBX 17 24 2 0
BITMAP
040000
1E0E00
3F9E00
3FDC00
7BFC00
70F800
207000
000000
000000
387000
78F000
78F000
F0F000
F1E000
F1E000
F1E000
F3E080
E3E180
E7C380
FFC780
FDFF00
FDFE00
F9FC00
70F000
ENDCHAR
STARTCHAR Umacron
ENCODING 362
SWIDTH 890 0
DWIDTH 28 0
BBX 33 32 0 0
BITMAP
000FFE0000
000FFC0000
0007FC0000
0000000000
0000000000
03E001C000
0FF003E000
1FF003E000
3FF803E000
78F803E000
F0F803C000
E0F803C000
C0F007C000
00F007C000
01F007C000
01F007C000
01F0078000
01E00F8000
01E00F8000
03E00F8000
03E01F8000
03E01F8000
03C03F8000
07C03F0000
07C07F0000
07C06F0100
07C0EF0380
07C1CF8700
07FF8FDF00
03FF0FFE00
01FE07FC00
00F801F000
ENDCHAR
STARTCHAR umacron
ENCODING 363
SWIDTH 462 0
DWIDTH 15 0
BBX 17 20 2 0
BITMAP
1FF800
3FF800
1FF000
000000
000000
387000
78F000
78F000
F0F000
F1E000
F1E000
F1E000
F3E080
E3E180
E7C380
FFC780
FDFF00
FDFE00
F9FC00
70F000
ENDCHAR
STARTCHAR Ubreve
ENCODING 364
SWIDTH 890 0
DWIDTH 28 0
BBX 33 35 0 0
BITMAP
000C030000
001E070000
001FBF0000
000FFE0000
0007FC0000
0003F80000
0000000000
0000000000
03E001C000
0FF003E000
1FF003E000
3FF803E000
78F803E000
F0F803C000
E0F803C000
C0F007C000
00F007C000
01F007C000
01F007C000
01F0078000
01E00F8000
01E00F8000
03E00F8000
03E01F8000
03E01F8000
03C03F8000
07C03F0000
07C07F0000
07C06F0100
07C0EF0380
07C1CF8700
07FF8FDF00
03FF0FFE00
01FE07FC00
00F801F000
ENDCHAR
STARTCHAR ubreve
ENCODING 365
SWIDTH 462 0
DWIDTH 15 0
BBX 17 24 2 0
BITMAP
300C00
781C00
783C00
3FFC00
3FF800
1FF000
07C000
000000
000000
387000
78F000
78F000
F0F000
F1E000
F1E000
F1E000
F3E080
E3E180
E7C380
FFC780
FDFF00
FDFE00
F9FC00
70F000
ENDCHAR
STARTCHAR Uring
ENCODING 366
SWIDTH 890 0
DWIDTH 28 0
BBX 33 38 0 0
BITMAP
0000F00000
0001F80000
0003FC0000
00039C0000
00031C0000
00039C0000
0003FC0000
0003F80000
0000F00000
0000000000
0000000000
03E001C000
0FF003E000
1FF003E000
3FF803E000
78F803E000
F0F803C000
E0F803C000
C0F007C000
00F007C000
01F007C000
01F007C000
01F0078000
01E00F8000
01E00F8000
03E00F8000
03E01F8000
03E01F8000
03C03F8000
07C03F0000
07C07F0000
07C06F0100
07C0EF0380
07C1CF8700
07FF8FDF00
03FF0FFE00
01FE07FC00
00F801F000
ENDCHAR
STARTCHAR uring
ENCODING 367
SWIDTH 462 0
DWIDTH 15 0
BBX 17 26 2 0
BITMAP
03C000
07E000
0FF000
0E7000
0E7000
0E7000
0FF000
07E000
03C000
000000
000000
387000
78F000
78F000
F0F000
F1E000
F1E000
F1E000
F3E080
E3E180
E7C380
FFC780
FDFF00
FDFE00
F9FC00
70F000
ENDCHAR
STARTCHAR Uhungarumlaut
ENCODING 368
SWIDTH 890 0
DWIDTH 28 0
BBX 33 37 0 0
BITMAP
0000820000
0001C70000
0003CF0000
0003CF0000
00038E0000
00039E0000
00071C0000
0007180000
0000000000
0000000000
03E001C000
0FF003E000
1FF003E000
3FF803E000
78F803E000
F0F803C000
E0F803C000
C0F007C000
00F007C000
01F007C000
01F007C000
01F0078000
01E00F8000
01E00F8000
03E00F8000
03E01F8000
03E01F8000
03C03F8000
07C03F0000
07C07F0000
07C06F0100
07C0EF0380
07C1CF8700
07FF8FDF00
03FF0FFE00
01FE07FC00
00F801F000
ENDCHAR
STARTCHAR uhungarumlaut
ENCODING 369
SWIDTH 462 0
DWIDTH 15 0
BBX 17 27 2 0
BITMAP
038E00
039E00
079E00
079E00
07BC00
0F3C00
0E3800
0E3800
1C7000
0C6000
000000
000000
387000
78F000
78F000
F0F000
F1E000
F1E000
F1E000
F3E080
E3E180
E7C380
FFC780
FDFF00
FDFE00
F9FC00
70F000
ENDCHAR
STARTCHAR Uogonek
ENCODING 370
SWIDTH 890 0
DWIDTH 28 0
BBX 33 35 0 -8
BITMAP
03E001C000
0FF003E000
1FF003E000
3FF803E000
78F803E000
F0F803C000
E0F803C000
C0F007C000
00F007C000
01F007C000
01F007C000
01F0078000
01E00F8000
01E00F8000
03E00F8000
03E01F8000
03E01F8000
03C03F8000
07C03F0000
07C07F0000
07C06F0100
07C0EF0380
07C1CF8700
07FF8F8F00
03FF0FFE00
01FE07FC00
00F803F000
000001E000
000001C000
000003C000
000003C000
000003EE00
000001FE00
000001FE00
0000007C00
ENDCHAR
STARTCHAR uogonek
ENCODING 371
SWIDTH 462 0
DWIDTH 15 0
BBX 17 23 2 -8
BITMAP
387000
78F000
78F000
F0F000
F1E000
F1E000
F1E000
F3E100
E3E180
E7C380
FFC780
FDFF00
FDFE00
F9FC00
70F000
01E000
03C000
038000
038000
03C000
03FC00
01FC00
00F800
ENDCHAR
STARTCHAR Wcircumflex
ENCODING 372
SWIDTH 1217 0
DWIDTH 39 0
BBX 40 38 4 0
BITMAP
0000380000
00007C0000
0000FE0000
0001FE0000
0001EE0000
0003CF0000
0007CF0000
0007870000
0007070000
0000000000
0000000780
3800700FE0
7800F01FE0
7800F03FF0
7801F038F0
F801F038F0
F801F038F0
F801F078F0
F801F078F0
F803F038F0
F803E039E0
F003E03DE0
F003E01FE0
F007E01FC0
F007E00FFE
F007E007FF
F00FE007FE
F00EE00780
F81EF00F00
F81EF01F00
F83CF01E00
783CF03C00
7878F07C00
7CF878F800
3FF07FF000
3FE07FE000
1FC03FC000
0F001F0000
ENDCHAR
STARTCHAR wcircumflex
ENCODING 373
SWIDTH 700 0
DWIDTH 22 0
BBX 25 28 2 0
BITMAP
00100000
00780000
007C0000
00FC0000
01FC0000
01DE0000
03CE0000
038E0000
078E0000
070F0000
070E0000
00000000
00000000
E060E000
E0E1F000
E0E1F000
E1E3F000
E1F3F000
F3F3EF80
F3F1FF80
F7F3FF00
F7F3FE00
F7F78000
FEFF0000
FEFF0000
FC7E0000
7C7C0000
78380000
ENDCHAR
STARTCHAR Ycircumflex
ENCODING 374
SWIDTH 851 0
DWIDTH 27 0
BBX 31 48 0 -10
BITMAP
00007000
0000F800
0001FC00
0003DC00
0003DC00
00079E00
00079E00
000F0E00
00060E00
00000000
00000000
03E001C0
0FF003E0
3FF003E0
3FF803E0
78F803E0
F0F803C0
E0F803C0
C0F007C0
00F007C0
01F007C0
01F007C0
01F00FC0
01E00F80
01E00F80
03E01F80
03E01F80
03E03F80
03E07780
03E0FF80
03E1EF00
01FFCF1E
01FF8FFE
00FF1FFC
00007FF0
0003FF00
0007FE00
001F9E00
003E1E00
00781E00
00703E00
00F03C00
00F03C00
00F07800
00F0F800
00FFF000
007FE000
003F8000
ENDCHAR
STARTCHAR ycircumflex
ENCODING 375
SWIDTH 479 0
DWIDTH 15 0
BBX 19 43 0 -15
BITMAP
002000
007800
00F800
01F800
01DC00
03DC00
039C00
079C00
0F1E00
0F1E00
0E0C00
000000
000000
0E1C00
1E3C00
1E3C00
3C3C00
3C7C00
3C7800
3C7800
38F840
38F8E0
39F9E0
3FFFC0
3FFF80
3F7F00
3E7C00
1CF800
01F000
03F000
07E000
0FE000
1DE000
39E000
79C000
71C000
E3C000
E38000
E78000
FF0000
FF0000
7E0000
3C0000
ENDCHAR
STARTCHAR Ydieresis
ENCODING 376
SWIDTH 851 0
DWIDTH 27 0
BBX 31 44 0 -10
BITMAP
00070E00
00079F00
000F9F00
000F9F00
00070E00
00000000
00000000
03E001C0
0FF003E0
3FF003E0
3FF803E0
78F803E0
F0F803C0
E0F803C0
C0F007C0
00F007C0
01F007C0
01F007C0
01F00FC0
01E00F80
01E00F80
03E01F80
03E01F80
03E03F80
03E07780
03E0FF80
03E1EF00
01FFCF1E
01FF8FFE
00FF1FFC
00007FF0
0003FF00
0007FE00
001F9E00
003E1E00
00781E00
00703E00
00F03C00
00F03C00
00F07800
00F0F800
00FFF000
007FE000
003F8000
ENDCHAR
STARTCHAR Zacute
ENCODING 377
SWIDTH 721 0
DWIDTH 23 0
BBX 27 37 0 0
BITMAP
00000800
00001E00
00003E00
00007E00
0001FC00
0003F000
0007C000
00030000
00000000
00000000
00FFF000
07FFFF00
0FFFFF80
1FF7FF80
3E003F00
3C007C00
3C007C00
3C00F800
3C00F800
3E01F000
1C03E000
0007E000
0007C000
000F8000
001F8000
001F0000
003E0000
007E0000
00FC0000
01F80020
1FF00060
3FFC00E0
7FFF83E0
FFFFFFC0
7FBFFF80
7F07FF00
3E00FC00
ENDCHAR
STARTCHAR zacute
ENCODING 378
SWIDTH 445 0
DWIDTH 14 0
BBX 16 27 2 0
BITMAP
0010
0078
0078
00F8
00F0
00E0
01E0
01C0
0380
0300
0000
0000
FFF8
FFF8
FFF8
03F0
0FE0
1F80
3E00
7C00
F803
F007
F80F
FEFE
7FFC
3FF8
0FC0
ENDCHAR
STARTCHAR Zdotaccent
ENCODING 379
SWIDTH 721 0
DWIDTH 23 0
BBX 27 34 0 0
BITMAP
00078000
000FC000
000FC000
000FC000
00078000
00000000
00000000
00FFF000
07FFFF00
0FFFFF80
1FF7FF80
3E003F00
3C007C00
3C007C00
3C00F800
3C00F800
3E01F000
1C03E000
0007E000
0007C000
000F8000
001F8000
001F0000
003E0000
007E0000
00FC0000
01F80020
1FF00060
3FFC00E0
7FFF83E0
FFFFFFC0
7FBFFF80
7F07FF00
3E00FC00
ENDCHAR
STARTCHAR zdotaccent
ENCODING 380
SWIDTH 445 0
DWIDTH 14 0
BBX 16 22 2 0
BITMAP
0380
07C0
07C0
07C0
0780
0000
0000
FFF8
FFF8
FFF8
03F0
0FE0
1F80
3E00
7C00
F803
F007
F80F
FEFE
7FFC
3FF8
0FC0
ENDCHAR
STARTCHAR Zcaron
ENCODING 381
SWIDTH 721 0
DWIDTH 23 0
BBX 27 37 0 0
BITMAP
00383800
003C7800
003C7000
001CF000
001FE000
000FC000
000F8000
00070000
00000000
00000000
00FFF000
07FFFF00
0FFFFF80
1FF7FF80
3E003F00
3C007C00
3C007C00
3C00F800
3C00F800
3E01F000
1C03E000
0007E000
0007C000
000F8000
001F8000
001F0000
003E0000
007E0000
00FC0000
01F80020
1FF00060
3FFC00E0
7FFF83E0
FFFFFFC0
7FBFFF80
7F07FF00
3E00FC00
ENDCHAR
STARTCHAR zcaron
ENCODING 382
SWIDTH 445 0
DWIDTH 14 0
BBX 16 28 2 0
BITMAP
0808
1E1C
1E3C
1E38
0E78
0E70
0EF0
0EE0
07C0
07C0
0380
0000
0000
FFF8
FFF8
FFF8
03F0
0FE0
1F80
3E00
7C00
F803
F007
F80F
FEFE
7FFC
3FF8
0FC0
ENDCHAR
STARTCHAR uni018F
ENCODING 399
SWIDTH 792 0
DWIDTH 25 0
BBX 23 27 2 0
BITMAP
00FF00
03FFC0
0FFFE0
1FEFF0
3E01F8
3C00FC
30007C
00007C
00003E
00003E
00003E
00003E
00003E
7FFFFE
FFFFFC
FFFFFC
F8007C
F8007C
F80078
F800F8
7800F0
7C01F0
7E03E0
3FDFC0
1FFF80
0FFF00
01F800
ENDCHAR
STARTCHAR florin
ENCODING 402
SWIDTH 478 0
DWIDTH 15 0
BBX 19 34 -2 -10
BITMAP
0007E0
001FE0
003FE0
007F80
007C00
007800
007800
007800
00F800
00F800
0FFFC0
1FFFC0
1FFF80
00F000
00F000
00F000
01F000
01F000
01E000
01E000
01E000
01E000
01E000
01E000
03E000
03E000
03C000
03C000
03C000
07C000
3FC000
FF8000
FF0000
FC0000
ENDCHAR
STARTCHAR Ohorn
ENCODING 416
SWIDTH 816 0
DWIDTH 26 0
BBX 26 32 2 0
BITMAP
00000380
00000380
000003C0
00000780
00000F80
003FFF80
01FFFF00
03FFFE00
07FBF800
0FC0FC00
1F007E00
3E003E00
3E003E00
7C001E00
7C001E00
78001F00
F8001F00
F8001E00
F8001E00
F8001E00
F8003E00
F8003E00
F8003C00
F8007C00
F8007C00
7C00F800
7C01F000
3E03F000
3FDFE000
1FFFC000
07FF0000
01FC0000
ENDCHAR
STARTCHAR ohorn
ENCODING 417
SWIDTH 451 0
DWIDTH 14 0
BBX 18 19 1 0
BITMAP
000E00
000E00
000E00
001E00
07FC00
1FFC00
3FF000
7FF000
79F800
F1FFC0
F0FFC0
F0FFC0
F07F00
F07000
F8F000
7DF000
7FE000
3FC000
0F8000
ENDCHAR
STARTCHAR Uhorn
ENCODING 431
SWIDTH 890 0
DWIDTH 28 0
BBX 33 32 0 0
BITMAP
0000000600
0000000F00
0000000F00
0000001F00
0000001E00
03E001FE00
0FF003FC00
1FF003F800
3FF803E000
78F803E000
F0F803C000
E0F803C000
C0F007C000
00F007C000
01F007C000
01F007C000
01F0078000
01E00F8000
01E00F8000
03E00F8000
03E01F8000
03E01F8000
03C03F8000
07C03F0000
07C07F0000
07C06F0100
07C0EF0380
07C1CF8700
07FF8FDF00
03FF0FFE00
01FE07FC00
00F801F000
ENDCHAR
STARTCHAR uhorn
ENCODING 432
SWIDTH 512 0
DWIDTH 16 0
BBX 19 19 2 0
BITMAP
000700
000700
000700
000F00
387E00
78FE00
78F800
F0F000
F1E000
F1E000
F1E000
F3E040
E3E0E0
E7C1C0
FFE3C0
FDFF80
FDFF00
F9FE00
70F800
ENDCHAR
STARTCHAR uni01C4
ENCODING 452
SWIDTH 1531 0
DWIDTH 49 0
BBX 50 37 3 0
BITMAP
00000000707000
0000000070F000
0000000078E000
0000000039E000
000000003FC000
000000001F8000
000000001F0000
000000000E0000
00000000000000
00000000000000
03FC0001FFE000
1FFF800FFFFE00
3FFFC01FFFFF00
3FBFE03FEFFF00
1003F07C007E00
0001F87800F800
0400F87800F800
1E007C7801F000
1E007C7803E000
3E007C7803E000
3E003C3807C000
3C003C000F8000
3C003C000F8000
7C007C001F0000
7C007C003F0000
78007C003E0000
78007C007C0000
78007800F80000
F800F801F80000
F801F003F00040
F801F03FE000C0
F803E0FFF801C0
F00FC0FFFF07C0
F9FF81FFFFFF80
FFFF01FF7FFF00
FFFC00FE0FFE00
7FE0007C03F800
ENDCHAR
STARTCHAR uni01C5
ENCODING 453
SWIDTH 1191 0
DWIDTH 38 0
BBX 37 28 3 0
BITMAP
0000000810
03FC001C38
1FFF801C78
3FFFC01C78
3FBFE01C70
1003F01EE0
0001F80EE0
0400F80FC0
1E007C0FC0
1E007C0F80
3E007C0700
3E003C0000
3C003C0000
3C003CFFE0
7C007DFFF0
7C007CFFF0
78007C07E0
78007C0FC0
7800781F00
F800F83E00
F801F07C00
F801F0F800
F803E1F000
F00FC1E000
F9FF83C000
FFFF03FFF0
FFFC03FFF0
7FE003FFE0
ENDCHAR
STARTCHAR uni01C6
ENCODING 454
SWIDTH 895 0
DWIDTH 29 0
BBX 32 27 1 0
BITMAP
00001C38
000E1C38
001E1C78
001E1C70
001E1EF0
001E0EE0
003E0FC0
003C0FC0
003C0F80
003C0700
003C0000
003C0000
03F8FFF0
0FF9FFF8
1FF9FFF0
3FF803F0
3C780FC0
7C703F00
78F07C00
F0F0F800
F0F0F003
F0F1F007
F1F3F01E
FFF7FFFE
7F7FFFFC
7F7E7FF0
3C3C1FC0
ENDCHAR
STARTCHAR uni01C7
ENCODING 455
SWIDTH 1276 0
DWIDTH 41 0
BBX 43 30 -1 -3
BITMAP
0007F001FF00
001FF80FFFC0
003FFC1FFFE0
007F7E3FDFC0
00F83E7C0F80
01F01E780F80
01F01E780F80
01E01E780F00
03E01E780F00
03E01C780F00
03E000380F00
03E000001F00
03E000001F00
03E000007F00
03C00001FE00
03C00007FE00
03C0000F9E00
03C0001F3E00
03C0003C3C00
03C000783C00
3FC000F03C00
7FF800F07800
FFFF83E07800
FFFFFFE0F800
FF7FFFE0F000
FF0FFFE1F000
7C01FDF3E000
000001FFC000
000000FF8000
0000007F0000
ENDCHAR
STARTCHAR uni01C8
ENCODING 456
SWIDTH 927 0
DWIDTH 30 0
BBX 34 42 -1 -15
BITMAP
0003F80000
001FFC0000
003FFE0000
007FFF0000
00FC0F0000
00F80F3C00
01F00FFC00
01F00F7E00
03E00F7C00
03E00F3800
03E0040000
03E0000000
03E0003800
03E0007800
03C0007800
03C0007800
03C0007800
03C0007800
03C0007800
03C0007040
3FC000F1C0
7FF800F3C0
FFFF83F7C0
FFFFFFFF00
FF7FFFFE00
FF0FFFF800
7C01FCF000
000001E000
000007E000
00000FE000
00001FE000
00003DC000
00003BC000
000073C000
0000E38000
0000E38000
0001E78000
0001C70000
0001FF0000
0001FE0000
0000FC0000
0000780000
ENDCHAR
STARTCHAR uni01C9
ENCODING 457
SWIDTH 610 0
DWIDTH 20 0
BBX 21 45 2 -15
BITMAP
01C000
07E000
0FE000
0FF000
1E7000
1C7000
3C7000
3CF000
38E780
78EF80
78EF80
78EF80
71CF00
F1C000
F38000
F38700
F38F00
F70F00
FE0F00
FE0F00
FC0F00
FC1E00
F81E00
F01E18
F03E78
F07EF8
7FFFF0
7FFFC0
3FDF80
1F1E00
003C00
00FC00
01FC00
03F800
07B800
0F7800
0E7800
1C7000
1CF000
38F000
39E000
3FE000
3FC000
1F8000
0F0000
ENDCHAR
STARTCHAR uni01CA
ENCODING 458
SWIDTH 1497 0
DWIDTH 48 0
BBX 49 30 0 -3
BITMAP
03C01F001FFC00
0FE07F807FFF00
1FF1FFC1FFFF80
3FF1FFC3FFFF80
78F3C7C7E03E00
F0F703E7803E00
E0F603C7803E00
C0FE03C7003E00
01FC03C7803C00
01FC07C7803C00
01F807C7803C00
01F807C3803C00
01F00780007C00
01F0078000FC00
01F00F8003F800
03E00F800FF800
03E00F803FF800
03E00F007E7800
03E01F00F8F800
03C01F01F0F000
03C01F03E0F000
07C01F03C1F000
07C01F0781E000
07C00FFF81E000
07C00FFF83C000
078007FF87C000
038003F7CF8000
00000007FF0000
00000003FE0000
00000001FC0000
ENDCHAR
STARTCHAR uni01CB
ENCODING 459
SWIDTH 1138 0
DWIDTH 36 0
BBX 40 42 0 -15
BITMAP
03C03F0000
0FE07F8000
1FF1FFC000
3FF3FFC000
78F3C7C000
F0F703E0E0
E0F603C1F0
C0FE03C1F0
01FC03C1F0
01FC07C1E0
01F807C000
01F807C000
01F00780E0
01F00781E0
01F00F81E0
03E00F81E0
03E00F81E0
03E00F03C0
03E01F03C0
03C01F03C0
03C01F03C3
07C01F03C7
07C01F07DF
07C00FDFFE
07C00FFFF8
078007FFF0
038003F7C0
0000000F80
0000001F80
0000003F80
0000007F00
000000FF00
000001EF00
000001CF00
0000038E00
0000039E00
0000071E00
0000073C00
000007FC00
000007F800
000003F000
000001E000
ENDCHAR
STARTCHAR uni01CC
ENCODING 460
SWIDTH 750 0
DWIDTH 24 0
BBX 25 37 2 -15
BITMAP
00007800
0000FC00
0000FC00
0000FC00
00007800
00000000
00000000
38707000
79F87800
73F8F000
F3F8F000
F7F0F000
FEF0F000
FEF0F000
FCF0F000
F8F0F180
F8E1E380
F8E3EF80
F0F7FF00
F0FFFE00
F0FFF800
6079F000
0003E000
0007C000
000FC000
001FC000
003BC000
00738000
00E38000
00E78000
01C70000
01CF0000
01CF0000
01FE0000
01FC0000
01FC0000
00F00000
ENDCHAR
STARTCHAR Gcaron
ENCODING 486
SWIDTH 811 0
DWIDTH 26 0
BBX 27 52 2 -15
BITMAP
00307000
00387000
0038F000
003DE000
001DC000
001FC000
000F8000
00070000
00000000
00000000
003F8000
00FFE000
03FFF000
07FBF800
0FC0F800
1F007800
3E007800
3E007800
7C007800
7C007800
78002000
F8000000
F8000000
F8000000
F8000000
F807FC00
F807FC00
F807FC00
F8003C00
7C003C00
7C003C20
7E0038E0
3F0039E0
1FF7FFC0
0FFFFF80
03FFFE00
00FF7C00
0000F800
0001F000
0003F000
0007F000
000EF000
001CE000
0038E000
0039E000
0071C000
0073C000
0073C000
00778000
007F0000
007F0000
003C0000
ENDCHAR
STARTCHAR gcaron
ENCODING 487
SWIDTH 479 0
DWIDTH 15 0
BBX 19 43 0 -15
BITMAP
010100
038780
038700
03CF00
03CE00
01DE00
01DC00
01FC00
01F800
00F000
00E000
000000
000000
01E000
07F800
0FFC00
1FFC00
1E3C00
3C3800
3C7800
787800
787860
7879E0
78FFE0
7FFFC0
3FFF00
3F7E00
1EF800
01F000
03F000
07E000
0FE000
1FE000
3DE000
79C000
71C000
E3C000
E38000
E78000
FF0000
FF0000
7E0000
3C0000
ENDCHAR
STARTCHAR uni01EA
ENCODING 490
SWIDTH 816 0
DWIDTH 26 0
BBX 24 35 2 -8
BITMAP
003F80
01FFE0
03FFF0
07FBF8
0F80FC
1F007C
3E003E
3E003E
7C001E
7C001E
78001F
F8001F
F8001E
F8001E
F8001E
F8003E
F8003E
F8003E
F8007C
F8007C
7C00F8
7E01F8
3F03F0
3FFFE0
1FFFC0
07FF00
01FC00
007800
00F000
00E000
00E000
00F000
00FF80
007F80
003F00
ENDCHAR
STARTCHAR uni01EB
ENCODING 491
SWIDTH 451 0
DWIDTH 14 0
BBX 18 23 1 -8
BITMAP
07C000
1FE000
3FF000
7FF000
79F800
F9F880
F1FFC0
F0FFC0
F07F80
F07800
F07000
78F000
7FE000
3FC000
1F8000
0F0000
0E0000
1C0000
1C0000
1E0000
1FE000
0FE000
07C000
ENDCHAR
STARTCHAR Aringacute
ENCODING 506
SWIDTH 786 0
DWIDTH 25 0
BBX 29 42 2 0
BITMAP
00000038
00000078
000000F8
0000F1F0
0001FB80
0003FC00
00039C00
00071C00
00071C00
00039C00
0003F800
0001F800
0000E000
00000000
00000000
0007FE00
003FFF80
00FFFF80
01FF3F00
07F00000
0FC03000
1F807800
1F007800
3E007800
3C00F800
7C00F800
7C00F000
7800F000
F801F000
F801F000
F801F000
F801F000
F803E000
F803E000
F807E000
F807E060
F80FE060
7C1DF0E0
7F7DFFC0
3FF9FFC0
1FF0FF00
07C07E00
ENDCHAR
STARTCHAR aringacute
ENCODING 507
SWIDTH 470 0
DWIDTH 15 0
BBX 20 29 1 0
BITMAP
000060
0000F0
0001F0
00F3E0
03FB80
03F800
071C00
071C00
073C00
07F800
03F000
00E000
000000
000000
03C000
0FF000
1FF800
3FF800
3C7800
7C7000
78F000
F0F000
F0F0C0
F0F1C0
F1F3C0
FFF780
7F7F00
7F7E00
3C3C00
ENDCHAR
STARTCHAR AEacute
ENCODING 508
SWIDTH 1015 0
DWIDTH 32 0
BBX 35 37 2 0
BITMAP
0000001000
0000007800
000000F800
000001F800
000003F000
00000FC000
00000F0000
00000C0000
0000000000
0000000000
000F8FFF00
007F9FFF80
00FF9FFF00
03FF3F8000
07F03C0000
0FC03C0000
1F807C0000
1F007C0000
3E00780000
3E00780000
7C00F80000
7C00F80000
F800FFFC00
F801FFFC00
F801FFFC00
F801F00000
F801F00000
F803F00000
F803F00000
F807F00000
F807F00000
F80FF800C0
7C1EFC03E0
7F7CFFBFC0
3FFC7FFF80
1FF81FFF00
07E007F800
ENDCHAR
STARTCHAR aeacute
ENCODING 509
SWIDTH 653 0
DWIDTH 21 0
BBX 24 27 1 0
BITMAP
000080
0001E0
0001E0
0003E0
0003C0
000780
000700
000F00
000E00
000C00
000000
000000
03E7C0
0FFFE0
1FFFE0
3FFFF0
7C78F0
7878E0
78F1E0
F0F3C0
F0FF83
F0FE07
F1F81F
FBFFFE
7FBFFC
7F1FF8
1E0FC0
ENDCHAR
STARTCHAR Oslashacute
ENCODING 510
SWIDTH 816 0
DWIDTH 26 0
BBX 24 40 2 -3
BITMAP
000040
0001E0
0003E0
0007E0
000FC0
003F00
003C00
003380
0003C0
000380
003F80
01FFE0
03FFF0
07F7F8
0F8FFC
1F0F7C
3E0E3E
3E0E3E
7C1E1E
7C1E1E
781C1F
F81C1F
F83C1E
F8381E
F8381E
F8383E
F8783E
F8703C
F8707C
F8F07C
7CF0F8
7CE1F0
3EE3F0
3FFFE0
1FFFC0
0FFF00
01FC00
03C000
03C000
038000
ENDCHAR
STARTCHAR oslashacute
ENCODING 511
SWIDTH 459 0
DWIDTH 15 0
BBX 18 31 1 -4
BITMAP
008000
01C000
03C000
03C000
07C000
078000
0F0000
0E0000
1CC000
0DC000
018000
018000
0FC000
1FE000
3FF000
7FF800
7B7800
F379C0
F37FC0
F37FC0
F77F80
F67800
F67000
7EF000
7FE000
3FC000
1F8000
0C0000
0C0000
0C0000
0C0000
ENDCHAR
STARTCHAR uni0200
ENCODING 512
SWIDTH 786 0
DWIDTH 25 0
BBX 27 37 2 0
BITMAP
00082000
001C7000
001CF000
001E7800
001E7800
000E3800
00073800
00061800
00000000
00000000
0007FE00
003FFF80
00FFFF80
01FF3F00
07F00000
0FC03000
1F807800
1F007800
3E007800
3C00F800
7C00F800
7C00F000
7800F000
F801F000
F801F000
F801F000
F801F000
F803E000
F803E000
F807E000
F807E060
F80FE060
7C1DF0E0
7F7DFFC0
3FF9FFC0
1FF0FF00
07C07E00
ENDCHAR
STARTCHAR uni0201
ENCODING 513
SWIDTH 470 0
DWIDTH 15 0
BBX 18 27 1 0
BITMAP
38C000
79E000
79E000
3DF000
3CF000
1C7000
1E7000
0E3800
0E3800
061800
000000
000000
03C000
0FF000
1FF800
3FF800
3C7800
7C7000
78F000
F0F000
F0F0C0
F0F1C0
F1F3C0
FFF780
7F7F00
7F7E00
3C3C00
ENDCHAR
STARTCHAR uni0202
ENCODING 514
SWIDTH 786 0
DWIDTH 25 0
BBX 27 35 2 0
BITMAP
0003FC00
0007FE00
000FFF00
001F0F00
001E0700
001C0700
00000000
00000000
0007FE00
003FFF80
00FFFF80
01FF3F00
07F00000
0FC03000
1F807800
1F007800
3E007800
3C00F800
7C00F800
7C00F000
7800F000
F801F000
F801F000
F801F000
F801F000
F803E000
F803E000
F807E000
F807E060
F80FE060
7C1DF0E0
7F7DFFC0
3FF9FFC0
1FF0FF00
07C07E00
ENDCHAR
STARTCHAR uni0203
ENCODING 515
SWIDTH 470 0
DWIDTH 15 0
BBX 18 24 1 0
BITMAP
03F800
07FC00
0FFE00
1F1F00
1E0F00
1C0F00
180600
000000
000000
03C000
0FF000
1FF800
3FF800
3C7800
7C7000
78F000
F0F000
F0F0C0
F0F1C0
F1F3C0
FFF780
7F7F00
7F7E00
3C3C00
ENDCHAR
STARTCHAR uni0204
ENCODING 516
SWIDTH 686 0
DWIDTH 22 0
BBX 25 37 1 0
BITMAP
00410000
00E38000
00E78000
00F3C000
00F3C000
0071C000
0039C000
0030C000
00000000
00000000
003FC000
01FFF000
03FFF800
07FBF800
0FC07C00
1F803C00
1F003C00
1F007C00
1F007800
1F003800
0FC00000
07FC0000
01FC0000
0FFC0000
1FF00000
3E000000
7C000000
F8000000
F8000000
F8000000
F8000000
F8000180
7E000F80
7FF7FF80
3FFFFF00
0FFFFC00
01FFC000
ENDCHAR
STARTCHAR uni0205
ENCODING 517
SWIDTH 393 0
DWIDTH 13 0
BBX 16 27 1 0
BITMAP
6380
F3C0
F3C0
F3C0
79C0
79E0
38E0
1CE0
1C70
0C20
0000
0000
0780
1FE0
3FE0
7FE0
78E0
F0E0
F1E0
F7C0
FF83
FE0F
F81E
7EFE
7FFC
3FF0
0FC0
ENDCHAR
STARTCHAR uni0206
ENCODING 518
SWIDTH 686 0
DWIDTH 22 0
BBX 25 35 1 0
BITMAP
001FE000
003FF000
007FF800
00F87800
00F03800
00E03800
00000000
00000000
003FC000
01FFF000
03FFF800
07FBF800
0FC07C00
1F803C00
1F003C00
1F007C00
1F007800
1F003800
0FC00000
07FC0000
01FC0000
0FFC0000
1FF00000
3E000000
7C000000
F8000000
F8000000
F8000000
F8000000
F8000180
7E000F80
7FF7FF80
3FFFFF00
0FFFFC00
01FFC000
ENDCHAR
STARTCHAR uni0207
ENCODING 519
SWIDTH 393 0
DWIDTH 13 0
BBX 16 24 1 0
BITMAP
07F0
1FF8
3FFC
3C3C
781E
781E
300C
0000
0000
0780
1FE0
3FE0
7FE0
78E0
F0E0
F1E0
F7C0
FF83
FE0F
F81E
7EFE
7FFC
3FF0
0FC0
ENDCHAR
STARTCHAR uni0208
ENCODING 520
SWIDTH 495 0
DWIDTH 16 0
BBX 19 37 -1 0
BITMAP
010400
039E00
079E00
03DE00
03CF00
01C700
00E700
00C300
000000
000000
07FFC0
0FFFE0
0FFFC0
007C00
007800
007800
00F800
00F800
00F800
00F800
00F000
00F000
00F000
01F000
01F000
01F000
01E000
01E000
01E000
03E000
03E000
03E000
03E000
03C000
7FFE00
FFFE00
7FFC00
ENDCHAR
STARTCHAR uni0209
ENCODING 521
SWIDTH 246 0
DWIDTH 8 0
BBX 14 27 -2 0
BITMAP
E380
F380
F7C0
F3C0
73C0
79E0
38E0
38E0
1C70
0860
0000
0000
0780
0780
0780
0F00
0F00
0F00
0F00
0F00
0E0C
1E1C
0E3C
0F78
0FF0
0FE0
0780
ENDCHAR
STARTCHAR uni020A
ENCODING 522
SWIDTH 495 0
DWIDTH 16 0
BBX 19 35 -1 0
BITMAP
007F80
01FFC0
01FFE0
03E1E0
0381E0
0380E0
000000
000000
07FFC0
0FFFE0
0FFFC0
007C00
007800
007800
00F800
00F800
00F800
00F800
00F000
00F000
00F000
01F000
01F000
01F000
01E000
01E000
01E000
03E000
03E000
03E000
03E000
03C000
7FFE00
FFFE00
7FFC00
ENDCHAR
STARTCHAR uni020B
ENCODING 523
SWIDTH 246 0
DWIDTH 8 0
BBX 13 24 -1 0
BITMAP
1FE0
3FF0
7FF8
78F8
F078
F038
6038
0000
0000
0F00
0F00
0F00
1E00
1E00
1E00
1E00
1E00
1C18
3C38
1C78
1EF0
1FE0
1FC0
0F00
ENDCHAR
STARTCHAR uni020C
ENCODING 524
SWIDTH 816 0
DWIDTH 26 0
BBX 24 37 2 0
BITMAP
004200
01E700
01E780
01E780
00F380
0073C0
0071C0
0030C0
000000
000000
003F80
01FFE0
03FFF0
07FBF8
0FC0FC
1F007C
3E003E
3E003E
7C001E
7C001E
78001F
F8001F
F8001E
F8001E
F8001E
F8003E
F8003E
F8003E
F8007C
F8007C
7C00F8
7C01F0
3E03F0
3FDFE0
1FFFC0
07FF00
01FC00
ENDCHAR
STARTCHAR uni020D
ENCODING 525
SWIDTH 451 0
DWIDTH 14 0
BBX 18 27 1 0
BITMAP
E38000
F38000
F7C000
F3C000
7BC000
79E000
38E000
38E000
1C7000
0C6000
000000
000000
07C000
1FE000
3FF000
7FF000
79F800
F1FFC0
F0FFC0
F0FFC0
F07F00
F07000
F8F000
7DF000
7FE000
3FC000
0F8000
ENDCHAR
STARTCHAR uni020E
ENCODING 526
SWIDTH 816 0
DWIDTH 26 0
BBX 24 35 2 0
BITMAP
003FC0
007FF0
00FFF0
00F0F8
00E078
00C030
000000
000000
003F80
01FFE0
03FFF0
07FBF8
0FC0FC
1F007C
3E003E
3E003E
7C001E
7C001E
78001F
F8001F
F8001E
F8001E
F8001E
F8003E
F8003E
F8003E
F8007C
F8007C
7C00F8
7C01F0
3E03F0
3FDFE0
1FFFC0
07FF00
01FC00
ENDCHAR
STARTCHAR uni020F
ENCODING 527
SWIDTH 451 0
DWIDTH 14 0
BBX 18 24 1 0
BITMAP
0FF000
1FF800
3FFC00
3C7C00
783C00
781C00
301C00
000000
000000
07C000
1FE000
3FF000
7FF000
79F800
F1FFC0
F0FFC0
F0FFC0
F07F00
F07000
F8F000
7DF000
7FE000
3FC000
0F8000
ENDCHAR
STARTCHAR uni0210
ENCODING 528
SWIDTH 880 0
DWIDTH 28 0
BBX 30 37 2 0
BITMAP
00410000
00F38000
00F3C000
00F3C000
0071C000
0079E000
0038E000
00186000
00000000
00000000
001FE000
00FFF800
03FFFC00
07FBFE00
0F803E00
1F003F00
3C381F00
3C3C1F00
787C1F00
787C1F00
70783E00
F0783E00
F0787C00
E0FFF800
E3FFE000
E3FF8000
E3FFC000
E0F3E000
E0F1F000
E1F1F000
F1F0F80C
F1E0F80C
71E07C1C
7FE07FFC
3FE03FF8
1FC01FE0
07800FC0
ENDCHAR
STARTCHAR uni0211
ENCODING 529
SWIDTH 455 0
DWIDTH 15 0
BBX 17 27 2 0
BITMAP
E38000
F38000
F7C000
F3C000
73C000
79E000
38E000
38E000
1C7000
086000
000000
000000
387000
79F800
73F800
F3F800
F7F000
FEF180
FEF380
ECFF80
FC7F00
F87E00
F80000
F00000
F00000
F00000
600000
ENDCHAR
STARTCHAR uni0212
ENCODING 530
SWIDTH 880 0
DWIDTH 28 0
BBX 30 35 2 0
BITMAP
001FE000
003FF800
007FF800
00787C00
00F03C00
00601800
00000000
00000000
001FE000
00FFF800
03FFFC00
07FBFE00
0F803E00
1F003F00
3C381F00
3C3C1F00
787C1F00
787C1F00
70783E00
F0783E00
F0787C00
E0FFF800
E3FFE000
E3FF8000
E3FFC000
E0F3E000
E0F1F000
E1F1F000
F1F0F80C
F1E0F80C
71E07C1C
7FE07FFC
3FE03FF8
1FC01FE0
07800FC0
ENDCHAR
STARTCHAR uni0213
ENCODING 531
SWIDTH 455 0
DWIDTH 15 0
BBX 17 24 2 0
BITMAP
0FF000
1FF800
3FFC00
3C7C00
783C00
781C00
301C00
000000
000000
387000
79F800
73F800
F3F800
F7F000
FEF180
FEF380
ECFF80
FC7F00
F87E00
F80000
F00000
F00000
F00000
600000
ENDCHAR
STARTCHAR uni0214
ENCODING 532
SWIDTH 890 0
DWIDTH 28 0
BBX 33 37 0 0
BITMAP
0008200000
001C700000
001EF00000
001E780000
000E780000
000E380000
00071C0000
0006180000
0000000000
0000000000
03E001C000
0FF003E000
1FF003E000
3FF803E000
78F803E000
F0F803C000
E0F803C000
C0F007C000
00F007C000
01F007C000
01F007C000
01F0078000
01E00F8000
01E00F8000
03E00F8000
03E01F8000
03E01F8000
03C03F8000
07C03F0000
07C07F0000
07C06F0100
07C0EF0380
07C1CF8700
07FF8FDF00
03FF0FFE00
01FE07FC00
00F801F000
ENDCHAR
STARTCHAR uni0215
ENCODING 533
SWIDTH 462 0
DWIDTH 15 0
BBX 17 27 2 0
BITMAP
E38000
F38000
F3C000
F3C000
7BC000
79E000
38E000
38E000
1C7000
0C6000
000000
000000
387000
78F000
78F000
F0F000
F1E000
F1E000
F1E000
F3E080
E3E180
E7C380
FFC780
FDFF00
FDFE00
F9FC00
70F000
ENDCHAR
STARTCHAR uni0216
ENCODING 534
SWIDTH 890 0
DWIDTH 28 0
BBX 33 35 0 0
BITMAP
0003FC0000
0007FE0000
000FFF0000
001F0F0000
001E070000
001C070000
0000000000
0000000000
03E001C000
0FF003E000
1FF003E000
3FF803E000
78F803E000
F0F803C000
E0F803C000
C0F007C000
00F007C000
01F007C000
01F007C000
01F0078000
01E00F8000
01E00F8000
03E00F8000
03E01F8000
03E01F8000
03C03F8000
07C03F0000
07C07F0000
07C06F0100
07C0EF0380
07C1CF8700
07FF8FDF00
03FF0FFE00
01FE07FC00
00F801F000
ENDCHAR
STARTCHAR uni0217
ENCODING 535
SWIDTH 462 0
DWIDTH 15 0
BBX 17 24 2 0
BITMAP
0FF000
1FF800
3FFC00
3C7C00
783C00
781C00
301C00
000000
000000
387000
78F000
78F000
F0F000
F1E000
F1E000
F1E000
F3E080
E3E180
E7C380
FFC780
FDFF00
FDFE00
F9FC00
70F000
ENDCHAR
STARTCHAR uni0218
ENCODING 536
SWIDTH 693 0
DWIDTH 22 0
BBX 21 36 1 -9
BITMAP
007F00
03FFE0
07FFF0
0FF7F8
1F00F8
1E0078
3E0078
3E0078
3E0078
1F0070
1F8000
0FE000
0FFC00
03FF00
00FFC0
003FE0
0007E0
7003F0
F001F0
F000F0
F001F0
F001F0
F803E0
7FBFE0
7FFFC0
1FFF00
07FC00
000000
000000
00C000
01E000
01E000
01E000
01C000
01C000
01C000
ENDCHAR
STARTCHAR uni0219
ENCODING 537
SWIDTH 427 0
DWIDTH 14 0
BBX 18 25 0 -10
BITMAP
01C000
03C000
078000
078000
0F8000
0FC000
1FE000
1FE000
39F0C0
78F1C0
70F3C0
E7FF80
CFFF00
0FFE00
0FFC00
07C000
000000
038000
078000
078000
078000
070000
070000
070000
060000
ENDCHAR
STARTCHAR uni021A
ENCODING 538
SWIDTH 697 0
DWIDTH 22 0
BBX 28 36 1 -9
BITMAP
007FFFE0
07FFFFF0
1FFFFFF0
7FFF83E0
7C0F0000
F00F0000
F00F0000
F01F0000
F01F0000
781F0000
701E0000
001E0000
003E0000
003E0000
003E0000
003E0000
003C0000
003C0000
007C0000
007C0000
007C0000
007C0000
007C0000
00780000
00780000
00780000
00780000
00000000
00000000
00700000
00700000
00F00000
00F00000
00F00000
00E00000
00600000
ENDCHAR
STARTCHAR uni021B
ENCODING 539
SWIDTH 393 0
DWIDTH 13 0
BBX 17 38 0 -10
BITMAP
007800
00FC00
01FC00
03DC00
039C00
079C00
071C00
073800
0F3800
0F3800
0E7000
0EE000
1FC000
FFFC00
FFFC00
FFFC00
1E0000
1E0000
1E0000
1E0000
1E0000
1E0180
1E0380
1F0780
0FFF00
0FFE00
07FC00
01F000
000000
000000
038000
038000
078000
078000
078000
070000
070000
030000
ENDCHAR
STARTCHAR uni022A
ENCODING 554
SWIDTH 816 0
DWIDTH 26 0
BBX 24 39 2 0
BITMAP
003FF0
007FF0
003FE0
000000
000000
0070E0
00F9F0
00F9F0
00F9F0
0070E0
000000
000000
003F80
01FFE0
03FFF0
07FBF8
0FC0FC
1F007C
3E003E
3E003E
7C001E
7C001E
78001F
F8001F
F8001E
F8001E
F8001E
F8003E
F8003E
F8003E
F8007C
F8007C
7C00F8
7C01F0
3E03F0
3FDFE0
1FFFC0
07FF00
01FC00
ENDCHAR
STARTCHAR uni022B
ENCODING 555
SWIDTH 451 0
DWIDTH 14 0
BBX 18 27 1 0
BITMAP
1FFC00
1FF800
0FF800
000000
000000
1C3800
3E7800
3E7800
3E7800
1C7800
000000
000000
07C000
1FE000
3FF000
7FF000
79F800
F1FFC0
F0FFC0
F0FFC0
F07F00
F07000
F8F000
7DF000
7FE000
3FC000
0F8000
ENDCHAR
STARTCHAR uni022C
ENCODING 556
SWIDTH 816 0
DWIDTH 26 0
BBX 24 41 2 0
BITMAP
003FF0
003FF0
003FE0
000000
000000
001000
007C38
00FE38
00FF78
01EFF0
01C3F0
0081E0
000000
000000
003F80
01FFE0
03FFF0
07FBF8
0FC0FC
1F007C
3E003E
3E003E
7C001E
7C001E
78001F
F8001F
F8001E
F8001E
F8001E
F8003E
F8003E
F8003E
F8007C
F8007C
7C00F8
7C01F0
3E03F0
3FDFE0
1FFFC0
07FF00
01FC00
ENDCHAR
STARTCHAR uni022D
ENCODING 557
SWIDTH 451 0
DWIDTH 14 0
BBX 18 29 1 0
BITMAP
0FFC00
1FFC00
0FF800
000000
000000
040000
1E0E00
3F9E00
3FDC00
7BFC00
70F800
207000
000000
000000
07C000
1FE000
3FF000
7FF000
79F800
F1FFC0
F0FFC0
F0FFC0
F07F00
F07000
F8F000
7DF000
7FE000
3FC000
0F8000
ENDCHAR
STARTCHAR uni0230
ENCODING 560
SWIDTH 816 0
DWIDTH 26 0
BBX 24 39 2 0
BITMAP
003FF0
003FF0
003FE0
000000
000000
000F00
001F80
001F80
001F80
000F00
000000
000000
003F80
01FFE0
03FFF0
07FBF8
0FC0FC
1F007C
3E003E
3E003E
7C001E
7C001E
78001F
F8001F
F8001E
F8001E
F8001E
F8003E
F8003E
F8003E
F8007C
F8007C
7C00F8
7C01F0
3E03F0
3FDFE0
1FFFC0
07FF00
01FC00
ENDCHAR
STARTCHAR uni0231
ENCODING 561
SWIDTH 451 0
DWIDTH 14 0
BBX 18 27 1 0
BITMAP
1FFC00
1FF800
0FF800
000000
000000
03C000
07C000
07E000
07C000
038000
000000
000000
07C000
1FE000
3FF000
7FF000
79F800
F1FFC0
F0FFC0
F0FFC0
F07F00
F07000
F8F000
7DF000
7FE000
3FC000
0F8000
ENDCHAR
STARTCHAR uni0232
ENCODING 562
SWIDTH 851 0
DWIDTH 27 0
BBX 31 42 0 -10
BITMAP
0007FE00
0007FE00
0007FC00
00000000
00000000
03E001C0
0FF003E0
3FF003E0
3FF803E0
78F803E0
F0F803C0
E0F803C0
C0F007C0
00F007C0
01F007C0
01F007C0
01F00FC0
01E00F80
01E00F80
03E01F80
03E01F80
03E03F80
03E07780
03E0FF80
03E1EF00
01FFCF1E
01FF8FFE
00FF1FFC
00007FF0
0003FF00
0007FE00
001F9E00
003E1E00
00781E00
00703E00
00F03C00
00F03C00
00F07800
00F0F800
00FFF000
007FE000
003F8000
ENDCHAR
STARTCHAR uni0233
ENCODING 563
SWIDTH 479 0
DWIDTH 15 0
BBX 19 35 0 -15
BITMAP
07FE00
0FFE00
07FC00
000000
000000
0E1C00
1E3C00
1E3C00
3C3C00
3C7C00
3C7800
3C7800
38F840
38F8E0
39F9E0
3FFFC0
3FFF80
3F7F00
3E7C00
1CF800
01F000
03F000
07E000
0FE000
1DE000
39E000
79C000
71C000
E3C000
E38000
E78000
FF0000
FF0000
7E0000
3C0000
ENDCHAR
STARTCHAR uni0237
ENCODING 567
SWIDTH 254 0
DWIDTH 8 0
BBX 19 30 -7 -15
BITMAP
003C00
003C00
003C00
007800
007800
007800
007800
007800
0078C0
0079E0
0073C0
007F80
00FF00
00FC00
00F800
01F000
03F000
07E000
0FE000
1DE000
39E000
79C000
73C000
E3C000
E38000
E78000
FF0000
FF0000
FE0000
7C0000
ENDCHAR
STARTCHAR uni0259
ENCODING 601
SWIDTH 458 0
DWIDTH 15 0
BBX 13 15 1 0
BITMAP
1F80
7FE0
7FF0
7BF0
00F8
0078
0078
7FF8
FFF8
FFF8
F070
7FF0
7FE0
3FE0
1F80
ENDCHAR
STARTCHAR uni02BC
ENCODING 700
SWIDTH 600 0
DWIDTH 19 0
BBX 5 8 8 17
BITMAP
70
78
78
70
70
70
E0
60
ENDCHAR
STARTCHAR circumflex
ENCODING 710
SWIDTH 600 0
DWIDTH 19 0
BBX 11 11 4 17
BITMAP
0100
0780
0F80
0FC0
1DC0
3DC0
39C0
79E0
71E0
F0E0
60E0
ENDCHAR
STARTCHAR caron
ENCODING 711
SWIDTH 600 0
DWIDTH 19 0
BBX 10 11 6 17
BITMAP
4080
E1C0
E1C0
E3C0
F380
F780
7700
7E00
7E00
7C00
3800
ENDCHAR
STARTCHAR uni02C9
ENCODING 713
SWIDTH 600 0
DWIDTH 19 0
BBX 10 3 5 17
BITMAP
FFC0
FFC0
FF80
ENDCHAR
STARTCHAR breve
ENCODING 728
SWIDTH 600 0
DWIDTH 19 0
BBX 13 7 4 17
BITMAP
E030
E078
F0F8
FFF0
FFE0
7FC0
1F80
ENDCHAR
STARTCHAR dotaccent
ENCODING 729
SWIDTH 600 0
DWIDTH 19 0
BBX 6 5 7 17
BITMAP
78
FC
FC
FC
78
ENDCHAR
STARTCHAR ring
ENCODING 730
SWIDTH 600 0
DWIDTH 19 0
BBX 9 9 6 17
BITMAP
3C00
7F00
FF00
E700
E380
E700
FF00
7E00
3C00
ENDCHAR
STARTCHAR ogonek
ENCODING 731
SWIDTH 600 0
DWIDTH 19 0
BBX 9 10 4 -8
BITMAP
1800
3C00
7800
7000
F000
F000
F900
7F80
7F80
1F00
ENDCHAR
STARTCHAR tilde
ENCODING 732
SWIDTH 600 0
DWIDTH 19 0
BBX 14 7 3 17
BITMAP
0800
3E1C
7F1C
7FBC
F7F8
E1F0
40E0
ENDCHAR
STARTCHAR hungarumlaut
ENCODING 733
SWIDTH 600 0
DWIDTH 19 0
BBX 12 10 6 17
BITMAP
38E0
3CE0
7DF0
79E0
79E0
73C0
F380
E380
C700
C300
ENDCHAR
STARTCHAR gravecomb
ENCODING 768
SWIDTH 0 0
DWIDTH 0 0
BBX 7 10 -15 17
BITMAP
40
E0
F0
F0
78
78
3C
1C
0E
04
ENDCHAR
STARTCHAR acutecomb
ENCODING 769
SWIDTH 0 0
DWIDTH 0 0
BBX 7 10 -11 17
BITMAP
04
0E
1E
1E
3C
3C
78
70
E0
40
ENDCHAR
STARTCHAR uni0302
ENCODING 770
SWIDTH 0 0
DWIDTH 0 0
BBX 11 11 -15 17
BITMAP
0200
0780
0F80
1FC0
1DC0
3DC0
39C0
79C0
F1E0
F1E0
E0C0
ENDCHAR
STARTCHAR tildecomb
ENCODING 771
SWIDTH 0 0
DWIDTH 0 0
BBX 14 7 -16 17
BITMAP
0800
3C1C
7F1C
7FB8
F7F8
E1F0
40E0
ENDCHAR
STARTCHAR uni0304
ENCODING 772
SWIDTH 0 0
DWIDTH 0 0
BBX 11 3 -15 17
BITMAP
7FE0
FFE0
7FC0
ENDCHAR
STARTCHAR uni0306
ENCODING 774
SWIDTH 0 0
DWIDTH 0 0
BBX 13 7 -16 17
BITMAP
6018
F038
F878
7FF8
7FF0
3FE0
0FC0
ENDCHAR
STARTCHAR uni0307
ENCODING 775
SWIDTH 0 0
DWIDTH 0 0
BBX 6 5 -12 17
BITMAP
78
F8
FC
F8
70
ENDCHAR
STARTCHAR uni0308
ENCODING 776
SWIDTH 0 0
DWIDTH 0 0
BBX 11 5 -15 17
BITMAP
70E0
F9E0
F9E0
F9E0
71E0
ENDCHAR
STARTCHAR hookabovecomb
ENCODING 777
SWIDTH 0 0
DWIDTH 0 0
BBX 7 9 -12 17
BITMAP
F8
FC
FE
0E
0E
0E
7E
7C
78
ENDCHAR
STARTCHAR uni030A
ENCODING 778
SWIDTH 0 0
DWIDTH 0 0
BBX 8 9 -13 17
BITMAP
3C
7E
FF
E7
E7
E7
FF
7E
3C
ENDCHAR
STARTCHAR uni030B
ENCODING 779
SWIDTH 0 0
DWIDTH 0 0
BBX 12 10 -14 17
BITMAP
1C70
1CF0
3EF0
3CF0
3DE0
79E0
71C0
71C0
E380
6300
ENDCHAR
STARTCHAR uni030C
ENCODING 780
SWIDTH 0 0
DWIDTH 0 0
BBX 11 11 -14 17
BITMAP
2040
70E0
F1E0
71E0
73C0
7380
7F80
3F00
3F00
3E00
1C00
ENDCHAR
STARTCHAR uni030F
ENCODING 783
SWIDTH 0 0
DWIDTH 0 0
BBX 12 10 -17 17
BITMAP
E380
F380
F3C0
F3C0
79C0
79E0
38E0
38E0
1C70
0C60
ENDCHAR
STARTCHAR uni0311
ENCODING 785
SWIDTH 0 0
DWIDTH 0 0
BBX 13 7 -16 17
BITMAP
1FE0
3FF0
7FF8
7878
F078
F038
6038
ENDCHAR
STARTCHAR uni0312
ENCODING 786
SWIDTH 0 0
DWIDTH 0 0
BBX 4 8 -11 17
BITMAP
70
70
F0
F0
F0
E0
E0
60
ENDCHAR
STARTCHAR uni031B
ENCODING 795
SWIDTH 0 0
DWIDTH 0 0
BBX 6 8 -10 12
BITMAP
08
1C
3C
38
F8
F8
F0
C0
ENDCHAR
STARTCHAR dotbelowcomb
ENCODING 803
SWIDTH 0 0
DWIDTH 0 0
BBX 6 5 -15 -7
BITMAP
78
FC
FC
F8
78
ENDCHAR
STARTCHAR uni0324
ENCODING 804
SWIDTH 0 0
DWIDTH 0 0
BBX 12 5 -18 -7
BITMAP
70E0
F9E0
F9F0
F9E0
71E0
ENDCHAR
STARTCHAR uni0326
ENCODING 806
SWIDTH 0 0
DWIDTH 0 0
BBX 4 8 -14 -10
BITMAP
60
F0
F0
F0
E0
E0
E0
C0
ENDCHAR
STARTCHAR uni0327
ENCODING 807
SWIDTH 0 0
DWIDTH 0 0
BBX 9 9 -17 -8
BITMAP
3E00
7F00
3F80
0380
0380
1F80
FF00
FE00
FC00
ENDCHAR
STARTCHAR uni0328
ENCODING 808
SWIDTH 0 0
DWIDTH 0 0
BBX 9 10 -15 -8
BITMAP
1800
3C00
7000
7000
E000
F000
F900
FF80
7F00
3E00
ENDCHAR
STARTCHAR uni032E
ENCODING 814
SWIDTH 0 0
DWIDTH 0 0
BBX 13 7 -19 -9
BITMAP
E038
F038
F078
FDF8
7FF0
3FE0
0F80
ENDCHAR
STARTCHAR uni0331
ENCODING 817
SWIDTH 0 0
DWIDTH 0 0
BBX 10 3 -17 -5
BITMAP
FFC0
FFC0
FFC0
ENDCHAR
STARTCHAR uni0394
ENCODING 916
SWIDTH 700 0
DWIDTH 22 0
BBX 19 28 1 0
BITMAP
001C00
003C00
003E00
003E00
007E00
007E00
00FE00
00FF00
01EF00
01EF00
01C700
03C700
03C700
078780
078780
0F0780
0F0380
0E0380
1E03C0
1E03C0
3C03C0
3C03C0
7801C0
7801E0
7FFFE0
FFFFE0
FFFFE0
FFFFE0
ENDCHAR
STARTCHAR uni03A9
ENCODING 937
SWIDTH 816 0
DWIDTH 26 0
BBX 27 28 -1 0
BITMAP
0007F000
001FFC00
007FFE00
00FFFF00
01FC3F80
03F00F80
03E007C0
07C007C0
078007C0
0F8003C0
0F8003E0
0F0003E0
1F0003E0
1F0003C0
1F0003C0
1F0003C0
1F0007C0
1F0007C0
1F000780
1F000F80
0F000F00
0F801F00
0F803E00
07C07C00
7FE0FFC0
FFF1FFE0
FFF1FFC0
7FE1FFC0
ENDCHAR
STARTCHAR uni03BC
ENCODING 956
SWIDTH 462 0
DWIDTH 15 0
BBX 18 24 1 -9
BITMAP
081000
3C3800
3C7800
387800
787000
78F000
78F000
79F000
71F0C0
F3E1C0
FFF3C0
FEFF80
FEFF00
FCFE00
F87800
F00000
F00000
F00000
F00000
F00000
F00000
F00000
F00000
E00000
ENDCHAR
STARTCHAR pi
ENCODING 960
SWIDTH 496 0
DWIDTH 16 0
BBX 19 16 1 0
BITMAP
FFFF80
FFFF80
FFFF00
3C3C00
787800
787800
787800
787800
787860
787060
F8F0E0
F079E0
F07FC0
F07F80
F07F00
F03E00
ENDCHAR
STARTCHAR uni0400
ENCODING 1024
SWIDTH 686 0
DWIDTH 22 0
BBX 25 37 1 0
BITMAP
01000000
03800000
07E00000
03F00000
01F80000
00FC0000
003E0000
000E0000
00000000
00000000
003FC000
01FFF000
03FFF800
07FBF800
0FC07C00
1F803C00
1F003C00
1F007C00
1F007800
1F003800
0FC00000
07FC0000
01FC0000
0FFC0000
1FF00000
3E000000
7C000000
F8000000
F8000000
F8000000
F8000000
F8000180
7E000F80
7FF7FF80
3FFFFF00
0FFFFC00
01FFC000
ENDCHAR
STARTCHAR uni0401
ENCODING 1025
SWIDTH 686 0
DWIDTH 22 0
BBX 25 34 1 0
BITMAP
0038F000
0078F000
007DF000
0078F000
0078E000
00000000
00000000
003FC000
01FFF000
03FFF800
07FBF800
0FC07C00
1F803C00
1F003C00
1F007C00
1F007800
1F003800
0FC00000
07FC0000
01FC0000
0FFC0000
1FF00000
3E000000
7C000000
F8000000
F8000000
F8000000
F8000000
F8000180
7E000F80
7FF7FF80
3FFFFF00
0FFFFC00
01FFC000
ENDCHAR
STARTCHAR uni0402
ENCODING 1026
SWIDTH 974 0
DWIDTH 31 0
BBX 34 42 1 -15
BITMAP
007FFFE000
07FFFFF000
1FFFFFF000
3FEF81E000
7C0F800000
F00F000000
F01F000000
F01F000000
F01F000000
F81F000000
781E000000
301E000000
003E1F8000
003E7FE000
003EFFE000
003FFFF000
003FE1F000
003F80F000
007E00F000
007E00F080
007C01F1C0
007C01F7C0
007C01FF80
007801FF00
007801FE00
007801FC00
007801F000
000007E000
00000FE000
00001FC000
00003FC000
00007BC000
0000F7C000
0001E78000
0001C78000
0003CF0000
0003CF0000
00038F0000
0003FE0000
0003FC0000
0003F80000
0000F00000
ENDCHAR
STARTCHAR uni0403
ENCODING 1027
SWIDTH 635 0
DWIDTH 20 0
BBX 26 37 1 0
BITMAP
00002000
00007800
0000F800
0003F800
0007F000
000FC000
001F0000
001C0000
00000000
00000000
00FFFFC0
0FFFFFC0
3FFFFFC0
7FFC0000
7C7C0000
F0780000
F0780000
F0F80000
F0F80000
78F80000
70F00000
00F00000
00F00000
01F00000
01F00000
01F00000
01E00000
01E00000
01E00000
03E00000
03E00000
03E00000
03E00000
03E00000
03C00000
03C00000
03C00000
ENDCHAR
STARTCHAR uni0404
ENCODING 1028
SWIDTH 687 0
DWIDTH 22 0
BBX 24 27 2 0
BITMAP
003F80
01FFE0
03FFE0
07F3F0
0FC0F0
1F00F0
3E00F0
3E00F0
7C00F0
7C0060
7C0000
F80000
FFFE00
FFFE00
FFFE00
F80000
F80000
F80000
F80000
7C0000
7C0000
7E0002
3F001F
1FF1FF
0FFFFE
03FFF8
00FFC0
ENDCHAR
STARTCHAR uni0405
ENCODING 1029
SWIDTH 693 0
DWIDTH 22 0
BBX 21 27 1 0
BITMAP
007F00
03FFE0
07FFF0
0FF7F8
1F00F8
1E0078
3E0078
3E0078
3E0078
1F0070
1F8000
0FE000
0FFC00
03FF00
00FFC0
003FE0
0007E0
7003F0
F001F0
F000F0
F001F0
F001F0
F803E0
7FBFE0
7FFFC0
1FFF00
07FC00
ENDCHAR
STARTCHAR uni0406
ENCODING 1030
SWIDTH 495 0
DWIDTH 16 0
BBX 19 27 -1 0
BITMAP
07FFC0
0FFFE0
0FFFC0
007C00
007800
007800
00F800
00F800
00F800
00F800
00F000
00F000
00F000
01F000
01F000
01F000
01E000
01E000
01E000
03E000
03E000
03E000
03E000
03C000
7FFE00
FFFE00
7FFC00
ENDCHAR
STARTCHAR uni0407
ENCODING 1031
SWIDTH 495 0
DWIDTH 16 0
BBX 19 34 -1 0
BITMAP
00E380
01E3C0
01F7C0
01E7C0
01E380
000000
000000
07FFC0
0FFFE0
0FFFC0
007C00
007800
007800
00F800
00F800
00F800
00F800
00F000
00F000
00F000
01F000
01F000
01F000
01E000
01E000
01E000
03E000
03E000
03E000
03E000
03C000
7FFE00
FFFE00
7FFC00
ENDCHAR
STARTCHAR uni0408
ENCODING 1032
SWIDTH 743 0
DWIDTH 24 0
BBX 23 30 2 -3
BITMAP
00FFF0
0FFFFC
1FFFFE
3FF3FC
7C00F8
7800F8
F000F8
F000F0
F000F0
7800F0
7801F0
3001F0
0001F0
0007E0
001FE0
007FE0
00FDE0
01F3E0
07E3C0
0783C0
0F03C0
1F0780
1E0780
1E0F80
1E0F00
1E1F00
1E3E00
1FFC00
0FF800
07F000
ENDCHAR
STARTCHAR uni0409
ENCODING 1033
SWIDTH 1158 0
DWIDTH 37 0
BBX 37 27 0 0
BITMAP
00001C0000
00003E0000
00007E0000
00007E0000
00007E0000
0000FE0000
0000FE0000
0000FE0000
0001FE0000
0001FC0000
0001FC3F00
0003FDFFC0
0003FFFFE0
0007BFE7F0
0007BE01F0
0007BC00F8
000F3C00F8
000F3C00F8
001E3E00F8
001E3E00F0
703E3E01F0
F07C1E01F0
F0F81F03E0
7DF80FDFC0
7FF00FFF80
3FE007FF00
0F8001FC00
ENDCHAR
STARTCHAR uni040A
ENCODING 1034
SWIDTH 1182 0
DWIDTH 38 0
BBX 38 27 -1 0
BITMAP
03E001C000
0FF003C000
1FF803C000
3EF803C000
787807C000
707C07C000
E07C078000
4078078000
00780F8000
00780F0000
00780F7FE0
00780FFFF8
00F8FFFFF8
07FFFFC0FC
0FFFFF007C
0FFFDF003C
00F01F003C
01F01E003C
01F01E003C
01E01F007C
01E01F007C
03E01F00F8
03E00F01F8
03C00FEFF0
03C007FFE0
03C003FF80
038000FE00
ENDCHAR
STARTCHAR uni040B
ENCODING 1035
SWIDTH 979 0
DWIDTH 31 0
BBX 34 27 1 0
BITMAP
007FFFE000
07FFFFF000
1FFFFFF000
3FEF81E000
7C0F800000
F00F000000
F01F000000
F01F000000
F01F000000
F81F000000
781E000000
301E000000
003E1F8000
003E7FE000
003EFFF000
003FFFF000
003FE1F000
003F80F000
007E00F000
007E00F000
007C01F040
007C01F0C0
007C01F1C0
007801F7C0
007801FF80
007801FE00
007800FC00
ENDCHAR
STARTCHAR uni040C
ENCODING 1036
SWIDTH 937 0
DWIDTH 30 0
BBX 33 37 1 0
BITMAP
0000002000
000000F000
000001F000
000003F000
000007E000
00000F8000
00001E0000
0000180000
0000000000
0000000000
01FE003800
0FFFC07C00
1FFFC07C00
3FDFC07800
3C0F00F800
780F00F000
780F01F000
781F01E000
781F03E000
3C1F07C000
381F0F8000
001E1F0000
001FFE0000
00FFF80000
00FFE00000
00FFF80000
003EFC0000
003C7C0000
003C3E0000
003C3E0000
E07C1F0180
E07C1F0380
F0F80F8780
FFF80FFF00
7FF007FE00
3FE003FC00
1F8001F000
ENDCHAR
STARTCHAR uni040D
ENCODING 1037
SWIDTH 890 0
DWIDTH 28 0
BBX 33 37 0 0
BITMAP
0020000000
0070000000
00FC000000
007E000000
003F000000
001F800000
0007C00000
0001C00000
0000000000
0000000000
03E001C000
0FF003E000
1FF003E000
3FF803E000
78F803E000
F0F803C000
E0F803C000
C0F007C000
00F007C000
01F007C000
01F007C000
01F0078000
01E00F8000
01E00F8000
03E00F8000
03E01F8000
03E01F8000
03C03F8000
07C03F0000
07C07F0000
07C06F0100
07C0EF0380
07C1CF8700
07FF8FDF00
03FF0FFE00
01FE07FC00
00F801F000
ENDCHAR
STARTCHAR uni040E
ENCODING 1038
SWIDTH 824 0
DWIDTH 26 0
BBX 30 44 1 -8
BITMAP
00000E00
001C0E00
001C1E00
001E3C00
001FF800
000FF000
0007E000
00000000
00000000
07C00380
1FE007C0
7FE007C0
FBE007C0
E1F00780
C1E00F80
01E00F80
01E00F80
03E01F80
03E01F80
03C03F00
03C03F00
07C07F00
07C0EF00
03C1EF00
03E7DF00
03FF9E00
01FF1E00
00FC1FF8
00001FFC
00007FF8
0003FFC0
000FFC00
001FFC00
007E3C00
00F83C00
00F03C00
01E07800
01E07800
01C0F000
01E1F000
01F7E000
01FFC000
00FF8000
007E0000
ENDCHAR
STARTCHAR uni040F
ENCODING 1039
SWIDTH 890 0
DWIDTH 28 0
BBX 33 33 0 -6
BITMAP
03E001C000
0FF003E000
3FF003E000
3DF803E000
78F803E000
E0F803C000
E0F803C000
C0F007C000
00F007C000
01F007C000
01F007C000
01F00F8000
01E00F8000
01E00F8000
03E00F8000
03E01F8000
03E01F8000
03C03F8000
07C03F0000
07C07F0000
07C06F0100
07C0EF0380
07C3CF8700
07FF8FDF00
03FF0FFE00
03FE07FC00
00FC01F000
0078000000
00F8000000
00F8000000
00F0000000
00F0000000
00F0000000
ENDCHAR
STARTCHAR uni0410
ENCODING 1040
SWIDTH 786 0
DWIDTH 25 0
BBX 27 27 2 0
BITMAP
0007FE00
003FFF80
00FFFF80
01FF3F00
07F00000
0FC03000
1F807800
1F007800
3E007800
3C00F800
7C00F800
7C00F000
7800F000
F801F000
F801F000
F801F000
F801F000
F803E000
F803E000
F807E000
F807E060
F80FE060
7C1DF0E0
7F7DFFC0
3FF9FFC0
1FF0FF00
07C07E00
ENDCHAR
STARTCHAR uni0411
ENCODING 1041
SWIDTH 917 0
DWIDTH 29 0
BBX 28 28 1 -1
BITMAP
00FFFFC0
0FFFFFC0
3FFFFFC0
7FFE0000
7C3E0000
F03E0000
F03C0000
F03C0000
F07C0000
F87C0000
787C0000
207C0000
007FFF00
00FFFFC0
03FFFFC0
03FC07E0
03F803E0
00F001F0
00F001F0
00F001F0
01F001F0
01F003E0
01F003E0
01F007C0
01F01FC0
01F1FF80
01E3FE00
01E3F800
ENDCHAR
STARTCHAR uni0412
ENCODING 1042
SWIDTH 827 0
DWIDTH 26 0
BBX 27 28 1 -1
BITMAP
003FF000
07FFFE00
1FFFFF80
7FFDFFC0
FE000FC0
F00007E0
C08003E0
03C003E0
03C003E0
07C007C0
07C00FC0
07803F80
0787FE00
0F8FF800
0F8FF000
0F83FC00
0F007E00
0F003E00
1F001E00
1F003E00
1F003E00
1F007E00
1E00FC00
1FBFF800
1FFFF000
1FFFC000
1FFE0000
1E000000
ENDCHAR
STARTCHAR uni0413
ENCODING 1043
SWIDTH 635 0
DWIDTH 20 0
BBX 26 27 1 0
BITMAP
00FFFFC0
0FFFFFC0
3FFFFFC0
7FFC0000
7C7C0000
F0780000
F0780000
F0F80000
F0F80000
78F80000
70F00000
00F00000
00F00000
01F00000
01F00000
01F00000
01E00000
01E00000
01E00000
03E00000
03E00000
03E00000
03E00000
03E00000
03C00000
03C00000
03C00000
ENDCHAR
STARTCHAR uni0414
ENCODING 1044
SWIDTH 964 0
DWIDTH 31 0
BBX 29 27 1 0
BITMAP
000FF800
00FFFF00
03FFFF80
07FC3FC0
0FC007E0
0F0003F0
000801F0
001E00F0
003C00F8
003C00F8
007800F8
007800F8
00F800F8
00F800F8
00F000F8
00F000F8
00F000F8
01F000F0
01F001F0
7FE001F0
FFE003E0
FFF007E0
E1FE0FC0
F7FFFF80
FF9FFF00
FF07FE00
7E01F800
ENDCHAR
STARTCHAR uni0415
ENCODING 1045
SWIDTH 686 0
DWIDTH 22 0
BBX 25 27 1 0
BITMAP
003FC000
01FFF000
03FFF800
07FBF800
0FC07C00
1F803C00
1F003C00
1F007C00
1F007800
1F003800
0FC00000
07FC0000
01FC0000
0FFC0000
1FF00000
3E000000
7C000000
F8000000
F8000000
F8000000
F8000000
F8000180
7E000F80
7FF7FF80
3FFFFF00
0FFFFC00
01FFC000
ENDCHAR
STARTCHAR uni0416
ENCODING 1046
SWIDTH 1234 0
DWIDTH 39 0
BBX 41 27 1 0
BITMAP
01F007007E00
07F80780FF00
0FFC0F81FF80
0F7E0F83EF80
0C3E0F83C700
001E0F07C000
000F0F078000
000F0F0F8000
000F0F1F0000
00079F3F0000
0007DF7E0000
0003FFFC0000
0000FFE00000
0007FFF00000
000FFFF80000
001FBE780000
003E3E7C0000
003E3E3C0000
007C3C3E0000
00783C1E0000
00F83C1F0080
E0F03C1F0180
F1F07C0F8380
FBE07C0FEF80
FFC07C07FF00
7F807C03FE00
3F003800F800
ENDCHAR
STARTCHAR uni0417
ENCODING 1047
SWIDTH 725 0
DWIDTH 23 0
BBX 20 27 2 0
BITMAP
00FE00
03FF80
0FFFC0
1FEFE0
1F03E0
3E03E0
3C01E0
3C03E0
1C03C0
1C03C0
000780
000F00
00FF00
03FFC0
03F3E0
0001F0
0001F0
6001F0
F001F0
F001F0
F001F0
F803E0
F807E0
7F3FC0
7FFF80
1FFE00
07F800
ENDCHAR
STARTCHAR uni0418
ENCODING 1048
SWIDTH 890 0
DWIDTH 28 0
BBX 33 27 0 0
BITMAP
03E001C000
0FF003E000
1FF003E000
3FF803E000
78F803E000
F0F803C000
E0F803C000
C0F007C000
00F007C000
01F007C000
01F007C000
01F0078000
01E00F8000
01E00F8000
03E00F8000
03E01F8000
03E01F8000
03C03F8000
07C03F0000
07C07F0000
07C06F0100
07C0EF0380
07C1CF8700
07FF8FDF00
03FF0FFE00
01FE07FC00
00F801F000
ENDCHAR
STARTCHAR uni0419
ENCODING 1049
SWIDTH 890 0
DWIDTH 28 0
BBX 33 36 0 0
BITMAP
0000030000
000E070000
000F070000
000F1E0000
000FFE0000
0007FC0000
0001F00000
0000000000
0000000000
03E001C000
0FF003E000
1FF003E000
3FF803E000
78F803E000
F0F803C000
E0F803C000
C0F007C000
00F007C000
01F007C000
01F007C000
01F0078000
01E00F8000
01E00F8000
03E00F8000
03E01F8000
03E01F8000
03C03F8000
07C03F0000
07C07F0000
07C06F0100
07C0EF0380
07C1CF8700
07FF8FDF00
03FF0FFE00
01FE07FC00
00F801F000
ENDCHAR
STARTCHAR uni041A
ENCODING 1050
SWIDTH 937 0
DWIDTH 30 0
BBX 33 27 1 0
BITMAP
01FE003800
0FFFC07C00
1FFFC07C00
3FDFC07800
3C0F00F800
780F00F000
780F01F000
781F01E000
781F03E000
3C1F07C000
381F0F8000
001E1F0000
001FFE0000
00FFF80000
00FFE00000
00FFF80000
003EFC0000
003C7C0000
003C3E0000
003C3E0000
E07C1F0180
E07C1F0380
F0F80F8780
FFF80FFF00
7FF007FE00
3FE003FC00
1F8001F000
ENDCHAR
STARTCHAR uni041B
ENCODING 1051
SWIDTH 861 0
DWIDTH 28 0
BBX 32 27 0 0
BITMAP
00001C00
00003E00
00007E00
00007E00
00007E00
0000FE00
0000FE00
0000FE00
0001FE00
0001FC00
0001FC00
0003FC00
0003FC00
0007BC00
0007BC00
0007BC00
000F3C00
000F3E00
001F3E00
001E3E00
603E1E02
F07C1E07
F0F81F0F
7DF81FBE
7FF00FFC
3FE007F8
0F8003E0
ENDCHAR
STARTCHAR uni041C
ENCODING 1052
SWIDTH 1133 0
DWIDTH 36 0
BBX 40 27 0 0
BITMAP
0001E00F00
0003E01F00
0003F01F00
0003F03F00
0007E03F00
0007E07F00
0007E07F00
0007E0FF00
0007E0FF00
000FE0EF00
000FE1EF00
000FF1EF00
000EF3DF00
001EF3DF00
001EF3DF00
001EF79F00
001CF79F00
003CF71F00
003CF71F00
003CFF1F00
60787E0F01
F0787E0F03
F0F07E0F87
7DF07C0FDF
7FE07C07FE
3FC03C03F8
1F003801F0
ENDCHAR
STARTCHAR uni041D
ENCODING 1053
SWIDTH 873 0
DWIDTH 28 0
BBX 33 28 -1 0
BITMAP
0000003C00
03E000FE00
0FF000FE00
1FF801E600
3EF803C600
787803C600
707C078600
E07C078E00
4078078E00
00780F1C00
00780F3C00
00780F7800
00780FF800
00F83FE000
07FFFFC000
0FFFFF0000
0FFFDE0000
00F01E0000
01F01E0000
01F01E0000
01E01E0000
01E01F0180
03E01F0380
03E00F0780
03C00FDF00
03C007FE00
03C003FC00
038001F000
ENDCHAR
STARTCHAR uni041E
ENCODING 1054
SWIDTH 816 0
DWIDTH 26 0
BBX 24 27 2 0
BITMAP
003F80
01FFE0
03FFF0
07FBF8
0FC0FC
1F007C
3E003E
3E003E
7C001E
7C001E
78001F
F8001F
F8001E
F8001E
F8001E
F8003E
F8003E
F8003E
F8007C
F8007C
7C00F8
7C01F0
3E03F0
3FDFE0
1FFFC0
07FF00
01FC00
ENDCHAR
STARTCHAR uni041F
ENCODING 1055
SWIDTH 892 0
DWIDTH 29 0
BBX 32 27 1 0
BITMAP
007FFFE0
07FFFFFE
1FFFFFFF
3FFC03FE
7C7C07C0
F07C07C0
F07C07C0
F07807C0
F0780780
F8F80780
70F80F80
00F80F80
00F00F80
00F00F00
00F00F00
01F01F00
01F01F00
01F01F00
01F01E00
01E01E00
01E01E02
03E01E07
03E01E0F
03E01FBE
03E01FFC
03E00FF8
01C003E0
ENDCHAR
STARTCHAR uni0420
ENCODING 1056
SWIDTH 805 0
DWIDTH 26 0
BBX 25 30 1 -3
BITMAP
000FF000
003FFC00
00FFFE00
01FDFF00
03E01F80
07800F80
0F1E0F80
1E1E0780
1E1E0780
3C3E0F80
3C3E0F80
383E0F80
783C1F00
783C3E00
787CFE00
73FFF800
73FFF000
71FF8000
F0780000
F0780000
F0780000
70F80000
70F80000
70F00000
78F00000
78F00000
3DF00000
3FF00000
1FE00000
0FC00000
ENDCHAR
STARTCHAR uni0421
ENCODING 1057
SWIDTH 686 0
DWIDTH 22 0
BBX 24 27 2 0
BITMAP
003F80
01FFC0
03FFE0
07FFF0
0FC0F0
1F00F0
3E00F0
3E00F0
7C00F0
7C00F0
780060
F80000
F80000
F80000
F80000
F80000
F80000
F80000
F80000
7C0000
7C0000
7E0003
3F001F
1FFBFF
0FFFFE
03FFF8
00FFC0
ENDCHAR
STARTCHAR uni0422
ENCODING 1058
SWIDTH 697 0
DWIDTH 22 0
BBX 28 27 1 0
BITMAP
007FFFE0
07FFFFF0
1FFFFFF0
7FFF83E0
7C0F0000
F00F0000
F00F0000
F01F0000
F01F0000
781F0000
701E0000
001E0000
003E0000
003E0000
003E0000
003E0000
003C0000
003C0000
007C0000
007C0000
007C0000
007C0000
007C0000
00780000
00780000
00780000
00780000
ENDCHAR
STARTCHAR uni0423
ENCODING 1059
SWIDTH 824 0
DWIDTH 26 0
BBX 30 35 1 -8
BITMAP
07C00380
1FE007C0
7FE007C0
FBE007C0
E1F00780
C1E00F80
01E00F80
01E00F80
03E01F80
03E01F80
03C03F00
03C03F00
07C07F00
07C0EF00
03C1EF00
03E7DF00
03FF9E00
01FF1E00
00FC1FF8
00001FFC
00007FF8
0003FFC0
000FFC00
001FFC00
007E3C00
00F83C00
00F03C00
01E07800
01E07800
01C0F000
01E1F000
01F7E000
01FFC000
00FF8000
007E0000
ENDCHAR
STARTCHAR uni0424
ENCODING 1060
SWIDTH 977 0
DWIDTH 31 0
BBX 29 39 2 -8
BITMAP
0C000000
1F000000
1FFFF000
0FFFF000
07FFF000
0001F000
0003C000
0003C000
03F3C7C0
07FBCFE0
1FFF9FF0
1FBFBDF0
3E0FF0F0
7C07E0F8
7C07C0F8
7807C0F8
F80F80F8
F80F00F8
F80F00F0
F00F00F0
F01F01F0
F03F01F0
F03F01E0
F07F03E0
F9FF87C0
FFDFFF80
7F9FFF00
3F1EFE00
001E0000
003E0000
003C0000
103C0000
383C0000
38780000
3C780000
3EF00000
1FF00000
1FE00000
07800000
ENDCHAR
STARTCHAR uni0425
ENCODING 1061
SWIDTH 712 0
DWIDTH 23 0
BBX 27 27 0 0
BITMAP
07C00700
1FE00F80
3FF01F00
7FF83E00
F0F87C00
E07CFC00
007CF800
003DF000
003FE000
003FC000
003F8000
001F0000
001F0000
003F0000
007F0000
00FF0000
01FF8000
03EF8000
07C78000
0FC78000
1F87C060
1F07C0E0
3E03E1E0
7C03F7C0
FC01FF80
F800FF00
F0007C00
ENDCHAR
STARTCHAR uni0426
ENCODING 1062
SWIDTH 890 0
DWIDTH 28 0
BBX 32 38 0 -11
BITMAP
03E001C0
0FF003E0
3FF003E0
7DF803E0
78F803E0
E0F803C0
E0F803C0
40F007C0
00F007C0
01F007C0
01F007C0
01F00F80
01E00F80
01E00F80
03E01F80
03E01F80
03E01F80
03C03F80
07C03F00
07C07F00
07C0EF00
07C1EF81
07E3CFE7
07FF8FFF
03FF0FFF
01FE07FC
00F800F8
000003E0
00000FE0
00001FE0
00007DE0
0000F1C0
0000F3C0
0000F3C0
0001F780
0000FF80
0000FF00
00007C00
ENDCHAR
STARTCHAR uni0427
ENCODING 1063
SWIDTH 773 0
DWIDTH 25 0
BBX 20 27 4 0
BITMAP
3800E0
7801F0
7C01F0
7C01F0
7C01E0
7801E0
7801E0
F803E0
F803E0
F803E0
F007E0
F007E0
F00FC0
F01FC0
F87FC0
FFFBC0
FFF3C0
7FE3C0
1F87C0
0007C0
000780
000780
000780
000780
000780
000780
000700
ENDCHAR
STARTCHAR uni0428
ENCODING 1064
SWIDTH 1272 0
DWIDTH 41 0
BBX 45 27 0 0
BITMAP
03E003801C00
0FF003C01E00
3FF003C03E00
7DF807C03E00
78F807C03E00
E0F807C03E00
E0F807803E00
40F007803C00
00F007807C00
01F00F807C00
01F00F807C00
01F00F007C00
01E00F00FC00
01E01F00F800
03E01F00F800
03E03E01F800
03E03E01F800
03C03E03F800
07C07E03F800
07C07E07F800
07C0FE06F018
07C1DE0EF038
07E3DE1CF878
07FF9FFCFDF0
03FF1FF87FE0
03FE0FF07FC0
00F807C01F00
ENDCHAR
STARTCHAR uni0429
ENCODING 1065
SWIDTH 1272 0
DWIDTH 41 0
BBX 45 38 0 -11
BITMAP
03E003801C00
0FF003C01E00
3FF003C03E00
7DF807C03E00
78F807C03E00
E0F807C03E00
E0F807803C00
40F007803C00
00F007807C00
01F00F807C00
01F00F807C00
01F00F007C00
01E00F00F800
01E01F00F800
03E01F00F800
03E03E01F800
03E03E01F800
03C03E03F800
07C07E03F800
07C07E07F800
07C0FE06F000
07C1DE0EF810
07E39E1CFF38
07FF9FFCFFF8
03FF1FF87FF0
03FE0FF03FC0
00F807C00F80
000000003E00
00000000FE00
00000001FE00
00000007DE00
000000079E00
0000000F1C00
0000000F3C00
0000000F7800
0000000FF800
0000000FF000
00000003C000
ENDCHAR
STARTCHAR uni042A
ENCODING 1066
SWIDTH 863 0
DWIDTH 28 0
BBX 23 27 4 0
BITMAP
001000
43F800
FFFC00
FFF800
FFF000
01E000
01E000
03C000
03C000
07DFE0
07FFF8
07FFFC
3FF1FE
7F803E
7F003E
3F001E
0F001E
0F001E
0F003E
0F003E
0F803C
0F807C
0780F8
07E7F0
03FFE0
01FFC0
007E00
ENDCHAR
STARTCHAR uni042B
ENCODING 1067
SWIDTH 1078 0
DWIDTH 35 0
BBX 32 27 1 0
BITMAP
03800007
07C0000F
07C0000F
0780000F
0780000F
0F80001F
0F00001F
0F00001F
0F00001F
1F7F801E
1FFFE01E
1FFFF01E
7FE7F83E
FE00F83E
FE007C3E
5E007C3C
3E007C3C
3E007C3C
3E00787C
1E00787C
1E00F87C
1E01F07C
1F03F078
0FDFE078
0FFFC078
07FF0078
01FC0070
ENDCHAR
STARTCHAR uni042C
ENCODING 1068
SWIDTH 721 0
DWIDTH 23 0
BBX 22 27 1 0
BITMAP
038000
07C000
07C000
078000
078000
0F8000
0F0000
0F0000
0F0000
1F7F80
1FFFE0
1FFFF0
7FE7F8
FE00F8
FE007C
5E007C
3E007C
3E007C
3E0078
1E0078
1E00F8
1E01F0
1F03F0
0FDFE0
0FFFC0
07FF00
01FC00
ENDCHAR
STARTCHAR uni042D
ENCODING 1069
SWIDTH 755 0
DWIDTH 24 0
BBX 23 27 1 0
BITMAP
00FF00
03FFC0
0FFFE0
1FC7F0
3E01F8
3C00F8
38007C
00007C
00007C
00003C
00003E
00003E
03FFFE
03FFFC
03FFFC
00003C
00007C
00007C
700078
7800F8
F800F0
F801F0
7807E0
7F1FC0
3FFF80
1FFE00
07F800
ENDCHAR
STARTCHAR uni042E
ENCODING 1070
SWIDTH 1246 0
DWIDTH 40 0
BBX 40 27 -1 0
BITMAP
03E00003C0
0FF001E7F0
1FF803F3F8
3EF807F1FC
78780F707E
707C1EF03E
E07C1EE01F
40781FE01F
00783FE01F
00783FC01F
00787F800F
00787F000F
00FBFE000F
07FFFC001F
0FFFF8001F
0FFE78001F
00F078001F
01F07C001E
01F07C003E
01E07C003C
01E03C007C
03E03E00F8
03E03F01F0
03C01FCFF0
03C00FFFC0
03C007FF80
038001FC00
ENDCHAR
STARTCHAR uni042F
ENCODING 1071
SWIDTH 850 0
DWIDTH 27 0
BBX 31 27 0 0
BITMAP
000FF380
003FFF80
00FFFF80
01FC7F80
01F00780
03E00F80
03E00F80
03C00F80
03C00F80
03C01F00
03E01F00
03E03F00
01F83F00
01FFFF00
00FFFF00
003FFE00
0001FE00
0001FE00
0003DE00
00079E00
600F1E06
F01F1E06
F03E1E0E
FDFC1F3C
7FF80FFC
3FE00FF0
0F8007E0
ENDCHAR
STARTCHAR uni0430
ENCODING 1072
SWIDTH 470 0
DWIDTH 15 0
BBX 18 15 1 0
BITMAP
03C000
0FF000
1FF800
3FF800
3C7800
7C7000
78F000
F0F000
F0F0C0
F0F1C0
F1F3C0
FFF780
7F7F00
7F7E00
3C3C00
ENDCHAR
STARTCHAR uni0431
ENCODING 1073
SWIDTH 473 0
DWIDTH 15 0
BBX 18 30 1 0
BITMAP
000400
003C00
03FC00
0FFC00
1FF800
1F0000
1C0000
1E0000
1E0000
0F0000
0F8000
07C000
03E000
01E000
00F000
07F800
1FF800
3FF800
7EF800
78F800
78F9C0
F0FFC0
F07FC0
F07F80
F0F000
F0F000
7BF000
7FE000
3FC000
1F0000
ENDCHAR
STARTCHAR uni0432
ENCODING 1074
SWIDTH 473 0
DWIDTH 15 0
BBX 17 30 2 0
BITMAP
01C000
07E000
0FE000
0FF000
1E7000
1C7000
3C7000
3CE000
38E000
78E000
79C000
79C000
7B8000
F38000
F70000
F78000
FFE000
FFE000
F9F000
F9F000
F1FF80
F1FF80
F0FF80
F07F00
F07000
F0F000
7FE000
7FE000
3FC000
1F0000
ENDCHAR
STARTCHAR uni0433
ENCODING 1075
SWIDTH 380 0
DWIDTH 12 0
BBX 15 15 1 0
BITMAP
1F80
7FC0
7FE0
7BE0
01E0
03C0
0F80
3F00
7C06
700E
F01E
FCFC
FFF8
7FF0
1FC0
ENDCHAR
STARTCHAR uni0434
ENCODING 1076
SWIDTH 479 0
DWIDTH 15 0
BBX 19 30 0 -15
BITMAP
01E000
07F800
0FFC00
1FFC00
1E3C00
3C3800
3C7800
787800
787860
7879E0
78FFE0
7FFFC0
3FFF00
3F7E00
1EF800
01F000
03F000
07E000
0FE000
1FE000
3DE000
79C000
71C000
E3C000
E38000
E78000
FF0000
FF0000
7E0000
3C0000
ENDCHAR
STARTCHAR uni0435
ENCODING 1077
SWIDTH 393 0
DWIDTH 13 0
BBX 16 15 1 0
BITMAP
0780
1FE0
3FE0
7FE0
78E0
F0E0
F1E0
F7C0
FF83
FE0F
F81E
7EFE
7FFC
3FF0
0FC0
ENDCHAR
STARTCHAR uni0436
ENCODING 1078
SWIDTH 717 0
DWIDTH 23 0
BBX 26 15 1 0
BITMAP
1E1C7C00
3F3CFE00
3FBDFE00
3BBBFE00
3BFB8E00
01FB8E00
01FF8C00
01FF8000
F3FF80C0
E3BF81C0
E3BF83C0
F73BEF80
FF39FF00
FE38FE00
7C307C00
ENDCHAR
STARTCHAR uni0437
ENCODING 1079
SWIDTH 435 0
DWIDTH 14 0
BBX 18 30 -1 -15
BITMAP
03F000
0FF800
0FF800
1F7C00
0C1C00
003C00
003800
007800
01F000
0FE0C0
1F83C0
1E07C0
1F9F00
0FFE00
03F800
01F000
03E000
0FE000
1EE000
3CE000
39E000
71E000
F1E000
E3C000
E3C000
E78000
EF8000
FF0000
FE0000
780000
ENDCHAR
STARTCHAR uni0438
ENCODING 1080
SWIDTH 462 0
DWIDTH 15 0
BBX 17 15 2 0
BITMAP
387000
78F000
78F000
F0F000
F1E000
F1E000
F1E000
F3E080
E3E180
E7C380
FFC780
FDFF00
FDFE00
F9FC00
70F000
ENDCHAR
STARTCHAR uni0439
ENCODING 1081
SWIDTH 462 0
DWIDTH 15 0
BBX 17 24 2 0
BITMAP
001800
381800
783800
7CF800
3FF000
3FE000
0F8000
000000
000000
387000
78F000
78F000
F0F000
F1E000
F1E000
F1E000
F3E080
E3E180
E7C380
FFC780
FDFF00
FDFE00
F9FC00
70F000
ENDCHAR
STARTCHAR uni043A
ENCODING 1082
SWIDTH 465 0
DWIDTH 15 0
BBX 17 15 2 0
BITMAP
38F000
79F800
73FC00
F7FC00
F71C00
FF1C00
FF1800
EE0000
FE0180
FF0380
FF0780
F7DF00
F7FE00
F3FC00
60F800
ENDCHAR
STARTCHAR uni043B
ENCODING 1083
SWIDTH 549 0
DWIDTH 18 0
BBX 21 15 0 0
BITMAP
003C00
003E00
007E00
007E00
00FE00
00FE00
01FE00
21FE00
71DE18
F3DE38
F79E38
FF9FF0
FF1FF0
7E0FC0
3C0780
ENDCHAR
STARTCHAR uni043C
ENCODING 1084
SWIDTH 734 0
DWIDTH 23 0
BBX 28 15 0 0
BITMAP
00783800
00787C00
00F8FC00
00F8FC00
00F9FC00
01F9FC00
01FBB800
31FBB800
73DBB820
F39F3870
F79F3CE0
F79E3DE0
FF1E3FC0
7E1E1F80
3C0C1E00
ENDCHAR
STARTCHAR uni043D
ENCODING 1085
SWIDTH 475 0
DWIDTH 15 0
BBX 17 15 2 0
BITMAP
387000
787000
707000
F0F000
F0F000
F0F000
FFE000
FFE000
FFE180
E1E180
E1E380
E1EF00
E1FE00
E0FC00
60F800
ENDCHAR
STARTCHAR uni043E
ENCODING 1086
SWIDTH 451 0
DWIDTH 14 0
BBX 18 15 1 0
BITMAP
07C000
1FE000
3FF000
7FF000
79F800
F1FFC0
F0FFC0
F0FFC0
F07F00
F07000
F8F000
7DF000
7FE000
3FC000
0F8000
ENDCHAR
STARTCHAR uni043F
ENCODING 1087
SWIDTH 496 0
DWIDTH 16 0
BBX 18 15 2 0
BITMAP
387000
79F800
73F800
F3F800
F7F000
FEF000
FEF000
FCF000
F8F0C0
F8E1C0
F8E3C0
F0F780
F0FF00
F0FE00
607800
ENDCHAR
STARTCHAR uni0440
ENCODING 1088
SWIDTH 481 0
DWIDTH 15 0
BBX 24 30 -4 -15
BITMAP
01CF00
03DF80
03FFC0
03FFC0
03E3C0
03C3C0
03C3C0
03C3C0
03C3C2
07C787
07CF8E
0FDFBE
0FFFFC
1FFFF8
1FF3E0
3BC000
3BC000
33C000
738000
738000
738000
678000
E78000
E78000
E70000
E70000
FF0000
FE0000
7E0000
380000
ENDCHAR
STARTCHAR uni0441
ENCODING 1089
SWIDTH 368 0
DWIDTH 12 0
BBX 15 15 1 0
BITMAP
0780
1FC0
3FE0
7FE0
78E0
F9E0
F0C0
F000
F006
F00E
F83E
7EFC
7FF8
3FF0
0FC0
ENDCHAR
STARTCHAR uni0442
ENCODING 1090
SWIDTH 744 0
DWIDTH 24 0
BBX 26 15 2 0
BITMAP
38707000
79F1F800
73F3F800
F7F7F800
F7F7F000
FEFEF000
FCFCF000
FCFCF000
F8F8F0C0
F8F8E1C0
F8F8E3C0
F0F1FF80
F0F0FF00
F0F0FE00
60E07800
ENDCHAR
STARTCHAR uni0443
ENCODING 1091
SWIDTH 479 0
DWIDTH 15 0
BBX 19 30 0 -15
BITMAP
0E1C00
1E3C00
1E3C00
3C3C00
3C7C00
3C7800
3C7800
38F840
38F8E0
39F9E0
3FFFC0
3FFF80
3F7F00
3E7C00
1CF800
01F000
03F000
07E000
0FE000
1DE000
39E000
79C000
71C000
E3C000
E38000
E78000
FF0000
FF0000
7E0000
3C0000
ENDCHAR
STARTCHAR uni0444
ENCODING 1092
SWIDTH 721 0
DWIDTH 23 0
BBX 26 36 1 -10
BITMAP
00040000
001E0000
001E0000
001E0000
001E0000
003C0000
003C0000
003C0000
003C0000
00380000
00380000
03F9E000
0FFBF000
1FFFF000
3E7CF800
3C7C7800
78787800
78F87800
F0F8F800
F0F8F0C0
F0F0F1C0
F1F1E3C0
FBF3E780
7FFFFF00
7EFFFE00
3CFE7800
00F00000
00E00000
00E00000
00E00000
00E00000
00E00000
00E00000
00E00000
00E00000
00E00000
ENDCHAR
STARTCHAR uni0445
ENCODING 1093
SWIDTH 529 0
DWIDTH 17 0
BBX 20 15 1 0
BITMAP
1E0F00
3FBF00
3FFF00
3FF700
3BF700
31E700
01E000
01E000
73E030
E3E070
E3E0F0
FFFBE0
FFFFC0
FEFF80
783E00
ENDCHAR
STARTCHAR uni0446
ENCODING 1094
SWIDTH 501 0
DWIDTH 16 0
BBX 17 25 2 -10
BITMAP
387000
78F000
78F000
F0F000
F1E000
F1E000
F1E000
F3E000
E3C000
E7C180
FFE380
FDFF80
FDFF00
F8FE00
70F800
03F000
07F000
0FE000
1CE000
3CE000
39C000
3BC000
3F8000
3F8000
1E0000
ENDCHAR
STARTCHAR uni0447
ENCODING 1095
SWIDTH 555 0
DWIDTH 18 0
BBX 22 18 0 0
BITMAP
008000
03C000
03E000
03FFC0
077FC0
077FC0
070F80
0F1F00
0E3E00
1E7C00
1CF804
38F00C
79E01C
F1E07C
E1FBF8
C0FFF0
00FFC0
003F00
ENDCHAR
STARTCHAR uni0448
ENCODING 1096
SWIDTH 693 0
DWIDTH 22 0
BBX 24 15 2 0
BITMAP
3870E0
78F0E0
78F0E0
F0F1E0
F1E1E0
F1E3E0
F1E3C0
F3E3C1
E3E7C3
E7EFC7
FFFFCF
FFFFDE
FDFBFC
F8F9F8
70F1F0
ENDCHAR
STARTCHAR uni0449
ENCODING 1097
SWIDTH 732 0
DWIDTH 23 0
BBX 25 25 2 -10
BITMAP
3870E000
78F0E000
78F0E000
F0F1E000
F1E1E000
F1E3C000
F1E3C000
F3E3C000
E3E7C000
E7EFC180
FFFFC780
FFFFEF00
FDF9FE00
F8F9FC00
70F1F000
0003E000
0007E000
001EE000
003DC000
0039C000
0071C000
007F8000
007F8000
003F0000
001E0000
ENDCHAR
STARTCHAR uni044A
ENCODING 1098
SWIDTH 542 0
DWIDTH 17 0
BBX 20 16 1 0
BITMAP
600000
FF8000
FFC000
3F8000
1E0000
3EF000
3FFC00
3FFC00
3F7C00
7C3E10
7C3C30
3C3C70
3E7DF0
3FFFE0
1FFF80
07FF00
ENDCHAR
STARTCHAR uni044B
ENCODING 1099
SWIDTH 702 0
DWIDTH 22 0
BBX 25 15 2 0
BITMAP
3800E000
7801E000
7801E000
F801E000
F3C3E000
F7E7E000
FFF7C000
FDFFC000
F07FC100
F07FC380
F0FBC700
F9F3FF00
7FE1FE00
7FC1FC00
1F00F000
ENDCHAR
STARTCHAR uni044C
ENCODING 1100
SWIDTH 517 0
DWIDTH 17 0
BBX 19 15 2 0
BITMAP
380000
780000
780000
F80000
F3E000
F7F000
FFF000
FDF800
F07860
F078E0
F0F1C0
F9F7C0
7FFF80
7FFF00
1FFC00
ENDCHAR
STARTCHAR uni044D
ENCODING 1101
SWIDTH 466 0
DWIDTH 15 0
BBX 18 15 1 0
BITMAP
1FC000
3FF000
7FF000
39F800
007800
0079C0
07FFC0
07FFC0
67FF80
E07800
F07800
F9F800
7FF000
7FE000
1F8000
ENDCHAR
STARTCHAR uni044E
ENCODING 1102
SWIDTH 676 0
DWIDTH 22 0
BBX 24 15 2 0
BITMAP
381F00
787F80
70FFC0
F1FFC0
F1E7E0
F1E7EF
FFC3FF
FFC3FF
FFC1FE
E3C1E0
E1E1C0
E1F7C0
E1FF80
E0FF00
603E00
ENDCHAR
STARTCHAR uni044F
ENCODING 1103
SWIDTH 543 0
DWIDTH 17 0
BBX 22 15 0 0
BITMAP
00FB00
03FF80
07FF00
078700
070700
070F00
078E00
33FE00
71FE18
F07E1C
F0EE38
FBEFF8
FFCFF0
7F8FE0
3E0780
ENDCHAR
STARTCHAR uni0450
ENCODING 1104
SWIDTH 393 0
DWIDTH 13 0
BBX 16 27 1 0
BITMAP
1000
3800
3C00
3C00
1E00
1E00
0F00
0700
0380
0100
0000
0000
0780
1FE0
3FE0
7FE0
78E0
F0E0
F1E0
F7C0
FF83
FE0F
F81E
7EFE
7FFC
3FF0
0FC0
ENDCHAR
STARTCHAR uni0451
ENCODING 1105
SWIDTH 393 0
DWIDTH 13 0
BBX 16 22 1 0
BITMAP
1C38
3E78
3E7C
3E78
1C78
0000
0000
0780
1FE0
3FE0
7FE0
78E0
F0E0
F1E0
F7C0
FF83
FE0F
F81E
7EFE
7FFC
3FF0
0FC0
ENDCHAR
STARTCHAR uni0452
ENCODING 1106
SWIDTH 514 0
DWIDTH 16 0
BBX 19 42 1 -15
BITMAP
020000
078000
0F0000
0F0000
1F0000
7FF800
7FF800
7FF800
1E0000
3E0000
3C0000
3C0000
3C3800
3CFC00
7CFC00
79FC00
7BFC00
7B3C00
7F7800
7E7800
7E7860
7C79E0
7C7BE0
7C7FC0
787F00
787E00
30F800
00F000
03F000
07F000
0FE000
1EE000
3DE000
39E000
71C000
73C000
E3C000
E78000
FF8000
FF0000
7E0000
3C0000
ENDCHAR
STARTCHAR uni0453
ENCODING 1107
SWIDTH 380 0
DWIDTH 12 0
BBX 15 27 1 0
BITMAP
0040
00F0
00F0
01F0
01E0
03C0
0380
0780
0700
0600
0000
0000
1F80
7FC0
7FE0
7BE0
01E0
03C0
0F80
3F00
7C06
700E
F01E
FCFC
FFF8
7FF0
1FC0
ENDCHAR
STARTCHAR uni0454
ENCODING 1108
SWIDTH 379 0
DWIDTH 12 0
BBX 15 15 1 0
BITMAP
0FC0
1FE0
3FF0
7EF0
7870
F800
FF80
FF80
FF06
F00E
F81E
7EFC
7FF8
3FF0
0FC0
ENDCHAR
STARTCHAR uni0455
ENCODING 1109
SWIDTH 427 0
DWIDTH 14 0
BBX 18 16 0 -1
BITMAP
01C000
03C000
078000
078000
0F8000
0FC000
1FE000
1FE000
39F0C0
78F1C0
70F3C0
E7FF80
CFFF00
0FFE00
0FFC00
07C000
ENDCHAR
STARTCHAR uni0456
ENCODING 1110
SWIDTH 246 0
DWIDTH 8 0
BBX 11 22 1 0
BITMAP
1E00
3F00
3F00
3E00
1E00
0000
0000
3C00
3C00
3C00
7800
7800
7800
7800
7800
7060
F0E0
71E0
7BC0
7F80
7F00
3C00
ENDCHAR
STARTCHAR uni0457
ENCODING 1111
SWIDTH 246 0
DWIDTH 8 0
BBX 12 22 0 0
BITMAP
70E0
F9E0
F9E0
F9E0
71C0
0000
0000
1E00
1E00
1E00
3C00
3C00
3C00
3C00
3C00
3830
7870
38F0
3DE0
3FC0
3F80
1E00
ENDCHAR
STARTCHAR uni0458
ENCODING 1112
SWIDTH 254 0
DWIDTH 8 0
BBX 19 37 -7 -15
BITMAP
003C00
003E00
007E00
007E00
003C00
000000
000000
003C00
003C00
003C00
007800
007800
007800
007800
007800
0078C0
0079E0
0073C0
007F80
00FF00
00FC00
00F800
01F000
03F000
07E000
0FE000
1DE000
39E000
79C000
73C000
E3C000
E38000
E78000
FF0000
FF0000
FE0000
7C0000
ENDCHAR
STARTCHAR uni0459
ENCODING 1113
SWIDTH 794 0
DWIDTH 25 0
BBX 30 15 0 0
BITMAP
003C0000
003E0000
007E0000
007E0000
00FE7800
00FFFE00
01FFFE00
21FFBE00
71DE0F08
F3DE1F1C
F79E1E38
FF9F3EF8
FF0FFFF0
7E0FFFC0
3C03FF80
ENDCHAR
STARTCHAR uni045A
ENCODING 1114
SWIDTH 751 0
DWIDTH 24 0
BBX 26 15 2 0
BITMAP
38780000
78780000
70F00000
F0F00000
F0F3C000
F0FFE000
FFFFF000
FFFDF000
FFF0F0C0
E1E0F1C0
E0E0F3C0
E0FBF780
E0FFFF00
E07FFE00
601F7C00
ENDCHAR
STARTCHAR uni045B
ENCODING 1115
SWIDTH 502 0
DWIDTH 16 0
BBX 18 27 2 0
BITMAP
0E0000
1F0000
1E0000
1E0000
3E0000
FFF000
FFF000
FFF000
3C0000
7C0000
780000
780000
787000
79F800
F9F800
F3F800
F7F800
F67000
FEF000
FCF000
FCF0C0
F8F1C0
F8F3C0
F8F780
F0FF00
F0FE00
607800
ENDCHAR
STARTCHAR uni045C
ENCODING 1116
SWIDTH 465 0
DWIDTH 15 0
BBX 17 27 2 0
BITMAP
001000
007800
007800
007800
00F000
00F000
01E000
01C000
038000
030000
000000
000000
38F000
79F800
73FC00
F7FC00
F71C00
FF1C00
FF1800
EE0000
FE0180
FF0380
FF0780
F7DF00
F7FE00
F3FC00
60F800
ENDCHAR
STARTCHAR uni045D
ENCODING 1117
SWIDTH 462 0
DWIDTH 15 0
BBX 17 27 2 0
BITMAP
100000
380000
3C0000
3C0000
1E0000
1E0000
0F0000
070000
038000
030000
000000
000000
387000
78F000
78F000
F0F000
F1E000
F1E000
F1E000
F3E080
E3E180
E7C380
FFC780
FDFF00
FDFE00
F9FC00
70F000
ENDCHAR
STARTCHAR uni045E
ENCODING 1118
SWIDTH 479 0
DWIDTH 15 0
BBX 19 39 0 -15
BITMAP
000600
0E0600
1E0E00
1F3E00
0FFC00
0FF800
03E000
000000
000000
0E1C00
1E3C00
1E3C00
3C3C00
3C7C00
3C7800
3C7800
38F840
38F8E0
39F9E0
3FFFC0
3FFF80
3F7F00
3E7C00
1CF800
01F000
03F000
07E000
0FE000
1DE000
39E000
79C000
71C000
E3C000
E38000
E78000
FF0000
FF0000
7E0000
3C0000
ENDCHAR
STARTCHAR uni045F
ENCODING 1119
SWIDTH 600 0
DWIDTH 19 0
BBX 17 19 2 -4
BITMAP
387000
78F000
78F000
F0F000
F0E000
F1E000
F1E000
F3E000
E3E180
E7C380
FFC780
FFEF00
FDFE00
FDFC00
78F000
780000
700000
700000
300000
ENDCHAR
STARTCHAR uni0462
ENCODING 1122
SWIDTH 721 0
DWIDTH 23 0
BBX 22 27 1 0
BITMAP
038000
07C000
07C000
7FF800
7FF800
7FF000
0F0000
0F0000
0F0000
1F7F80
1FFFE0
1FFFF0
7FE7F8
FE00F8
FE007C
5E007C
3E007C
3E007C
3E0078
1E0078
1E00F8
1E01F0
1F03F0
0FDFE0
0FFFC0
07FF00
01FC00
ENDCHAR
STARTCHAR uni0463
ENCODING 1123
SWIDTH 517 0
DWIDTH 17 0
BBX 21 21 0 0
BITMAP
070000
0F0000
0F0000
1F0000
1F0000
7FE000
FFE000
7FE000
3C0000
3C0000
3CF800
3DFC00
3FFC00
3F7E00
3C1E18
3C1E38
3C3C70
3E7DF0
1FFFE0
1FFFC0
07FF00
ENDCHAR
STARTCHAR uni046A
ENCODING 1130
SWIDTH 1234 0
DWIDTH 39 0
BBX 41 27 1 0
BITMAP
03FFFFFFFE00
07FFFFFFFE00
07FFFFFFFE00
003E0003E000
001E0003C000
001F0007C000
000F00078000
000F000F8000
000F001F0000
0007803F0000
0007C0FE0000
0003FFF80000
0000FFF00000
0007FFF00000
000FFFF80000
001FBE780000
003E3E7C0000
003E3E3C0000
007C3C3E0000
00783C1E0000
00F83C1F0080
E0F03C1F0180
F1F07C0F8380
FBE07C0FEF80
FFC07C07FF00
7F807C03FE00
3F003800F800
ENDCHAR
STARTCHAR uni046B
ENCODING 1131
SWIDTH 788 0
DWIDTH 25 0
BBX 28 27 1 0
BITMAP
0000E000
0001F000
0003F000
0003F000
0003E000
00076000
0007E000
0007E000
0007E000
000EE000
000EE000
000EE000
01DEEF00
03FCFF00
03FCFF00
00FCFC00
0078F000
0078E000
0079E000
00F9E000
70FBE030
E1FBF030
E3FBF070
F7BF7DF0
FFBF7FE0
FE1E3FC0
7C1C1F00
ENDCHAR
STARTCHAR uni0472
ENCODING 1138
SWIDTH 816 0
DWIDTH 26 0
BBX 24 27 2 0
BITMAP
003F80
01FFE0
03FFF0
07F3F8
0F80FC
1F007C
3E003E
3E003E
7C001E
7C001E
78001F
FFE01F
FFFC7E
FFFFFE
FC3FFE
F80FFE
F8003E
F8003E
F8007C
F8007C
7C00F8
7C01F0
3E03F0
3F8FE0
1FFFC0
07FF00
01FC00
ENDCHAR
STARTCHAR uni0473
ENCODING 1139
SWIDTH 451 0
DWIDTH 14 0
BBX 18 15 1 0
BITMAP
07C000
1FE000
3FF000
7CF000
787800
F07FC0
FC7FC0
FFFFC0
FFFF80
F3F800
F8F000
7DF000
7FE000
3FC000
0F0000
ENDCHAR
STARTCHAR uni0474
ENCODING 1140
SWIDTH 797 0
DWIDTH 26 0
BBX 28 27 4 0
BITMAP
38003FC0
78007FE0
78007FF0
78007FE0
F8007C00
F8007800
F800F800
F800F800
F800F800
F800F000
F801F000
F801F000
F801E000
F803E000
F803C000
F803C000
F807C000
F8078000
F80F8000
780F0000
781E0000
7C3E0000
7E7C0000
3FF80000
3FF00000
1FE00000
07800000
ENDCHAR
STARTCHAR uni0475
ENCODING 1141
SWIDTH 420 0
DWIDTH 13 0
BBX 16 15 2 0
BITMAP
E07C
E07F
E0FE
E0F0
E1E0
F1E0
F3C0
F3C0
F780
F780
FF00
FF00
FE00
7C00
7800
ENDCHAR
STARTCHAR uni048A
ENCODING 1162
SWIDTH 890 0
DWIDTH 28 0
BBX 33 44 0 -7
BITMAP
0000020000
0004070000
000E070000
000F0F0000
000FBE0000
000FFE0000
0007FC0000
0001F00000
0000000000
0000000000
03E001C000
0FF003E000
3FF003E000
7DF803E000
78F803E000
E0F803C000
E0F803C000
40F007C000
00F007C000
01F007C000
01F007C000
01F00F8000
01E00F8000
01E00F8000
03E01F8000
03E01F8000
03E01F8000
03C03F8000
07C03F0000
07C07F0000
07C0EF0180
07C1EF0380
07E3CF8F00
07FF8FFF00
03FF0FFE00
01FE07FC00
00F801F800
000000F000
000001E000
000003E000
000003C000
0000078000
0000078000
0000070000
ENDCHAR
STARTCHAR uni048B
ENCODING 1163
SWIDTH 462 0
DWIDTH 15 0
BBX 17 30 2 -5
BITMAP
000800
101800
383800
783800
7CF000
3FF000
1FE000
0F8000
000000
000000
387000
78F000
78F000
F0F000
F1E000
F1E000
F1E000
F3E100
E3E180
E7C380
FFC780
FDFF00
FDFE00
F9FC00
70F800
00F000
00E000
01E000
03C000
038000
ENDCHAR
STARTCHAR uni048C
ENCODING 1164
SWIDTH 721 0
DWIDTH 23 0
BBX 22 27 1 0
BITMAP
038000
07C000
07C000
7FF800
7FF800
7FF000
0F0000
0F0000
0F0000
1F7F80
1FFFE0
1FFFF0
7FE7F8
FE00F8
FE007C
5E007C
3E007C
3E007C
3E0078
1E0078
1E00F8
1E01F0
1F03F0
0FDFE0
0FFFC0
07FF00
01FC00
ENDCHAR
STARTCHAR uni048D
ENCODING 1165
SWIDTH 517 0
DWIDTH 17 0
BBX 21 21 0 0
BITMAP
070000
0F0000
0F0000
1F0000
1F0000
7FE000
FFE000
7FE000
3C0000
3C0000
3CF800
3DFC00
3FFC00
3F7E00
3C1E18
3C1E38
3C3C70
3E7DF0
1FFFE0
1FFFC0
07FF00
ENDCHAR
STARTCHAR uni048E
ENCODING 1166
SWIDTH 805 0
DWIDTH 26 0
BBX 28 31 1 -4
BITMAP
000FF000
003FFC00
00FFFE00
01F8FF00
03E01F80
07800F80
0F1E0F80
1E1E0780
1E1E0780
3C3E7F80
3C3E7F80
383E3F80
783C1FE0
783C3FF0
787CFC60
73FFF800
73FFF000
71FF8000
F0780000
F0780000
F0780000
F0F80000
70F80000
70F80000
78F00000
78F00000
3DF00000
3FF00000
1FE00000
0FE00000
07C00000
ENDCHAR
STARTCHAR uni048F
ENCODING 1167
SWIDTH 481 0
DWIDTH 15 0
BBX 24 30 -4 -15
BITMAP
01CF00
03DF80
03FFC0
03F7C0
03E3C0
03C3C0
03C3C0
03C3C0
03DBC2
07DF87
07DF8E
0FDF3E
0FFFFC
1FFFF8
1FF3E0
3BC000
3BC000
33C000
738000
738000
738000
678000
E78000
E78000
E70000
E70000
FF0000
FE0000
7E0000
380000
ENDCHAR
STARTCHAR uni0490
ENCODING 1168
SWIDTH 645 0
DWIDTH 21 0
BBX 28 35 1 0
BITMAP
00000040
000000E0
000000F0
000000F0
000000E0
000001E0
000001E0
000001E0
00FFFFE0
0FFFFFC0
3FFFFFC0
7FFC0000
7C7C0000
F0780000
F0780000
F0F80000
F0F80000
78F80000
70F00000
00F00000
00F00000
01F00000
01F00000
01F00000
01E00000
01E00000
01E00000
03E00000
03E00000
03E00000
03E00000
03E00000
03C00000
03C00000
03C00000
ENDCHAR
STARTCHAR uni0491
ENCODING 1169
SWIDTH 394 0
DWIDTH 13 0
BBX 12 20 2 0
BITMAP
0060
0070
00F0
00F0
00E0
3FE0
7FE0
7FC0
F000
F000
F000
F000
F000
E000
E000
E000
E000
E000
E000
6000
ENDCHAR
STARTCHAR uni0492
ENCODING 1170
SWIDTH 635 0
DWIDTH 20 0
BBX 26 27 1 0
BITMAP
00FFFFC0
0FFFFFC0
3FFFFFC0
7FFC0000
7C7C0000
F0780000
F0780000
F0F80000
F0F80000
F8F80000
70F00000
00F00000
0FFF0000
0FFF0000
0FFF0000
01F00000
01F00000
01E00000
01E00000
03E00000
03E00000
03E00000
03E00000
03E00000
03C00000
03C00000
03C00000
ENDCHAR
STARTCHAR uni0493
ENCODING 1171
SWIDTH 380 0
DWIDTH 12 0
BBX 16 15 0 0
BITMAP
0FC0
3FE0
3FF0
3DF0
00F0
01E0
E7C0
7F80
3F83
3FC7
780F
7E7E
7FFC
3FF8
0FE0
ENDCHAR
STARTCHAR uni0494
ENCODING 1172
SWIDTH 884 0
DWIDTH 28 0
BBX 31 42 1 -15
BITMAP
00FFFFC0
0FFFFFC0
1FFFFFC0
7FFC0000
7C7C0000
F8780000
F0780000
F0F80000
F0F80000
F8F80000
78F80000
20F00000
00F0FC00
01F3FF00
01F7FF80
01FFFF80
01FF0F80
01FC0780
01F80780
03F00784
03E0078E
03E00FBE
03E00FFE
03E00FFC
03C00FF0
03C00FE0
03C00F80
00003F00
00007F00
0000FF00
0001FE00
0003DE00
0007BE00
000F3C00
000F3C00
001E3C00
001E7800
001E7800
001EF000
001FE000
000FC000
00078000
ENDCHAR
STARTCHAR uni0495
ENCODING 1173
SWIDTH 441 0
DWIDTH 14 0
BBX 16 24 1 -9
BITMAP
1F80
7FC0
7FE0
7BE0
01E0
03C0
0F80
1F00
7C00
7001
F007
FCEF
FFFE
7FFC
3FF0
07E0
0FE0
1DC0
39C0
71C0
7380
7F80
7F00
3E00
ENDCHAR
STARTCHAR uni0496
ENCODING 1174
SWIDTH 1234 0
DWIDTH 39 0
BBX 42 38 1 -11
BITMAP
01F007007E00
07F80780FF00
0FFC0F81FF80
0F7E0F83EF80
0C3E0F83C700
001E0F07C000
000F0F078000
000F0F0F8000
000F0F1F0000
00079F3F0000
0007DF7E0000
0003FFFC0000
0001FFF00000
0007FFF00000
000FFFF80000
001FBE780000
003E3E7C0000
003E3E3C0000
007C3C3E0000
00783C1E0000
00F83C1F0000
E0F03C1F8040
F1F07C0FC9C0
FBE07C07FFC0
FFC07C07FFC0
7F807801FF00
3F003800FE00
00000001F800
00000007F800
0000000FF800
0000001F7800
0000003C7000
0000003CF000
0000007CF000
0000007DE000
0000003FE000
0000003FC000
0000001F0000
ENDCHAR
STARTCHAR uni0497
ENCODING 1175
SWIDTH 803 0
DWIDTH 26 0
BBX 28 25 1 -10
BITMAP
1E1C7C00
3F3CFE00
3FBDFE00
3BBBFE00
3BFB8E00
01FB8E00
01FF8C00
01FF8000
F3FF8000
E3BF8030
E3BF8070
F73BEEF0
FF39FFE0
FE39FFC0
7C307F00
00003C00
0000FC00
0001DC00
00039C00
00073800
00073800
00077800
0007F000
0007E000
0003C000
ENDCHAR
STARTCHAR uni0498
ENCODING 1176
SWIDTH 725 0
DWIDTH 23 0
BBX 20 38 2 -11
BITMAP
00FE00
03FF80
0FFFC0
1FEFE0
1F03E0
3E03E0
3C01E0
3C03E0
1C03C0
1C03C0
000780
000F00
00FF00
03FFC0
03F3E0
0001F0
0001F0
6001F0
F001F0
F001F0
F001F0
F803E0
F807E0
7F3FC0
7FFF80
3FFF00
07FE00
00FE00
03FE00
07DC00
0F9C00
0F3C00
1E3C00
1E3800
1FF800
1FF000
0FE000
07C000
ENDCHAR
STARTCHAR uni0499
ENCODING 1177
SWIDTH 445 0
DWIDTH 14 0
BBX 17 24 1 -9
BITMAP
0FC000
3FE000
7FF000
70F000
70F000
20F000
03E000
0F8000
0FE000
01F100
E0F780
E0EF80
FFFE00
7FFC00
3FF000
03E000
0FC000
1FC000
39C000
39C000
738000
7F8000
3F0000
3E0000
ENDCHAR
STARTCHAR uni049A
ENCODING 1178
SWIDTH 937 0
DWIDTH 30 0
BBX 33 37 1 -10
BITMAP
01FF003800
0FFFC07C00
1FFFC07C00
3F8FC07800
3C0F00F800
780F00F000
780F01F000
781F01E000
781F03E000
3C1F07C000
3C1F0F8000
101E1F0000
001EFE0000
00FFF80000
00FFE00000
00FFF80000
003EFC0000
003C7C0000
003C3E0000
403C3E0000
E07C1F0000
E07C1F0180
F0F80FF780
FDF80FFF80
7FF007FF00
3FE003FC00
0F8001F000
000007F000
00001FE000
00003EE000
00007DE000
0000F9E000
0000F1C000
0000F3C000
0000FF8000
0000FF8000
00007F0000
ENDCHAR
STARTCHAR uni049B
ENCODING 1179
SWIDTH 531 0
DWIDTH 17 0
BBX 18 25 2 -10
BITMAP
38F000
79F800
73FC00
F7FC00
F71C00
FF1C00
FF1800
EE0000
FE0000
FF0040
FF01C0
F79BC0
F7FFC0
F3FF00
60FE00
00F800
03F800
07F000
0E7000
1E7000
1CE000
1DE000
1FC000
1FC000
0F0000
ENDCHAR
STARTCHAR uni049C
ENCODING 1180
SWIDTH 937 0
DWIDTH 30 0
BBX 33 27 1 0
BITMAP
01FF003800
0FFFC07C00
1FFFC07C00
3F8FC07800
3C0F00F800
780F00F000
780F01F000
781F61E000
781F73E000
3C1F77C000
3C1F6F8000
101EFF0000
001EFE0000
00FFF80000
00FFE00000
00FFF80000
003EFC0000
003CFC0000
003CFE0000
003DFE0000
E07DFF0180
E07DDF0380
F0F9DF8780
FDF80FCF00
7FF007FE00
3FE003FC00
1F8001F000
ENDCHAR
STARTCHAR uni049D
ENCODING 1181
SWIDTH 485 0
DWIDTH 16 0
BBX 18 15 2 0
BITMAP
387800
78FC00
71FE00
F3DE00
FB9E00
FB9C00
EB0800
FF0000
FF01C0
FF01C0
FF8380
FFEF80
EBFF00
E1FE00
60F800
ENDCHAR
STARTCHAR uni049E
ENCODING 1182
SWIDTH 937 0
DWIDTH 30 0
BBX 33 27 1 0
BITMAP
01FE003800
07FFC07C00
1FFFC07C00
3F8FC07800
3C0F00F800
780F00F000
780F01F000
78FFE1E000
79FFE3E000
7DFFE7C000
3C1F0F8000
181E1F0000
001EFE0000
00FFF80000
00FFE00000
00FFF80000
003EFC0000
003C7C0000
003C3E0000
003C3E0000
E07C1F0180
E07C1F0380
F0F80F8780
FDF80FCF00
7FF007FE00
3FE003FC00
1F8001F000
ENDCHAR
STARTCHAR uni049F
ENCODING 1183
SWIDTH 473 0
DWIDTH 15 0
BBX 17 27 2 0
BITMAP
0E0000
1E0000
1E0000
1E0000
3E0000
FFF000
FFF000
FFF000
3C0000
7C0000
780000
780000
78F800
79FC00
F3FC00
F7DC00
F79C00
FF1C00
FF1800
FF0000
FF0180
FF0380
FF0780
FFCF00
F3FE00
F1FC00
70F800
ENDCHAR
STARTCHAR uni04A0
ENCODING 1184
SWIDTH 937 0
DWIDTH 30 0
BBX 33 27 1 0
BITMAP
0000003800
103F807C00
3FFFC07C00
3FFFC07800
1FFF00F800
000F00F000
000F01F000
001F01E000
001F03E000
001F07C000
001F0F8000
001E1F0000
001EFE0000
00FFF80000
00FFE00000
00FFF80000
003EFC0000
003C7C0000
003C3E0000
003C3E0000
E07C1F0180
E07C1F0380
F0F80F8780
FDF80FCF00
7FF007FE00
3FE003FC00
1F8001F000
ENDCHAR
STARTCHAR uni04A1
ENCODING 1185
SWIDTH 555 0
DWIDTH 18 0
BBX 21 16 1 0
BITMAP
600000
FF8F00
FF1F80
7F3FC0
0F7BC0
0F71C0
0FF3C0
0EE180
0FE000
1FE018
1FF038
1FF078
0F7DF0
0F7FE0
0F3FC0
0E0F00
ENDCHAR
STARTCHAR uni04A2
ENCODING 1186
SWIDTH 907 0
DWIDTH 29 0
BBX 34 39 -1 -10
BITMAP
0000007C00
000000FE00
03E001FE00
0FF001E600
1FF803C600
3EF803C600
7878078600
707C078E00
E07C078E00
40780F0C00
00780F1C00
00780F3800
00780F7800
00781FE000
00F83FC000
07FFFF0000
0FFFFE0000
0FFFDE0000
00F01E0000
01F01E0000
01F01E0000
01E01E0000
01E01F0000
03E01F00C0
03E00FDBC0
03C00FFFC0
03C007FF80
03C003FE00
038000F800
000003F800
00000FF800
00001F7000
00003E7000
00007CF000
000078F000
000079E000
00007FE000
00007FC000
00003F8000
ENDCHAR
STARTCHAR uni04A3
ENCODING 1187
SWIDTH 515 0
DWIDTH 16 0
BBX 18 25 2 -10
BITMAP
387000
787000
707000
F0F000
F0F000
F0F000
FFE000
FFE000
FFE000
E1E080
E1E1C0
E1F7C0
E1FF80
E0FF00
607C00
01F000
03F000
077000
0E7000
1CE000
1CE000
3FC000
3FC000
1F8000
0F0000
ENDCHAR
STARTCHAR uni04A4
ENCODING 1188
SWIDTH 873 0
DWIDTH 28 0
BBX 37 28 -1 0
BITMAP
0000003FE0
03E000FFF0
0FF000FFF8
1FF801F1F0
3EF803E000
787803C000
707C07C000
E07C078000
4078078000
00780F8000
00780F0000
00780F0000
00780F0000
00F83F0000
07FFFF0000
0FFFFE0000
0FFFDE0000
00F01E0000
01F01E0000
01F01E0000
01E01E0000
01E01F0180
03E01F0380
03E00F0780
03C00FDF00
03C007FE00
03C003FC00
038001F000
ENDCHAR
STARTCHAR uni04A5
ENCODING 1189
SWIDTH 475 0
DWIDTH 15 0
BBX 17 16 2 0
BITMAP
000E00
387E00
787E00
707000
F0F000
F0F000
F0F000
FFE000
FFE000
FFE180
E1E180
E1E380
E1EF00
E1FE00
E0FC00
60F800
ENDCHAR
STARTCHAR uni04A8
ENCODING 1192
SWIDTH 997 0
DWIDTH 32 0
BBX 34 27 2 0
BITMAP
007C000000
01FC000000
03FC1F0000
07F8FFC000
0FC1FFF000
1F83F3F000
3F07C0F800
3E07807800
7C0F807C00
7C0F007C00
781F007C00
F81F003C00
F81F003C00
F81F007C00
F81F007C00
F81F007C00
F81F007C00
F81F00F800
F81F00F800
780F81F000
7C0F83E000
7C07C7C080
3E07FF83C0
1FE3FF3FC0
0FFFFFFF80
07FFFFFE00
00FF8FF000
ENDCHAR
STARTCHAR uni04A9
ENCODING 1193
SWIDTH 574 0
DWIDTH 18 0
BBX 22 15 1 0
BITMAP
070000
1F8000
3F3E00
7C7F00
78FF80
F0E780
F1E380
F1C300
F1C718
F1CF3C
F9FE78
7CFFF8
7FFFF0
3FFFC0
0FBF00
ENDCHAR
STARTCHAR uni04AA
ENCODING 1194
SWIDTH 781 0
DWIDTH 25 0
BBX 26 42 2 -15
BITMAP
003F8000
00FFC000
03FFE000
07F3F000
0F80F000
1F00F000
3E00F000
3E00F000
7C00F000
7C00F000
78006000
F8000000
F8000000
F8000000
F8000000
F8000000
F8000000
F8000000
F8000000
F8000000
7C003040
7C0079C0
3E00F3C0
3FC7F7C0
1FFFFF00
07FFFE00
01FCF800
0001F000
0003E000
0007E000
000FE000
001DE000
0039C000
0071C000
0073C000
00E38000
00E38000
00E78000
00EF0000
00FE0000
00FE0000
00780000
ENDCHAR
STARTCHAR uni04AB
ENCODING 1195
SWIDTH 431 0
DWIDTH 14 0
BBX 16 25 1 -10
BITMAP
0780
1FC0
3FE0
7DE0
78E0
F9E0
F0C0
F000
F000
F003
F807
7EEF
7FFE
3FFC
1FF0
03E0
0FC0
1FC0
39C0
71C0
7380
7780
7F00
7E00
3C00
ENDCHAR
STARTCHAR uni04AC
ENCODING 1196
SWIDTH 697 0
DWIDTH 22 0
BBX 28 37 1 -10
BITMAP
007FFFE0
07FFFFF0
1FFFFFF0
7FEF81E0
780F0000
F00F0000
F01F0000
F01F0000
F01F0000
781F0000
701E0000
001E0000
003E0000
003E0000
003E0000
003C0000
003C0000
003C0000
007C0000
007C0000
007C0000
007C0000
007C0000
007B0000
007F0000
007F0000
007F0000
007F0000
01FF0000
03CE0000
078E0000
079E0000
0F1E0000
0F3C0000
0FFC0000
07F80000
03F00000
ENDCHAR
STARTCHAR uni04AD
ENCODING 1197
SWIDTH 784 0
DWIDTH 25 0
BBX 26 25 2 -10
BITMAP
38707000
79F1F800
73F3F800
F7F7F800
F7F7F000
FEFEF000
FCFCF000
FCFCF000
F8F8F000
F8F8E040
F8F8E1C0
F0F0FBC0
F0F0FF80
F0F07F00
60E07C00
0000F800
0003F800
0007F000
000E7000
000E7000
001CF000
001DE000
001FC000
001FC000
000F0000
ENDCHAR
STARTCHAR uni04AE
ENCODING 1198
SWIDTH 677 0
DWIDTH 22 0
BBX 20 27 4 0
BITMAP
7000E0
F801F0
7803E0
7C03E0
7C07C0
3E0F80
3E0F80
1F1F00
1F1E00
1F3E00
0FFC00
0FF800
07F800
07F000
03F000
03E000
03E000
03E000
03C000
03C000
03C000
03C000
03C000
03C000
03C000
03C000
03C000
ENDCHAR
STARTCHAR uni04AF
ENCODING 1199
SWIDTH 472 0
DWIDTH 15 0
BBX 17 26 2 -11
BITMAP
E07000
E0F800
F1F800
F1F800
F1F800
F1F080
F1FF80
F1FF80
F1FF80
73C000
738000
7F8000
7F0000
7E0000
7C0000
780000
780000
780000
780000
7C0000
3C0000
3C0000
3C0000
3C0000
3C0000
380000
ENDCHAR
STARTCHAR uni04B0
ENCODING 1200
SWIDTH 677 0
DWIDTH 22 0
BBX 20 27 4 0
BITMAP
7000E0
F801F0
7C03E0
7C03C0
3C07C0
3E0F80
3E0F00
1F1F00
1F3E00
0FBC00
0FFC00
07F800
07F000
03F000
03E000
3FFE00
3FFE00
3FFC00
03C000
03C000
03C000
03C000
03C000
03C000
03C000
03C000
03C000
ENDCHAR
STARTCHAR uni04B1
ENCODING 1201
SWIDTH 472 0
DWIDTH 15 0
BBX 19 26 0 -11
BITMAP
381C00
383E00
3C7E00
3C7E00
3C7E00
3C7C20
3C7FE0
3C7FE0
3C7FE0
1CF000
1CE000
1FE000
1FC000
1F8000
1F0000
7FE000
FFE000
7FE000
1E0000
1F0000
0F0000
0F0000
0F0000
0F0000
0F0000
0E0000
ENDCHAR
STARTCHAR uni04B2
ENCODING 1202
SWIDTH 716 0
DWIDTH 23 0
BBX 27 38 0 -11
BITMAP
07C00700
1FE00F80
3FF01F00
79F83E00
F0F87C00
C07CF800
007DF800
003DF000
003FE000
003FC000
003F8000
001F0000
003F0000
003F0000
007F0000
00FF0000
01FF8000
03EF8000
07C78000
0F87C000
1F87C000
1F07C060
3E03E8E0
7C03FFE0
F801FFC0
F800FF80
F0007E00
0001FC00
0003FC00
000FF800
001F3800
001E7800
003C7800
003CF000
003DF000
003FE000
001FC000
000F8000
ENDCHAR
STARTCHAR uni04B3
ENCODING 1203
SWIDTH 601 0
DWIDTH 19 0
BBX 22 25 1 -10
BITMAP
1E0F00
3FBF00
3FFF00
3BF700
3BF700
31E700
01E000
01E000
73E000
E3E008
E3E01C
F7FB78
FFFFF8
FEFFE0
7C7FC0
001F00
003F00
00F700
01EE00
01CE00
039E00
03FC00
03FC00
01F800
01E000
ENDCHAR
STARTCHAR uni04B4
ENCODING 1204
SWIDTH 1040 0
DWIDTH 33 0
BBX 36 38 1 -11
BITMAP
00FFF81C00
0FFFFE3C00
1FFFFE3C00
7FE79C3C00
780F803C00
F00F803C00
F00F007C00
F00F007C00
F01F007C00
781F007800
701F007800
001E00F800
001E00F800
003E00F800
003E01F800
003C01F800
003C03F000
007C03F000
007C07F000
007C06F000
007C0EF000
007C1CF010
007C3CFE70
007FF8FEF0
003FF0FFE0
003FE07FC0
000F801F00
0000003E00
000000FE00
000003FE00
0000079C00
00000F1C00
00000F3C00
00001E3C00
00001F7800
00001FF000
00000FF000
000007C000
ENDCHAR
STARTCHAR uni04B5
ENCODING 1205
SWIDTH 501 0
DWIDTH 16 0
BBX 17 31 2 -10
BITMAP
1FF800
1FF800
1FF800
000000
000000
000000
387000
78F000
78F000
F0F000
F1E000
F1E000
F1E000
F3E000
E3C000
E7C180
FFE380
FDFF80
FDFF00
F8FE00
70F800
03F000
07F000
0FE000
1CE000
3CE000
39C000
3BC000
3F8000
3F8000
1E0000
ENDCHAR
STARTCHAR uni04B6
ENCODING 1206
SWIDTH 804 0
DWIDTH 26 0
BBX 26 38 4 -11
BITMAP
3800E000
7801F000
7C01F000
7C01F000
7C01E000
7C01E000
7801E000
7801E000
F803E000
F803E000
F803E000
F007E000
F007E000
F00FC000
F01FC000
F87FC000
FFFBC000
7FF3C000
7FE3C000
1F87C000
0007C000
00078000
0007E0C0
0007FBC0
0007FF80
0001FF00
00007E00
0001F800
0007F000
000FF000
001FF000
003CF000
0078E000
0079E000
0079E000
007FC000
007FC000
003F0000
ENDCHAR
STARTCHAR uni04B7
ENCODING 1207
SWIDTH 631 0
DWIDTH 20 0
BBX 23 26 0 -9
BITMAP
01C000
03E000
03F3C0
07FFC0
077FC0
073F80
0F0F00
0E1E00
1E7C00
1C7800
3CF000
78E002
F1E00E
E1F9DE
C0FFFC
00FFF8
007FE0
000FC0
001FC0
003B80
007380
00E380
00E700
00FF00
00FE00
007C00
ENDCHAR
STARTCHAR uni04B8
ENCODING 1208
SWIDTH 773 0
DWIDTH 25 0
BBX 20 27 4 0
BITMAP
3800E0
7801F0
7C01F0
7C01F0
7C01E0
7C01E0
7801E0
7801E0
F8C3E0
F9C3E0
F9C3E0
F1C7E0
F1C7C0
F1CFC0
F1DFC0
F9FFC0
FFFBC0
7FF3C0
7FE3C0
1F87C0
038780
038780
030780
000780
000780
000780
000700
ENDCHAR
STARTCHAR uni04B9
ENCODING 1209
SWIDTH 575 0
DWIDTH 18 0
BBX 23 19 0 0
BITMAP
000400
000C00
01DC00
03FC00
03F8E0
07FFE0
077FE0
077FC0
0F6F00
0E1E00
1E3C00
1C7800
3C700E
78F01E
F0F03C
E0FDF8
C0FFF0
007FE0
001F80
ENDCHAR
STARTCHAR uni04BA
ENCODING 1210
SWIDTH 755 0
DWIDTH 24 0
BBX 26 27 2 0
BITMAP
07000000
0F000000
0F000000
0F000000
0F000000
1F000000
1F000000
1F000000
1F000000
1E000000
1E000000
1E000000
3E1F8000
3E7FE000
3EFFE000
3DFFF000
3FC1F000
3F01F000
7E01F000
7C01F000
7C01F040
7C01F0C0
7801E1C0
7801F7C0
7801FF80
F801FE00
7000F800
ENDCHAR
STARTCHAR uni04BB
ENCODING 1211
SWIDTH 502 0
DWIDTH 16 0
BBX 18 30 2 0
BITMAP
01C000
07E000
0FE000
0FF000
1EF000
1C7000
3C7000
3CE000
38E000
78E000
79C000
79C000
738000
770000
F70000
FE7000
FDF800
F9F800
F3F800
F7F800
F67000
FEF000
FCF000
FCF0C0
F8F1C0
F8F3C0
F8F780
F0FF00
F0FE00
E07800
ENDCHAR
STARTCHAR uni04BC
ENCODING 1212
SWIDTH 808 0
DWIDTH 26 0
BBX 28 27 2 0
BITMAP
0003F000
001FFC00
003FFE00
007F7E00
00F81F00
01F00F00
03E00F00
03E00F00
07C00F00
07C00F00
E7800F00
FF800F00
FFFFFF00
FFFFFE00
7FFFFE00
0F800000
0F800000
0F800000
0F800000
0F800000
07C00000
07E00020
03F001F0
01FE1FF0
00FFFFE0
007FFF80
000FF800
ENDCHAR
STARTCHAR uni04BD
ENCODING 1213
SWIDTH 483 0
DWIDTH 15 0
BBX 20 15 0 0
BITMAP
007800
01FC00
03FE00
07DE00
078E00
0F0E00
6F1E00
EF7C00
FFF820
7FE0F0
0F01E0
07EFE0
07FFC0
03FF00
00FC00
ENDCHAR
STARTCHAR uni04BE
ENCODING 1214
SWIDTH 808 0
DWIDTH 26 0
BBX 28 35 2 -8
BITMAP
0003F000
001FFC00
003FFE00
007F7E00
00F81F00
01F00F00
03E00F00
03E00F00
07C00F00
07C00F00
E7800F00
FF800F00
FFFFFF00
FFFFFE00
7FFFFE00
0F800000
0F800000
0F800000
0F800000
0F800000
07C00000
07E00020
03F001F0
01FE1FF0
00FFFFE0
007FFF80
003FFC00
00780000
00700000
00F00000
00F00000
00F00000
00FF8000
007F8000
003F0000
ENDCHAR
STARTCHAR uni04BF
ENCODING 1215
SWIDTH 483 0
DWIDTH 15 0
BBX 20 23 0 -8
BITMAP
007800
01FC00
03FE00
07DE00
078E00
0F0E00
4F1E00
EF3C00
FFF820
7FE070
1F80E0
0F83E0
07FFC0
03FF00
01FE00
007000
00E000
00E000
00E000
00E000
00FF00
007F00
003E00
ENDCHAR
STARTCHAR uni04C0
ENCODING 1216
SWIDTH 495 0
DWIDTH 16 0
BBX 19 27 -1 0
BITMAP
07FFC0
0FFFE0
0FFFC0
007C00
007800
007800
00F800
00F800
00F800
00F800
00F000
00F000
00F000
01F000
01F000
01F000
01E000
01E000
01E000
03E000
03E000
03E000
03E000
03C000
7FFE00
FFFE00
7FFC00
ENDCHAR
STARTCHAR uni04C1
ENCODING 1217
SWIDTH 1234 0
DWIDTH 39 0
BBX 41 36 1 0
BITMAP
0000001C0000
0000381C0000
0000383C0000
00003C780000
00003FF80000
00001FF00000
00000FC00000
000000000000
000000000000
01F007007E00
07F80780FF00
0FFC0F81FF80
0F7E0F83EF80
0C3E0F83C700
001E0F07C000
000F0F078000
000F0F0F8000
000F0F1F0000
00079F3F0000
0007DF7E0000
0003FFFC0000
0000FFE00000
0007FFF00000
000FFFF80000
001FBE780000
003E3E7C0000
003E3E3C0000
007C3C3E0000
00783C1E0000
00F83C1F0080
E0F03C1F0180
F1F07C0F8380
FBE07C0FEF80
FFC07C07FF00
7F807C03FE00
3F003800F800
ENDCHAR
STARTCHAR uni04C2
ENCODING 1218
SWIDTH 717 0
DWIDTH 23 0
BBX 26 24 1 0
BITMAP
00006000
01C0E000
01C1E000
01F7C000
01FF8000
00FF0000
007E0000
00000000
00000000
1E1C7C00
3F3CFE00
3FBDFE00
3BBBFE00
3BFB8E00
01FB8E00
01FF8C00
01FF8000
F3FF80C0
E3BF81C0
E3BF83C0
F73BEF80
FF39FF00
FE38FE00
7C307C00
ENDCHAR
STARTCHAR uni04C3
ENCODING 1219
SWIDTH 937 0
DWIDTH 30 0
BBX 33 37 1 -10
BITMAP
01FF003800
0FFFC07C00
1FFFC07C00
3F8FC07800
3C0F00F800
780F00F000
780F01F000
781F01E000
781F03E000
3C1F07C000
3C1F0F8000
101E1F0000
001EFE0000
00FFF80000
00FFE00000
00FFF80000
003EFC0000
003C7C0000
003C3E0000
403C3E0000
E07C1F0000
E07C1F0180
F0F80FF780
FDF80FFF80
7FF007FF00
3FE003FC00
0F8001F000
000007F000
00001FE000
00003EE000
00007DE000
0000F9E000
0000F1C000
0000F3C000
0000FF8000
0000FF8000
00007F0000
ENDCHAR
STARTCHAR uni04C4
ENCODING 1220
SWIDTH 531 0
DWIDTH 17 0
BBX 18 25 2 -10
BITMAP
38F000
79F800
73FC00
F7FC00
F71C00
FF1C00
FF1800
EE0000
FE0000
FF0040
FF01C0
F79BC0
F7FFC0
F3FF00
60FE00
00F800
03F800
07F000
0E7000
1E7000
1CE000
1DE000
1FC000
1FC000
0F0000
ENDCHAR
STARTCHAR uni04C5
ENCODING 1221
SWIDTH 861 0
DWIDTH 28 0
BBX 32 34 0 -7
BITMAP
00001C00
00003E00
00007E00
00007E00
00007E00
0000FE00
0000FE00
0000FE00
0001FE00
0001FC00
0001FC00
0003FC00
0003FC00
0007BC00
0007BC00
0007BC00
000F3E00
000F3E00
001F3E00
001E3E00
703E1E03
F07C1E07
F0F81F0E
7DF80FFE
7FF00FFC
3FE007F8
0F8003F0
000001E0
000003C0
000007C0
00000780
00000F80
00000F00
00000E00
ENDCHAR
STARTCHAR uni04C6
ENCODING 1222
SWIDTH 549 0
DWIDTH 18 0
BBX 21 21 0 -6
BITMAP
003C00
003E00
007E00
007E00
00FE00
00FE00
01FE00
21FE00
71DE18
F3DE38
F79E38
FF9FF8
FF1FF0
7E0FE0
3C0FC0
000780
000F00
000F00
001E00
001C00
001800
ENDCHAR
STARTCHAR uni04C7
ENCODING 1223
SWIDTH 907 0
DWIDTH 29 0
BBX 34 39 -1 -10
BITMAP
0000007C00
000000FE00
03E001FE00
0FF001E600
1FF803C600
3EF803C600
7878078600
707C078E00
E07C078E00
40780F0C00
00780F1C00
00780F3800
00780F7800
00781FE000
00F83FC000
07FFFF0000
0FFFFE0000
0FFFDE0000
00F01E0000
01F01E0000
01F01E0000
01E01E0000
01E01F0000
03E01F00C0
03E00FDBC0
03C00FFFC0
03C007FF80
03C003FE00
038000F800
000003F800
00000FF800
00001F7000
00003E7000
00007CF000
000078F000
000079E000
00007FE000
00007FC000
00003F8000
ENDCHAR
STARTCHAR uni04C8
ENCODING 1224
SWIDTH 515 0
DWIDTH 16 0
BBX 18 25 2 -10
BITMAP
387000
787000
707000
F0F000
F0F000
F0F000
FFE000
FFE000
FFE000
E1E080
E1E1C0
E1F7C0
E1FF80
E0FF00
607C00
01F000
03F000
077000
0E7000
1CE000
1CE000
3FC000
3FC000
1F8000
0F0000
ENDCHAR
STARTCHAR uni04C9
ENCODING 1225
SWIDTH 873 0
DWIDTH 28 0
BBX 33 36 -1 -7
BITMAP
0000007C00
000000FE00
03E001FE00
0FF001E600
1FF803C600
3EF803C600
7878078600
707C078E00
E07C078E00
40780F0C00
00780F1C00
00780F3800
00780F7800
00781FE000
00F83FC000
07FFFF0000
0FFFFE0000
0FFFDE0000
00F01E0000
01F01E0000
01F01E0000
01E01E0080
01E01F0180
03E01F0380
03E00F8780
03C00FFF00
03C007FE00
03C003FC00
038001F800
000000F000
000001F000
000001E000
000003C000
000007C000
0000078000
0000030000
ENDCHAR
STARTCHAR uni04CA
ENCODING 1226
SWIDTH 475 0
DWIDTH 15 0
BBX 17 20 2 -5
BITMAP
387000
787000
707000
F0F000
F0F000
F0F000
FFE000
FFE000
FFE180
E1E180
E1E380
E1FF00
E1FF00
E0FE00
60F800
007800
00F000
01E000
01E000
01C000
ENDCHAR
STARTCHAR uni04CB
ENCODING 1227
SWIDTH 773 0
DWIDTH 25 0
BBX 20 38 4 -11
BITMAP
3800E0
7801F0
7C01F0
7C01F0
7C01E0
7801E0
7801E0
F803E0
F803E0
F803E0
F007E0
F007E0
F00FC0
F01FC0
F87FC0
FFFBC0
FFF3C0
7FE3C0
1F87C0
0007C0
000780
000780
000780
001F80
003F80
003F80
00FF00
01FC00
07F800
0FB800
1F3800
3E7800
3C7000
3CF000
3FF000
3FE000
1FC000
0F8000
ENDCHAR
STARTCHAR uni04CC
ENCODING 1228
SWIDTH 555 0
DWIDTH 18 0
BBX 22 21 0 -3
BITMAP
008000
03C000
03E000
03FFC0
077FC0
077FC0
070F80
0F1F00
0E3E00
1E7C00
1CF804
38F00C
79E01C
F1E07C
E1FBF8
C0FFF0
00FFC0
003FC0
0003C0
000380
000380
ENDCHAR
STARTCHAR uni04CD
ENCODING 1229
SWIDTH 1133 0
DWIDTH 36 0
BBX 40 34 0 -7
BITMAP
0001E00F00
0003E01F00
0003F01F00
0003F03F00
0007E03F00
0007E07F00
0007E07F00
0007E0FF00
0007E0FF00
000FE0EF00
000FE1EF00
000FF1EF00
000EF3DF00
001EF3DF00
001EF3DF00
001EF79F00
001CF79F00
003CF71F00
003CF71F00
003CFF1F00
60787E0F01
F0787E0F03
F0F07E0F87
7DF07C0FDF
7FE07C07FE
3FC03C03FC
1F003801F8
00000001F0
00000001E0
00000003C0
00000007C0
0000000780
0000000780
0000000700
ENDCHAR
STARTCHAR uni04CE
ENCODING 1230
SWIDTH 734 0
DWIDTH 23 0
BBX 28 21 0 -6
BITMAP
00783800
00787C00
00F8FC00
00F8FC00
00F9FC00
01F9FC00
01FBB800
31FBB800
73DBB820
F39F3870
F79F3CE0
F79E3DE0
FF1E3FC0
7E1E3F80
3C0C1F00
00001E00
00003E00
00003C00
00007800
00007800
00007000
ENDCHAR
STARTCHAR uni04CF
ENCODING 1231
SWIDTH 222 0
DWIDTH 7 0
BBX 8 26 1 0
BITMAP
07
0F
0F
1F
1E
1E
1E
1E
3E
3C
3C
3C
3C
3C
7C
78
78
78
78
78
F8
F0
F0
F0
F0
F0
ENDCHAR
STARTCHAR uni04D0
ENCODING 1232
SWIDTH 786 0
DWIDTH 25 0
BBX 27 36 2 0
BITMAP
00000300
000E0700
000F0700
000F0F00
000FFE00
0007FC00
0003F000
00000000
00000000
0007FE00
003FFF80
00FFFF80
01FF3F00
07F00000
0FC03000
1F807800
1F007800
3E007800
3C00F800
7C00F800
7C00F000
7800F000
F801F000
F801F000
F801F000
F801F000
F803E000
F803E000
F807E000
F807E060
F80FE060
7C1DF0E0
7F7DFFC0
3FF9FFC0
1FF0FF00
07C07E00
ENDCHAR
STARTCHAR uni04D1
ENCODING 1233
SWIDTH 470 0
DWIDTH 15 0
BBX 18 24 1 0
BITMAP
000600
1C0E00
1C1E00
1F7C00
1FF800
0FF000
07E000
000000
000000
03C000
0FF000
1FF800
3FF800
3C7800
7C7000
78F000
F0F000
F0F0C0
F0F1C0
F1F3C0
FFF780
7F7F00
7F7E00
3C3C00
ENDCHAR
STARTCHAR uni04D2
ENCODING 1234
SWIDTH 786 0
DWIDTH 25 0
BBX 27 34 2 0
BITMAP
00071E00
000F9E00
000FBE00
000F1E00
00071C00
00000000
00000000
0007FE00
003FFF80
00FFFF80
01FF3F00
07F00000
0FC03000
1F807800
1F007800
3E007800
3C00F800
7C00F800
7C00F000
7800F000
F801F000
F801F000
F801F000
F801F000
F803E000
F803E000
F807E000
F807E060
F80FE060
7C1DF0E0
7F7DFFC0
3FF9FFC0
1FF0FF00
07C07E00
ENDCHAR
STARTCHAR uni04D3
ENCODING 1235
SWIDTH 470 0
DWIDTH 15 0
BBX 18 22 1 0
BITMAP
0F1C00
0F3E00
0F3E00
0F3E00
0E1C00
000000
000000
03C000
0FF000
1FF800
3FF800
3C7800
7C7000
78F000
F0F000
F0F0C0
F0F1C0
F1F3C0
FFF780
7F7F00
7F7E00
3C3C00
ENDCHAR
STARTCHAR uni04D4
ENCODING 1236
SWIDTH 1015 0
DWIDTH 32 0
BBX 35 27 2 0
BITMAP
000F8FFF00
007F9FFF80
00FF9FFF00
03FF3F8000
07F03C0000
0FC03C0000
1F807C0000
1F007C0000
3E00780000
3E00780000
7C00F80000
7C00F80000
F800FFFC00
F801FFFC00
F801FFFC00
F801F00000
F801F00000
F803F00000
F803F00000
F807F00000
F807F00000
F80FF800C0
7C1EFC03E0
7F7CFFBFC0
3FFC7FFF80
1FF81FFF00
07E007F800
ENDCHAR
STARTCHAR uni04D5
ENCODING 1237
SWIDTH 653 0
DWIDTH 21 0
BBX 24 15 1 0
BITMAP
03E7C0
0FFFE0
1FFFE0
3FFFF0
7C78F0
7878E0
78F1E0
F0F3C0
F0FF83
F0FE07
F1F81F
FBFFFE
7FBFFC
7F1FF8
1E0FC0
ENDCHAR
STARTCHAR uni04D6
ENCODING 1238
SWIDTH 686 0
DWIDTH 22 0
BBX 25 36 1 0
BITMAP
00001800
00703800
00783800
0078F000
007FF000
003FE000
000F8000
00000000
00000000
003FC000
01FFF000
03FFF800
07FBF800
0FC07C00
1F803C00
1F003C00
1F007C00
1F007800
1F003800
0FC00000
07FC0000
01FC0000
0FFC0000
1FF00000
3E000000
7C000000
F8000000
F8000000
F8000000
F8000000
F8000180
7E000F80
7FF7FF80
3FFFFF00
0FFFFC00
01FFC000
ENDCHAR
STARTCHAR uni04D7
ENCODING 1239
SWIDTH 393 0
DWIDTH 13 0
BBX 16 24 1 0
BITMAP
0018
381C
7838
7CF8
3FF0
1FE0
0F80
0000
0000
0780
1FE0
3FE0
7FE0
78E0
F0E0
F1E0
F7C0
FF83
FE0F
F81E
7EFE
7FFC
3FF0
0FC0
ENDCHAR
STARTCHAR uni04D8
ENCODING 1240
SWIDTH 792 0
DWIDTH 25 0
BBX 23 27 2 0
BITMAP
00FF00
03FFC0
0FFFE0
1FEFF0
3E01F8
3C00FC
30007C
00007C
00003E
00003E
00003E
00003E
00003E
7FFFFE
FFFFFC
FFFFFC
F8007C
F8007C
F80078
F800F8
7800F0
7C01F0
7E03E0
3FDFC0
1FFF80
0FFF00
01F800
ENDCHAR
STARTCHAR uni04D9
ENCODING 1241
SWIDTH 455 0
DWIDTH 15 0
BBX 18 15 1 0
BITMAP
1FC000
7FE000
7FF000
79F800
007800
007BC0
7FFFC0
FFFFC0
FFFF80
E07800
E0F800
F9F000
FFF000
7FE000
1F8000
ENDCHAR
STARTCHAR uni04DA
ENCODING 1242
SWIDTH 792 0
DWIDTH 25 0
BBX 23 34 2 0
BITMAP
00E1C0
01F3E0
01F3E0
01F3C0
00E3C0
000000
000000
00FF00
03FFC0
0FFFE0
1FEFF0
3E01F8
3C00FC
30007C
00007C
00003E
00003E
00003E
00003E
00003E
7FFFFE
FFFFFC
FFFFFC
F8007C
F8007C
F80078
F800F8
7800F0
7C01F0
7E03E0
3FDFC0
1FFF80
0FFF00
01F800
ENDCHAR
STARTCHAR uni04DB
ENCODING 1243
SWIDTH 455 0
DWIDTH 15 0
BBX 18 22 1 0
BITMAP
1C3800
3E7800
3E7800
3E7800
1C7800
000000
000000
1FC000
7FE000
7FF000
79F800
007800
007BC0
7FFFC0
FFFFC0
FFFF80
E07800
E0F800
F9F000
FFF000
7FE000
1F8000
ENDCHAR
STARTCHAR uni04DC
ENCODING 1244
SWIDTH 1234 0
DWIDTH 39 0
BBX 41 34 1 0
BITMAP
00001C700000
00003CF80000
00003CF80000
00003CF80000
000038700000
000000000000
000000000000
01F007007E00
07F80780FF00
0FFC0F81FF80
0F7E0F83EF80
0C3E0F83C700
001E0F07C000
000F0F078000
000F0F0F8000
000F0F1F0000
00079F3F0000
0007DF7E0000
0003FFFC0000
0000FFE00000
0007FFF00000
000FFFF80000
001FBE780000
003E3E7C0000
003E3E3C0000
007C3C3E0000
00783C1E0000
00F83C1F0080
E0F03C1F0180
F1F07C0F8380
FBE07C0FEF80
FFC07C07FF00
7F807C03FE00
3F003800F800
ENDCHAR
STARTCHAR uni04DD
ENCODING 1245
SWIDTH 717 0
DWIDTH 23 0
BBX 26 22 1 0
BITMAP
0071C000
00F3E000
00F3E000
00F3E000
00E1C000
00000000
00000000
1E1C7C00
3F3CFE00
3FBDFE00
3BBBFE00
3BFB8E00
01FB8E00
01FF8C00
01FF8000
F3FF80C0
E3BF81C0
E3BF83C0
F73BEF80
FF39FF00
FE38FE00
7C307C00
ENDCHAR
STARTCHAR uni04DE
ENCODING 1246
SWIDTH 725 0
DWIDTH 23 0
BBX 20 34 2 0
BITMAP
00E1C0
01F3C0
01F3E0
01F3C0
00E3C0
000000
000000
00FE00
03FF80
0FFFC0
1FEFE0
1F03E0
3E03E0
3C01E0
3C03E0
1C03C0
1C03C0
000780
000F00
00FF00
03FFC0
03F3E0
0001F0
0001F0
6001F0
F001F0
F001F0
F001F0
F803E0
F807E0
7F3FC0
7FFF80
1FFE00
07F800
ENDCHAR
STARTCHAR uni04DF
ENCODING 1247
SWIDTH 435 0
DWIDTH 14 0
BBX 18 37 -1 -15
BITMAP
0E1C00
1F3C00
1F3C00
1F3C00
0E3C00
000000
000000
03F000
0FF800
0FF800
1F7C00
0C1C00
003C00
003800
007800
01F000
0FE0C0
1F83C0
1E07C0
1F9F00
0FFE00
03F800
01F000
03E000
0FE000
1EE000
3CE000
39E000
71E000
F1E000
E3C000
E3C000
E78000
EF8000
FF0000
FE0000
780000
ENDCHAR
STARTCHAR uni04E0
ENCODING 1248
SWIDTH 744 0
DWIDTH 24 0
BBX 23 27 2 0
BITMAP
01FFC0
07FFFC
1FFFFE
1F87FE
3E00F8
3C00F0
3C01F0
3E03E0
1E03E0
0807C0
000F80
001F00
01FF80
03FFC0
03F3E0
0001F0
0001F0
6001F0
F001F0
F001F0
F001F0
F803E0
F807E0
7F3FC0
7FFF80
1FFE00
07F000
ENDCHAR
STARTCHAR uni04E1
ENCODING 1249
SWIDTH 435 0
DWIDTH 14 0
BBX 18 30 -1 -15
BITMAP
1FFF00
1FFF00
1FFF00
007E00
00FC00
03F000
07C000
0F8000
0F00C0
1E03C0
1E07C0
1F0F80
0FFE00
07FC00
01F000
03E000
07E000
0FE000
1EE000
3CE000
79E000
71E000
F1C000
E3C000
E3C000
E78000
EF8000
FF0000
FE0000
780000
ENDCHAR
STARTCHAR uni04E2
ENCODING 1250
SWIDTH 890 0
DWIDTH 28 0
BBX 33 32 0 0
BITMAP
000FFC0000
000FFC0000
000FFC0000
0000000000
0000000000
03E001C000
0FF003E000
1FF003E000
3FF803E000
78F803E000
F0F803C000
E0F803C000
C0F007C000
00F007C000
01F007C000
01F007C000
01F0078000
01E00F8000
01E00F8000
03E00F8000
03E01F8000
03E01F8000
03C03F8000
07C03F0000
07C07F0000
07C06F0100
07C0EF0380
07C1CF8700
07FF8FDF00
03FF0FFE00
01FE07FC00
00F801F000
ENDCHAR
STARTCHAR uni04E3
ENCODING 1251
SWIDTH 462 0
DWIDTH 15 0
BBX 17 20 2 0
BITMAP
1FF800
3FF800
1FF000
000000
000000
387000
78F000
78F000
F0F000
F1E000
F1E000
F1E000
F3E080
E3E180
E7C380
FFC780
FDFF00
FDFE00
F9FC00
70F000
ENDCHAR
STARTCHAR uni04E4
ENCODING 1252
SWIDTH 890 0
DWIDTH 28 0
BBX 33 34 0 0
BITMAP
00071C0000
000F1E0000
000FBE0000
000F3E0000
000F1C0000
0000000000
0000000000
03E001C000
0FF003E000
1FF003E000
3FF803E000
78F803E000
F0F803C000
E0F803C000
C0F007C000
00F007C000
01F007C000
01F007C000
01F0078000
01E00F8000
01E00F8000
03E00F8000
03E01F8000
03E01F8000
03C03F8000
07C03F0000
07C07F0000
07C06F0100
07C0EF0380
07C1CF8700
07FF8FDF00
03FF0FFE00
01FE07FC00
00F801F000
ENDCHAR
STARTCHAR uni04E5
ENCODING 1253
SWIDTH 462 0
DWIDTH 15 0
BBX 17 22 2 0
BITMAP
1C3800
3E7800
3E7800
3E7800
1C7800
000000
000000
387000
78F000
78F000
F0F000
F1E000
F1E000
F1E000
F3E080
E3E180
E7C380
FFC780
FDFF00
FDFE00
F9FC00
70F000
ENDCHAR
STARTCHAR uni04E6
ENCODING 1254
SWIDTH 816 0
DWIDTH 26 0
BBX 24 34 2 0
BITMAP
0070E0
00F9F0
00F9F0
00F9F0
0070E0
000000
000000
003F80
01FFE0
03FFF0
07FBF8
0FC0FC
1F007C
3E003E
3E003E
7C001E
7C001E
78001F
F8001F
F8001E
F8001E
F8001E
F8003E
F8003E
F8003E
F8007C
F8007C
7C00F8
7C01F0
3E03F0
3FDFE0
1FFFC0
07FF00
01FC00
ENDCHAR
STARTCHAR uni04E7
ENCODING 1255
SWIDTH 451 0
DWIDTH 14 0
BBX 18 22 1 0
BITMAP
1C3800
3E7800
3E7800
3E7800
1C7800
000000
000000
07C000
1FE000
3FF000
7FF000
79F800
F1FFC0
F0FFC0
F0FFC0
F07F00
F07000
F8F000
7DF000
7FE000
3FC000
0F8000
ENDCHAR
STARTCHAR uni04E8
ENCODING 1256
SWIDTH 816 0
DWIDTH 26 0
BBX 24 27 2 0
BITMAP
003F80
01FFE0
03FFF0
07F3F8
0F80FC
1F007C
3E003E
3E003E
7C001E
7C001E
78001F
F8001F
FFFFFE
FFFFFE
FFFFFE
F8003E
F8003E
F8003E
F8007C
F8007C
7C00F8
7C01F0
3E03F0
3F8FE0
1FFFC0
07FF00
01FC00
ENDCHAR
STARTCHAR uni04E9
ENCODING 1257
SWIDTH 451 0
DWIDTH 14 0
BBX 18 15 1 0
BITMAP
07C000
1FE000
3FF000
7CF000
787800
F07FC0
FFFFC0
FFFFC0
FFFF00
F07000
F8F000
7DF000
7FE000
3FC000
0F8000
ENDCHAR
STARTCHAR uni04EA
ENCODING 1258
SWIDTH 816 0
DWIDTH 26 0
BBX 24 34 2 0
BITMAP
0070E0
00F9F0
00F9F0
00F9F0
0070E0
000000
000000
003F80
01FFE0
03FFF0
07F3F8
0F80FC
1F007C
3E003E
3E003E
7C001E
7C001E
78001F
F8001F
FFFFFE
FFFFFE
FFFFFE
F8003E
F8003E
F8003E
F8007C
F8007C
7C00F8
7C01F0
3E03F0
3F8FE0
1FFFC0
07FF00
01FC00
ENDCHAR
STARTCHAR uni04EB
ENCODING 1259
SWIDTH 451 0
DWIDTH 14 0
BBX 18 22 1 0
BITMAP
1C3800
3E7800
3E7800
3E7800
1C7000
000000
000000
07C000
1FE000
3FF000
7CF000
787800
F07FC0
FFFFC0
FFFFC0
FFFF00
F07000
F8F000
7DF000
7FE000
3FC000
0F8000
ENDCHAR
STARTCHAR uni04EC
ENCODING 1260
SWIDTH 755 0
DWIDTH 24 0
BBX 23 34 1 0
BITMAP
0070E0
00F9E0
00F9E0
00F9E0
0071E0
000000
000000
00FF00
03FFC0
0FFFE0
1FC7F0
3E01F8
3C00F8
38007C
00007C
00007C
00003C
00003E
00003E
03FFFE
03FFFC
03FFFC
00003C
00007C
00007C
700078
7800F8
F800F0
F801F0
7807E0
7F1FC0
3FFF80
1FFE00
07F800
ENDCHAR
STARTCHAR uni04ED
ENCODING 1261
SWIDTH 466 0
DWIDTH 15 0
BBX 18 22 1 0
BITMAP
0E3800
1E7C00
1E7C00
1E7C00
1C3800
000000
000000
1FC000
3FF000
7FF000
39F800
007800
0079C0
07FFC0
07FFC0
67FF80
E07800
F07800
F9F800
7FF000
7FE000
1F8000
ENDCHAR
STARTCHAR uni04EE
ENCODING 1262
SWIDTH 824 0
DWIDTH 26 0
BBX 30 40 1 -8
BITMAP
001FF800
001FF800
001FF800
00000000
00000000
07C00380
1FE007C0
7FE007C0
FBE007C0
E1F00780
C1E00F80
01E00F80
01E00F80
03E01F80
03E01F80
03C03F00
03C03F00
07C07F00
07C0EF00
03C1EF00
03E7DF00
03FF9E00
01FF1E00
00FC1FF8
00001FFC
00007FF8
0003FFC0
000FFC00
001FFC00
007E3C00
00F83C00
00F03C00
01E07800
01E07800
01C0F000
01E1F000
01F7E000
01FFC000
00FF8000
007E0000
ENDCHAR
STARTCHAR uni04EF
ENCODING 1263
SWIDTH 479 0
DWIDTH 15 0
BBX 19 35 0 -15
BITMAP
07FE00
0FFE00
07FC00
000000
000000
0E1C00
1E3C00
1E3C00
3C3C00
3C7C00
3C7800
3C7800
38F840
38F8E0
39F9E0
3FFFC0
3FFF80
3F7F00
3E7C00
1CF800
01F000
03F000
07E000
0FE000
1DE000
39E000
79C000
71C000
E3C000
E38000
E78000
FF0000
FF0000
7E0000
3C0000
ENDCHAR
STARTCHAR uni04F0
ENCODING 1264
SWIDTH 824 0
DWIDTH 26 0
BBX 30 42 1 -8
BITMAP
001C3800
001E7C00
003E7C00
003E7C00
001C3800
00000000
00000000
07C00380
1FE007C0
7FE007C0
FBE007C0
E1F00780
C1E00F80
01E00F80
01E00F80
03E01F80
03E01F80
03C03F00
03C03F00
07C07F00
07C0EF00
03C1EF00
03E7DF00
03FF9E00
01FF1E00
00FC1FF8
00001FFC
00007FF8
0003FFC0
000FFC00
001FFC00
007E3C00
00F83C00
00F03C00
01E07800
01E07800
01C0F000
01E1F000
01F7E000
01FFC000
00FF8000
007E0000
ENDCHAR
STARTCHAR uni04F1
ENCODING 1265
SWIDTH 479 0
DWIDTH 15 0
BBX 19 37 0 -15
BITMAP
070E00
0F9E00
0F9E00
0F9E00
071E00
000000
000000
0E1C00
1E3C00
1E3C00
3C3C00
3C7C00
3C7800
3C7800
38F840
38F8E0
39F9E0
3FFFC0
3FFF80
3F7F00
3E7C00
1CF800
01F000
03F000
07E000
0FE000
1DE000
39E000
79C000
71C000
E3C000
E38000
E78000
FF0000
FF0000
7E0000
3C0000
ENDCHAR
STARTCHAR uni04F2
ENCODING 1266
SWIDTH 824 0
DWIDTH 26 0
BBX 30 45 1 -8
BITMAP
00020800
00079C00
00079E00
0007BC00
000F3C00
000E3800
000E3800
000C3000
00000000
00000000
07C00380
1FE007C0
7FE007C0
FBE007C0
E1F00780
C1E00F80
01E00F80
01E00F80
03E01F80
03E01F80
03C03F00
03C03F00
07C07F00
07C0EF00
03C1EF00
03E7DF00
03FF9E00
01FF1E00
00FC1FF8
00001FFC
00007FF8
0003FFC0
000FFC00
001FFC00
007E3C00
00F83C00
00F03C00
01E07800
01E07800
01C0F000
01E1F000
01F7E000
01FFC000
00FF8000
007E0000
ENDCHAR
STARTCHAR uni04F3
ENCODING 1267
SWIDTH 479 0
DWIDTH 15 0
BBX 19 42 0 -15
BITMAP
00E380
00E780
01E780
01E780
01EF00
03CF00
038E00
038E00
071C00
031800
000000
000000
0E1C00
1E3C00
1E3C00
3C3C00
3C7C00
3C7800
3C7800
38F840
38F8E0
39F9E0
3FFFC0
3FFF80
3F7F00
3E7C00
1CF800
01F000
03F000
07E000
0FE000
1DE000
39E000
79C000
71C000
E3C000
E38000
E78000
FF0000
FF0000
7E0000
3C0000
ENDCHAR
STARTCHAR uni04F4
ENCODING 1268
SWIDTH 773 0
DWIDTH 25 0
BBX 20 34 4 0
BITMAP
038700
07CF80
07CF80
07CF00
038700
000000
000000
3800E0
7801F0
7C01F0
7C01F0
7C01E0
7801E0
7801E0
F803E0
F803E0
F803E0
F007E0
F007E0
F00FC0
F01FC0
F87FC0
FFFBC0
FFF3C0
7FE3C0
1F87C0
0007C0
000780
000780
000780
000780
000780
000780
000700
ENDCHAR
STARTCHAR uni04F5
ENCODING 1269
SWIDTH 555 0
DWIDTH 18 0
BBX 22 23 0 0
BITMAP
0078E0
0079F0
00F9F0
0079F0
0070E0
008000
03C000
03E000
03FFC0
077FC0
077FC0
070F80
0F1F00
0E3E00
1E7C00
1CF804
38F00C
79E01C
F1E07C
E1FBF8
C0FFF0
00FFC0
003F00
ENDCHAR
STARTCHAR uni04F6
ENCODING 1270
SWIDTH 600 0
DWIDTH 19 0
BBX 26 37 1 -10
BITMAP
00FFFFC0
0FFFFFC0
3FFFFFC0
7FFC0000
7C7C0000
F0780000
F0780000
F0F80000
F0F80000
78F80000
70F00000
00F00000
01F00000
01F00000
01F00000
01F00000
01E00000
01E00000
01E00000
03E00000
03E00000
03E00000
03E00000
03F80000
03F80000
03F80000
01F80000
03F80000
0FF80000
1F780000
3E700000
3C700000
3CF00000
7DE00000
7FE00000
3FC00000
1F800000
ENDCHAR
STARTCHAR uni04F7
ENCODING 1271
SWIDTH 441 0
DWIDTH 14 0
BBX 16 24 1 -9
BITMAP
1F80
7FC0
7FE0
7BE0
01E0
03C0
0F80
1F00
7C00
7001
F007
FCEF
FFFE
7FFC
3FF0
07E0
0FE0
1DC0
39C0
71C0
7380
7F80
7F00
3E00
ENDCHAR
STARTCHAR uni04F8
ENCODING 1272
SWIDTH 1078 0
DWIDTH 35 0
BBX 32 34 1 0
BITMAP
0001C380
0003E780
0003E7C0
0003E780
0001C780
00000000
00000000
03800007
07C0000F
07C0000F
0780000F
0780000F
0F80001F
0F00001F
0F00001F
0F00001F
1F7F801E
1FFFE01E
1FFFF01E
7FE7F83E
FE00F83E
FE007C3E
5E007C3C
3E007C3C
3E007C3C
3E00787C
1E00787C
1E00F87C
1E01F07C
1F03F078
0FDFE078
0FFFC078
07FF0078
01FC0070
ENDCHAR
STARTCHAR uni04F9
ENCODING 1273
SWIDTH 702 0
DWIDTH 22 0
BBX 25 22 2 0
BITMAP
01C38000
03E78000
03E78000
03E78000
01C70000
00000000
00000000
3800E000
7801E000
7801E000
F801E000
F3C3E000
F7E7E000
FFF7C000
FDFFC000
F07FC100
F07FC380
F0FBC700
F9F3FF00
7FE1FE00
7FC1FC00
1F00F000
ENDCHAR
STARTCHAR uni04FA
ENCODING 1274
SWIDTH 635 0
DWIDTH 20 0
BBX 29 38 -2 -11
BITMAP
001FFFF8
01FFFFF8
07FFFFF8
0FFF8000
0F8F8000
1E0F0000
1E0F0000
1E1F0000
1E1F0000
1F1F0000
0E1E0000
001E0000
01FFE000
01FFE000
01FFE000
003E0000
003E0000
003C0000
003C0000
003C0000
007C0000
007C0000
007C0000
007C0000
00780000
00780000
00F80000
00F80000
00F80000
00F00000
01F00000
01F00000
21E00000
F3E00000
F3C00000
FFC00000
FF800000
7F000000
ENDCHAR
STARTCHAR uni04FB
ENCODING 1275
SWIDTH 441 0
DWIDTH 14 0
BBX 17 24 0 -9
BITMAP
0FC000
3FE000
3FF000
3DF000
00F000
01E000
E7E000
7F8000
3F8000
3FC080
780380
7E7780
7FFF00
3FFE00
1FF800
03F000
07F000
0EE000
1CE000
38E000
39C000
3FC000
3F8000
1F0000
ENDCHAR
STARTCHAR uni04FC
ENCODING 1276
SWIDTH 716 0
DWIDTH 23 0
BBX 27 38 0 -11
BITMAP
07C00700
1FE00F80
3FF01F00
79F83E00
F0F87C00
C07CF800
007DF800
003DF000
003FE000
003FC000
003F8000
001F0000
003F0000
003F0000
007F0000
00FF0000
01FF8000
03EF8000
07C78000
0F87C000
1F87C000
1F07C060
3E03E8E0
7C03FFE0
F801FFC0
F800FF80
F0007E00
0001FC00
0003FC00
000FF800
001F3800
001E7800
003C7800
003CF000
003DF000
003FE000
001FC000
000F8000
ENDCHAR
STARTCHAR uni04FD
ENCODING 1277
SWIDTH 601 0
DWIDTH 19 0
BBX 22 25 1 -10
BITMAP
1E0F00
3FBF00
3FFF00
3BF700
3BF700
31E700
01E000
01E000
73E000
E3E008
E3E01C
F7FB78
FFFFF8
FEFFE0
7C7FC0
001F00
003F00
00F700
01EE00
01CE00
039E00
03FC00
03FC00
01F800
01E000
ENDCHAR
STARTCHAR uni04FE
ENCODING 1278
SWIDTH 712 0
DWIDTH 23 0
BBX 27 27 0 0
BITMAP
07C00700
1FE00F80
3FF01F00
79F83E00
F0F87C00
C07CFC00
007DF800
003DF000
003FE000
003FC000
003F8000
03FFF000
07FFF800
07FFF000
007F0000
00FF0000
01FF8000
03EF8000
07C78000
0FC78000
1F87C060
1F07C0E0
3E03E1E0
7C03F7C0
FC01FF80
F800FF00
F0007C00
ENDCHAR
STARTCHAR uni04FF
ENCODING 1279
SWIDTH 529 0
DWIDTH 17 0
BBX 20 15 1 0
BITMAP
1E0F00
3FBF00
3FFF00
3BF700
3BE700
31F700
07FC00
0FF800
F7F830
E3E070
E3E0F0
F7FBE0
FFFFC0
FEFF80
783E00
ENDCHAR
STARTCHAR uni0510
ENCODING 1296
SWIDTH 706 0
DWIDTH 23 0
BBX 20 27 2 0
BITMAP
00FE00
03FF80
0FFFC0
0FCFE0
1F03E0
1E01E0
1E01E0
1E01E0
1E01E0
1E0080
0F0000
0F8000
0FF800
3FFC00
7CFC00
F80000
F80000
F000E0
F001E0
F001F0
F801E0
F801E0
FC03E0
7F9FC0
3FFF80
1FFF00
03F800
ENDCHAR
STARTCHAR uni0511
ENCODING 1297
SWIDTH 392 0
DWIDTH 13 0
BBX 15 15 1 0
BITMAP
0F80
3FC0
7FE0
7DE0
7040
7800
3F00
1F00
7F06
F00E
F01E
F9FC
FFF8
7FF0
3FC0
ENDCHAR
STARTCHAR uni0512
ENCODING 1298
SWIDTH 884 0
DWIDTH 28 0
BBX 33 37 0 -10
BITMAP
00001C0000
00003E0000
00007E0000
00007E0000
00007E0000
0000FE0000
0000FE0000
0000FE0000
0001FE0000
0001FC0000
0001FC0000
0003FC0000
0003FC0000
0007BC0000
0007BC0000
0007BC0000
000F3E0000
000F3E0000
001F3E0000
001E3E0000
703E1E0000
F07C1E0100
F0F81F2780
7DF81FFF00
7FF00FFF00
3FE007FC00
0F8003F000
000007E000
00001FE000
00003FE000
000079E000
0000F1C000
0000F3C000
0000F3C000
0000FF8000
0000FF0000
00007E0000
ENDCHAR
STARTCHAR uni0513
ENCODING 1299
SWIDTH 631 0
DWIDTH 20 0
BBX 23 25 0 -10
BITMAP
003C00
003E00
007E00
007E00
00FE00
00FE00
01FC00
21FC00
71DC00
F3DC02
F79C06
FF9EDE
FF1FFE
7E1FF8
3C0FF0
0007C0
000FC0
003FC0
007380
006380
00E780
00EF00
00FF00
007E00
007800
ENDCHAR
STARTCHAR uni051A
ENCODING 1306
SWIDTH 816 0
DWIDTH 26 0
BBX 26 37 2 -10
BITMAP
003F8000
01FFE000
03FFF000
07FBF800
0FC0FC00
1F007C00
3E003E00
3E003E00
7C001E00
7C001E00
78001F00
F8001F00
F8001E00
F8001E00
F8001E00
F8003E00
F8003E00
F8003E00
F8007C00
F8007C00
7C00F800
7E01F800
3F03F000
3FFFE000
1FFFC000
07FF0000
01FC0000
003E0000
003F0000
001F0000
000F8040
000F80C0
000FC1C0
0007F780
0003FF80
0001FF00
0000FC00
ENDCHAR
STARTCHAR uni051B
ENCODING 1307
SWIDTH 500 0
DWIDTH 16 0
BBX 19 30 1 -13
BITMAP
000800
003C00
03FC00
0FFC00
1FFC00
3FF800
3C7800
787800
78F000
F0F000
F0F000
F0F7E0
F1EFE0
FBEFE0
7FEE00
7FE600
3DE600
01E600
03E600
03C600
03C600
03CE00
03CE00
03CE00
03CC00
03CC00
01FC00
01F800
01F800
00F000
ENDCHAR
STARTCHAR uni051C
ENCODING 1308
SWIDTH 1217 0
DWIDTH 39 0
BBX 40 28 4 0
BITMAP
0000000780
3800700FE0
7800F01FE0
7800F03FF0
7801F038F0
F801F038F0
F801F038F0
F801F078F0
F801F078F0
F803F038F0
F803E039E0
F003E03DE0
F003E01FE0
F007E01FC0
F007E00FFE
F007E007FF
F00FE007FE
F00EE00780
F81EF00F00
F81EF01F00
F83CF01E00
783CF03C00
7878F07C00
7CF878F800
3FF07FF000
3FE07FE000
1FC03FC000
0F001F0000
ENDCHAR
STARTCHAR uni051D
ENCODING 1309
SWIDTH 700 0
DWIDTH 22 0
BBX 25 15 2 0
BITMAP
E060E000
E0E1F000
E0E1F000
E1E3F000
E1F3F000
F3F3EF80
F3F1FF80
F7F3FF00
F7F3FE00
F7F78000
FEFF0000
FEFF0000
FC7E0000
7C7C0000
78380000
ENDCHAR
STARTCHAR uni0524
ENCODING 1316
SWIDTH 892 0
DWIDTH 29 0
BBX 32 38 1 -11
BITMAP
007FFFE0
07FFFFFE
1FFFFFFF
3FFC03FE
7C7C07C0
F87C07C0
F07C07C0
F07807C0
F0780780
78F80780
70F80F80
00F80F80
00F00F80
00F00F00
01F00F00
01F01F00
01F01F00
01F01E00
01E01E00
01E01E00
01E01E00
03E01F02
03E01FEF
03E01FFF
03E00FFE
03E001F8
01C003F0
00000FC0
00003FC0
00007FC0
0000FBC0
0001F3C0
0001E380
0001E780
0001EF00
0001FF00
0001FE00
00007800
ENDCHAR
STARTCHAR uni0525
ENCODING 1317
SWIDTH 536 0
DWIDTH 17 0
BBX 18 25 2 -10
BITMAP
387000
79F800
73F800
F3F800
F7F000
FEF000
FEF000
FCF000
F8F000
F8E040
F8F1C0
F0FBC0
F0FFC0
F07F00
607E00
00F800
03F800
07F000
0F7000
0E7000
1CF000
1DE000
1FE000
1FC000
0F0000
ENDCHAR
STARTCHAR uni0526
ENCODING 1318
SWIDTH 818 0
DWIDTH 26 0
BBX 28 38 2 -11
BITMAP
07000000
07800000
0F800000
0F800000
0F800000
0F000000
1F000000
1F000000
1F000000
1F000000
1E000000
1E000000
3E1F8000
3E7FE000
3EFFE000
3DFFF000
3FE1F000
3F81F000
7E01F000
7E01F000
7C01F000
7C01F010
7801FE70
7801FFF0
F801FFE0
7801FFC0
70003F00
0000FE00
0001FE00
0003FE00
00079C00
000F3C00
001E3C00
001E3800
001FF800
001FF000
000FF000
0007C000
ENDCHAR
STARTCHAR uni0527
ENCODING 1319
SWIDTH 542 0
DWIDTH 17 0
BBX 19 40 2 -10
BITMAP
03E000
07E000
0FF000
0EF000
1E7000
1C7000
3C7000
3CE000
38E000
78E000
79C000
79C000
738000
770000
F70000
FE7000
FDF800
F9F800
F3F800
F7F800
F67000
FEF000
FCF000
FCF000
F8F040
F8F0E0
F8FBE0
F0FFC0
F07F00
E07E00
00F800
01F800
07B800
0F7000
0E7000
1C7000
1FE000
1FE000
0FC000
078000
ENDCHAR
STARTCHAR uni0528
ENCODING 1320
SWIDTH 873 0
DWIDTH 28 0
BBX 36 39 -4 -11
BITMAP
0000000780
007C001FC0
01FE001FC0
03FF003FC0
07DF0078C0
0F0F0078C0
0E0F80F0C0
1C0F80F1C0
080F00F1C0
000F01E3C0
000F01E380
000F01EF00
000F01FE00
001F07FC00
00FFFFF800
01FFFFE000
01FFFBC000
001E03C000
003E03C000
003E03C000
003E03C000
003C03E030
003C03E070
007C01E0F0
007C01FBE0
007C00FFC0
0078007F80
0078003E00
00F8000000
00F8000000
00F0000000
00F0000000
01F0000000
71E0000000
F1E0000000
FBC0000000
FFC0000000
7F80000000
3E00000000
ENDCHAR
STARTCHAR uni0529
ENCODING 1321
SWIDTH 475 0
DWIDTH 15 0
BBX 22 25 -3 -10
BITMAP
01C380
03C380
038380
078780
078780
078780
07FF00
07FF00
07FF0C
070F0C
070F1C
070F78
070FF0
0707E0
0707C0
078000
078000
078000
078000
470000
E70000
EF0000
FF0000
FE0000
7C0000
ENDCHAR
STARTCHAR uni052E
ENCODING 1326
SWIDTH 884 0
DWIDTH 28 0
BBX 33 37 0 -10
BITMAP
00001C0000
00003E0000
00007E0000
00007E0000
00007E0000
0000FE0000
0000FE0000
0000FE0000
0001FE0000
0001FC0000
0001FC0000
0003FC0000
0003FC0000
0007BC0000
0007BC0000
0007BC0000
000F3E0000
000F3E0000
001F3E0000
001E3E0000
703E1E0000
F07C1E0100
F0F81F2780
7DF81FFF00
7FF00FFF00
3FE007FC00
0F8003F000
000007E000
00001FE000
00003FE000
000079E000
0000F1C000
0000F3C000
0000F3C000
0000FF8000
0000FF0000
00007E0000
ENDCHAR
STARTCHAR uni052F
ENCODING 1327
SWIDTH 631 0
DWIDTH 20 0
BBX 23 25 0 -10
BITMAP
003C00
003E00
007E00
007E00
00FE00
00FE00
01FC00
21FC00
71DC00
F3DC02
F79C06
FF9EDE
FF1FFE
7E1FF8
3C0FF0
0007C0
000FC0
003FC0
007380
006380
00E780
00EF00
00FF00
007E00
007800
ENDCHAR
STARTCHAR Wgrave
ENCODING 7808
SWIDTH 1217 0
DWIDTH 39 0
BBX 40 37 4 0
BITMAP
0010000000
003C000000
003E000000
003F000000
001F800000
0007E00000
0001E00000
0000600000
0000000000
0000000780
3800700FE0
7800F01FE0
7800F03FF0
7801F038F0
F801F038F0
F801F038F0
F801F078F0
F801F078F0
F803F038F0
F803E039E0
F003E03DE0
F003E01FE0
F007E01FC0
F007E00FFE
F007E007FF
F00FE007FE
F00EE00780
F81EF00F00
F81EF01F00
F83CF01E00
783CF03C00
7878F07C00
7CF878F800
3FF07FF000
3FE07FE000
1FC03FC000
0F001F0000
ENDCHAR
STARTCHAR wgrave
ENCODING 7809
SWIDTH 700 0
DWIDTH 22 0
BBX 25 27 2 0
BITMAP
02000000
07000000
0F800000
07800000
07800000
03C00000
01C00000
00E00000
00E00000
00600000
00000000
00000000
E060E000
E0E1F000
E0E1F000
E1E3F000
E1F3F000
F3F3EF80
F3F1FF80
F7F3FF00
F7F3FE00
F7F78000
FEFF0000
FEFF0000
FC7E0000
7C7C0000
78380000
ENDCHAR
STARTCHAR Wacute
ENCODING 7810
SWIDTH 1217 0
DWIDTH 39 0
BBX 40 37 4 0
BITMAP
0000008000
000001E000
000003E000
000007E000
00001FC000
00003F0000
00007C0000
0000300000
0000000000
0000000780
3800700FE0
7800F01FE0
7800F03FF0
7801F038F0
F801F038F0
F801F038F0
F801F078F0
F801F078F0
F803F038F0
F803E039E0
F003E03DE0
F003E01FE0
F007E01FC0
F007E00FFE
F007E007FF
F00FE007FE
F00EE00780
F81EF00F00
F81EF01F00
F83CF01E00
783CF03C00
7878F07C00
7CF878F800
3FF07FF000
3FE07FE000
1FC03FC000
0F001F0000
ENDCHAR
STARTCHAR wacute
ENCODING 7811
SWIDTH 700 0
DWIDTH 22 0
BBX 25 27 2 0
BITMAP
00040000
000F0000
000F0000
001F0000
001E0000
003C0000
003C0000
00380000
00700000
00600000
00000000
00000000
E060E000
E0E1F000
E0E1F000
E1E3F000
E1F3F000
F3F3EF80
F3F1FF80
F7F3FF00
F7F3FE00
F7F78000
FEFF0000
FEFF0000
FC7E0000
7C7C0000
78380000
ENDCHAR
STARTCHAR Wdieresis
ENCODING 7812
SWIDTH 1217 0
DWIDTH 39 0
BBX 40 34 4 0
BITMAP
0003870000
0007CF8000
0007CF8000
0007CF8000
0003870000
0000000000
0000000780
3800700FE0
7800F01FE0
7800F03FF0
7801F038F0
F801F038F0
F801F038F0
F801F078F0
F801F078F0
F803F038F0
F803E039E0
F003E03DE0
F003E01FE0
F007E01FC0
F007E00FFE
F007E007FF
F00FE007FE
F00EE00780
F81EF00F00
F81EF01F00
F83CF01E00
783CF03C00
7878F07C00
7CF878F800
3FF07FF000
3FE07FE000
1FC03FC000
0F001F0000
ENDCHAR
STARTCHAR wdieresis
ENCODING 7813
SWIDTH 700 0
DWIDTH 22 0
BBX 25 22 2 0
BITMAP
038F0000
078F0000
07DF0000
078F0000
078E0000
00000000
00000000
E060E000
E0E1F000
E0E1F000
E1E3F000
E1F3F000
F3F3EF80
F3F1FF80
F7F3FF00
F7F3FE00
F7F78000
FEFF0000
FEFF0000
FC7E0000
7C7C0000
78380000
ENDCHAR
STARTCHAR uni1E9E
ENCODING 7838
SWIDTH 843 0
DWIDTH 27 0
BBX 23 28 3 -1
BITMAP
0E03F0
1F0FF8
1E3FFC
1E7EFE
3EF03E
3EE03E
3DC03E
3D803E
3F807C
7F00F8
7F03F0
7E1FC0
7E3F00
7E3FE0
7C1FF8
7C00F8
FC007C
F8007C
F8003C
F8003C
F8007C
F8007C
F000F8
F001F8
F003F0
F03FE0
E07FC0
007E00
ENDCHAR
STARTCHAR uni1EA0
ENCODING 7840
SWIDTH 786 0
DWIDTH 25 0
BBX 27 34 2 -7
BITMAP
0007FE00
003FFF80
00FFFF80
01FF3F00
07F00000
0FC03000
1F807800
1F007800
3E007800
3C00F800
7C00F800
7C00F000
7800F000
F801F000
F801F000
F801F000
F801F000
F803E000
F803E000
F807E000
F807E060
F80FE060
7C1DF0E0
7F7DFFC0
3FF9FFC0
1FF0FF00
07C07E00
00000000
00000000
00F00000
01F00000
01F80000
01F00000
00E00000
ENDCHAR
STARTCHAR uni1EA1
ENCODING 7841
SWIDTH 470 0
DWIDTH 15 0
BBX 18 22 1 -7
BITMAP
03C000
0FF000
1FF800
3FF800
3C7800
7C7000
78F000
F0F000
F0F0C0
F0F1C0
F1F3C0
FFF780
7F7F00
7F7E00
3C3C00
000000
000000
1E0000
3F0000
3F0000
3F0000
1E0000
ENDCHAR
STARTCHAR uni1EA2
ENCODING 7842
SWIDTH 786 0
DWIDTH 25 0
BBX 27 37 2 0
BITMAP
0001F000
0003F800
0001FC00
00001C00
00001C00
0000FC00
0000F800
0000F000
00000000
00000000
0007FE00
003FFF80
00FFFF80
01FF3F00
07F00000
0FC03000
1F807800
1F007800
3E007800
3C00F800
7C00F800
7C00F000
7800F000
F801F000
F801F000
F801F000
F801F000
F803E000
F803E000
F807E000
F807E060
F80FE060
7C1DF0E0
7F7DFFC0
3FF9FFC0
1FF0FF00
07C07E00
ENDCHAR
STARTCHAR uni1EA3
ENCODING 7843
SWIDTH 470 0
DWIDTH 15 0
BBX 18 26 1 0
BITMAP
01F000
03F800
03F800
001C00
001C00
003800
00F800
01F000
01E000
000000
000000
03C000
0FF000
1FF800
3FF800
3C7800
7C7000
78F000
F0F000
F0F0C0
F0F1C0
F1F3C0
FFF780
7F7F00
7F7E00
3C3C00
ENDCHAR
STARTCHAR uni1EA4
ENCODING 7844
SWIDTH 786 0
DWIDTH 25 0
BBX 27 47 2 0
BITMAP
00000080
000001E0
000003E0
00000FE0
00001FC0
00003F00
00007C00
00007000
00000000
0000F000
0001F800
0001F800
0003F800
0007BC00
00079C00
000F1E00
000F1E00
000E0C00
00000000
00000000
0007FE00
003FFF80
00FFFF80
01FF3F00
07F00000
0FC03000
1F807800
1F007800
3E007800
3C00F800
7C00F800
7C00F000
7800F000
F801F000
F801F000
F801F000
F801F000
F803E000
F803E000
F807E000
F807E060
F80FE060
7C1DF0E0
7F7DFFC0
3FF9FFC0
1FF0FF00
07C07E00
ENDCHAR
STARTCHAR uni1EA5
ENCODING 7845
SWIDTH 470 0
DWIDTH 15 0
BBX 19 28 1 0
BITMAP
0000C0
0001E0
0003E0
0007C0
002600
01F000
03F800
07B800
0F3C00
0F1C00
1E1C00
000000
000000
03C000
0FF000
1FF800
3FF800
3C7800
7C7000
78F000
F0F000
F0F0C0
F0F1C0
F1F3C0
FFF780
7F7F00
7F7E00
3C3C00
ENDCHAR
STARTCHAR uni1EA6
ENCODING 7846
SWIDTH 786 0
DWIDTH 25 0
BBX 27 47 2 0
BITMAP
00100000
003C0000
003E0000
003F0000
001F8000
0007C000
0001E000
00006000
00000000
0000F000
0001F800
0001F800
0003F800
0007BC00
00079C00
000F1E00
000F1E00
000E0C00
00000000
00000000
0007FE00
003FFF80
00FFFF80
01FF3F00
07F00000
0FC03000
1F807800
1F007800
3E007800
3C00F800
7C00F800
7C00F000
7800F000
F801F000
F801F000
F801F000
F801F000
F803E000
F803E000
F807E000
F807E060
F80FE060
7C1DF0E0
7F7DFFC0
3FF9FFC0
1FF0FF00
07C07E00
ENDCHAR
STARTCHAR uni1EA7
ENCODING 7847
SWIDTH 470 0
DWIDTH 15 0
BBX 18 28 1 0
BITMAP
700000
780000
7C0000
3E0000
0C2000
01F000
03F800
07B800
0F3C00
0F1C00
1E1C00
000000
000000
03C000
0FF000
1FF800
3FF800
3C7800
7C7000
78F000
F0F000
F0F0C0
F0F1C0
F1F3C0
FFF780
7F7F00
7F7E00
3C3C00
ENDCHAR
ENDFONT
